%TF.GenerationSoftware,KiCad,Pcbnew,(5.1.6)-1*%
%TF.CreationDate,2021-01-03T17:25:39+01:00*%
%TF.ProjectId,Nucleo144_DSP,4e75636c-656f-4313-9434-5f4453502e6b,rev?*%
%TF.SameCoordinates,Original*%
%TF.FileFunction,Soldermask,Top*%
%TF.FilePolarity,Negative*%
%FSLAX46Y46*%
G04 Gerber Fmt 4.6, Leading zero omitted, Abs format (unit mm)*
G04 Created by KiCad (PCBNEW (5.1.6)-1) date 2021-01-03 17:25:39*
%MOMM*%
%LPD*%
G01*
G04 APERTURE LIST*
%ADD10C,2.800000*%
%ADD11R,2.100000X2.100000*%
%ADD12C,2.100000*%
%ADD13R,2.100000X4.600000*%
%ADD14R,1.800000X1.800000*%
%ADD15O,1.800000X1.800000*%
%ADD16R,0.800000X1.400000*%
%ADD17R,1.400000X0.800000*%
%ADD18C,3.300000*%
%ADD19C,1.800000*%
%ADD20R,2.900000X2.900000*%
%ADD21R,2.900000X2.700000*%
%ADD22R,2.900000X2.300000*%
G04 APERTURE END LIST*
D10*
%TO.C,REF\u002A\u002A*%
X124500000Y-86000000D03*
%TD*%
%TO.C,REF\u002A\u002A*%
X124500000Y-62000000D03*
%TD*%
%TO.C,REF\u002A\u002A*%
X147500000Y-86000000D03*
%TD*%
%TO.C,REF\u002A\u002A*%
X147500000Y-62000000D03*
%TD*%
D11*
%TO.C,C16*%
X117000000Y-141000000D03*
D12*
X117000000Y-146000000D03*
%TD*%
D13*
%TO.C,Y1*%
X146000000Y-117250000D03*
X146000000Y-125750000D03*
%TD*%
%TO.C,C1*%
G36*
G01*
X152981250Y-150600000D02*
X152018750Y-150600000D01*
G75*
G02*
X151750000Y-150331250I0J268750D01*
G01*
X151750000Y-149793750D01*
G75*
G02*
X152018750Y-149525000I268750J0D01*
G01*
X152981250Y-149525000D01*
G75*
G02*
X153250000Y-149793750I0J-268750D01*
G01*
X153250000Y-150331250D01*
G75*
G02*
X152981250Y-150600000I-268750J0D01*
G01*
G37*
G36*
G01*
X152981250Y-152475000D02*
X152018750Y-152475000D01*
G75*
G02*
X151750000Y-152206250I0J268750D01*
G01*
X151750000Y-151668750D01*
G75*
G02*
X152018750Y-151400000I268750J0D01*
G01*
X152981250Y-151400000D01*
G75*
G02*
X153250000Y-151668750I0J-268750D01*
G01*
X153250000Y-152206250D01*
G75*
G02*
X152981250Y-152475000I-268750J0D01*
G01*
G37*
%TD*%
%TO.C,C3*%
G36*
G01*
X138525000Y-119981250D02*
X138525000Y-119018750D01*
G75*
G02*
X138793750Y-118750000I268750J0D01*
G01*
X139331250Y-118750000D01*
G75*
G02*
X139600000Y-119018750I0J-268750D01*
G01*
X139600000Y-119981250D01*
G75*
G02*
X139331250Y-120250000I-268750J0D01*
G01*
X138793750Y-120250000D01*
G75*
G02*
X138525000Y-119981250I0J268750D01*
G01*
G37*
G36*
G01*
X140400000Y-119981250D02*
X140400000Y-119018750D01*
G75*
G02*
X140668750Y-118750000I268750J0D01*
G01*
X141206250Y-118750000D01*
G75*
G02*
X141475000Y-119018750I0J-268750D01*
G01*
X141475000Y-119981250D01*
G75*
G02*
X141206250Y-120250000I-268750J0D01*
G01*
X140668750Y-120250000D01*
G75*
G02*
X140400000Y-119981250I0J268750D01*
G01*
G37*
%TD*%
%TO.C,C4*%
G36*
G01*
X128018750Y-130025000D02*
X128981250Y-130025000D01*
G75*
G02*
X129250000Y-130293750I0J-268750D01*
G01*
X129250000Y-130831250D01*
G75*
G02*
X128981250Y-131100000I-268750J0D01*
G01*
X128018750Y-131100000D01*
G75*
G02*
X127750000Y-130831250I0J268750D01*
G01*
X127750000Y-130293750D01*
G75*
G02*
X128018750Y-130025000I268750J0D01*
G01*
G37*
G36*
G01*
X128018750Y-131900000D02*
X128981250Y-131900000D01*
G75*
G02*
X129250000Y-132168750I0J-268750D01*
G01*
X129250000Y-132706250D01*
G75*
G02*
X128981250Y-132975000I-268750J0D01*
G01*
X128018750Y-132975000D01*
G75*
G02*
X127750000Y-132706250I0J268750D01*
G01*
X127750000Y-132168750D01*
G75*
G02*
X128018750Y-131900000I268750J0D01*
G01*
G37*
%TD*%
%TO.C,C2*%
G36*
G01*
X151981250Y-160975000D02*
X151018750Y-160975000D01*
G75*
G02*
X150750000Y-160706250I0J268750D01*
G01*
X150750000Y-160168750D01*
G75*
G02*
X151018750Y-159900000I268750J0D01*
G01*
X151981250Y-159900000D01*
G75*
G02*
X152250000Y-160168750I0J-268750D01*
G01*
X152250000Y-160706250D01*
G75*
G02*
X151981250Y-160975000I-268750J0D01*
G01*
G37*
G36*
G01*
X151981250Y-159100000D02*
X151018750Y-159100000D01*
G75*
G02*
X150750000Y-158831250I0J268750D01*
G01*
X150750000Y-158293750D01*
G75*
G02*
X151018750Y-158025000I268750J0D01*
G01*
X151981250Y-158025000D01*
G75*
G02*
X152250000Y-158293750I0J-268750D01*
G01*
X152250000Y-158831250D01*
G75*
G02*
X151981250Y-159100000I-268750J0D01*
G01*
G37*
%TD*%
%TO.C,C5*%
G36*
G01*
X140400000Y-121981250D02*
X140400000Y-121018750D01*
G75*
G02*
X140668750Y-120750000I268750J0D01*
G01*
X141206250Y-120750000D01*
G75*
G02*
X141475000Y-121018750I0J-268750D01*
G01*
X141475000Y-121981250D01*
G75*
G02*
X141206250Y-122250000I-268750J0D01*
G01*
X140668750Y-122250000D01*
G75*
G02*
X140400000Y-121981250I0J268750D01*
G01*
G37*
G36*
G01*
X138525000Y-121981250D02*
X138525000Y-121018750D01*
G75*
G02*
X138793750Y-120750000I268750J0D01*
G01*
X139331250Y-120750000D01*
G75*
G02*
X139600000Y-121018750I0J-268750D01*
G01*
X139600000Y-121981250D01*
G75*
G02*
X139331250Y-122250000I-268750J0D01*
G01*
X138793750Y-122250000D01*
G75*
G02*
X138525000Y-121981250I0J268750D01*
G01*
G37*
%TD*%
%TO.C,C6*%
G36*
G01*
X130318750Y-131900000D02*
X131281250Y-131900000D01*
G75*
G02*
X131550000Y-132168750I0J-268750D01*
G01*
X131550000Y-132706250D01*
G75*
G02*
X131281250Y-132975000I-268750J0D01*
G01*
X130318750Y-132975000D01*
G75*
G02*
X130050000Y-132706250I0J268750D01*
G01*
X130050000Y-132168750D01*
G75*
G02*
X130318750Y-131900000I268750J0D01*
G01*
G37*
G36*
G01*
X130318750Y-130025000D02*
X131281250Y-130025000D01*
G75*
G02*
X131550000Y-130293750I0J-268750D01*
G01*
X131550000Y-130831250D01*
G75*
G02*
X131281250Y-131100000I-268750J0D01*
G01*
X130318750Y-131100000D01*
G75*
G02*
X130050000Y-130831250I0J268750D01*
G01*
X130050000Y-130293750D01*
G75*
G02*
X130318750Y-130025000I268750J0D01*
G01*
G37*
%TD*%
%TO.C,C7*%
G36*
G01*
X167025000Y-145981250D02*
X167025000Y-145018750D01*
G75*
G02*
X167293750Y-144750000I268750J0D01*
G01*
X167831250Y-144750000D01*
G75*
G02*
X168100000Y-145018750I0J-268750D01*
G01*
X168100000Y-145981250D01*
G75*
G02*
X167831250Y-146250000I-268750J0D01*
G01*
X167293750Y-146250000D01*
G75*
G02*
X167025000Y-145981250I0J268750D01*
G01*
G37*
G36*
G01*
X168900000Y-145981250D02*
X168900000Y-145018750D01*
G75*
G02*
X169168750Y-144750000I268750J0D01*
G01*
X169706250Y-144750000D01*
G75*
G02*
X169975000Y-145018750I0J-268750D01*
G01*
X169975000Y-145981250D01*
G75*
G02*
X169706250Y-146250000I-268750J0D01*
G01*
X169168750Y-146250000D01*
G75*
G02*
X168900000Y-145981250I0J268750D01*
G01*
G37*
%TD*%
%TO.C,C8*%
G36*
G01*
X168100000Y-142018750D02*
X168100000Y-142981250D01*
G75*
G02*
X167831250Y-143250000I-268750J0D01*
G01*
X167293750Y-143250000D01*
G75*
G02*
X167025000Y-142981250I0J268750D01*
G01*
X167025000Y-142018750D01*
G75*
G02*
X167293750Y-141750000I268750J0D01*
G01*
X167831250Y-141750000D01*
G75*
G02*
X168100000Y-142018750I0J-268750D01*
G01*
G37*
G36*
G01*
X169975000Y-142018750D02*
X169975000Y-142981250D01*
G75*
G02*
X169706250Y-143250000I-268750J0D01*
G01*
X169168750Y-143250000D01*
G75*
G02*
X168900000Y-142981250I0J268750D01*
G01*
X168900000Y-142018750D01*
G75*
G02*
X169168750Y-141750000I268750J0D01*
G01*
X169706250Y-141750000D01*
G75*
G02*
X169975000Y-142018750I0J-268750D01*
G01*
G37*
%TD*%
%TO.C,C9*%
G36*
G01*
X157900000Y-142981250D02*
X157900000Y-142018750D01*
G75*
G02*
X158168750Y-141750000I268750J0D01*
G01*
X158706250Y-141750000D01*
G75*
G02*
X158975000Y-142018750I0J-268750D01*
G01*
X158975000Y-142981250D01*
G75*
G02*
X158706250Y-143250000I-268750J0D01*
G01*
X158168750Y-143250000D01*
G75*
G02*
X157900000Y-142981250I0J268750D01*
G01*
G37*
G36*
G01*
X156025000Y-142981250D02*
X156025000Y-142018750D01*
G75*
G02*
X156293750Y-141750000I268750J0D01*
G01*
X156831250Y-141750000D01*
G75*
G02*
X157100000Y-142018750I0J-268750D01*
G01*
X157100000Y-142981250D01*
G75*
G02*
X156831250Y-143250000I-268750J0D01*
G01*
X156293750Y-143250000D01*
G75*
G02*
X156025000Y-142981250I0J268750D01*
G01*
G37*
%TD*%
%TO.C,C10*%
G36*
G01*
X157900000Y-145981250D02*
X157900000Y-145018750D01*
G75*
G02*
X158168750Y-144750000I268750J0D01*
G01*
X158706250Y-144750000D01*
G75*
G02*
X158975000Y-145018750I0J-268750D01*
G01*
X158975000Y-145981250D01*
G75*
G02*
X158706250Y-146250000I-268750J0D01*
G01*
X158168750Y-146250000D01*
G75*
G02*
X157900000Y-145981250I0J268750D01*
G01*
G37*
G36*
G01*
X156025000Y-145981250D02*
X156025000Y-145018750D01*
G75*
G02*
X156293750Y-144750000I268750J0D01*
G01*
X156831250Y-144750000D01*
G75*
G02*
X157100000Y-145018750I0J-268750D01*
G01*
X157100000Y-145981250D01*
G75*
G02*
X156831250Y-146250000I-268750J0D01*
G01*
X156293750Y-146250000D01*
G75*
G02*
X156025000Y-145981250I0J268750D01*
G01*
G37*
%TD*%
%TO.C,C11*%
G36*
G01*
X149518750Y-123525000D02*
X150481250Y-123525000D01*
G75*
G02*
X150750000Y-123793750I0J-268750D01*
G01*
X150750000Y-124331250D01*
G75*
G02*
X150481250Y-124600000I-268750J0D01*
G01*
X149518750Y-124600000D01*
G75*
G02*
X149250000Y-124331250I0J268750D01*
G01*
X149250000Y-123793750D01*
G75*
G02*
X149518750Y-123525000I268750J0D01*
G01*
G37*
G36*
G01*
X149518750Y-125400000D02*
X150481250Y-125400000D01*
G75*
G02*
X150750000Y-125668750I0J-268750D01*
G01*
X150750000Y-126206250D01*
G75*
G02*
X150481250Y-126475000I-268750J0D01*
G01*
X149518750Y-126475000D01*
G75*
G02*
X149250000Y-126206250I0J268750D01*
G01*
X149250000Y-125668750D01*
G75*
G02*
X149518750Y-125400000I268750J0D01*
G01*
G37*
%TD*%
%TO.C,C12*%
G36*
G01*
X150481250Y-119475000D02*
X149518750Y-119475000D01*
G75*
G02*
X149250000Y-119206250I0J268750D01*
G01*
X149250000Y-118668750D01*
G75*
G02*
X149518750Y-118400000I268750J0D01*
G01*
X150481250Y-118400000D01*
G75*
G02*
X150750000Y-118668750I0J-268750D01*
G01*
X150750000Y-119206250D01*
G75*
G02*
X150481250Y-119475000I-268750J0D01*
G01*
G37*
G36*
G01*
X150481250Y-117600000D02*
X149518750Y-117600000D01*
G75*
G02*
X149250000Y-117331250I0J268750D01*
G01*
X149250000Y-116793750D01*
G75*
G02*
X149518750Y-116525000I268750J0D01*
G01*
X150481250Y-116525000D01*
G75*
G02*
X150750000Y-116793750I0J-268750D01*
G01*
X150750000Y-117331250D01*
G75*
G02*
X150481250Y-117600000I-268750J0D01*
G01*
G37*
%TD*%
%TO.C,C13*%
G36*
G01*
X142575000Y-135718750D02*
X142575000Y-136681250D01*
G75*
G02*
X142306250Y-136950000I-268750J0D01*
G01*
X141768750Y-136950000D01*
G75*
G02*
X141500000Y-136681250I0J268750D01*
G01*
X141500000Y-135718750D01*
G75*
G02*
X141768750Y-135450000I268750J0D01*
G01*
X142306250Y-135450000D01*
G75*
G02*
X142575000Y-135718750I0J-268750D01*
G01*
G37*
G36*
G01*
X140700000Y-135718750D02*
X140700000Y-136681250D01*
G75*
G02*
X140431250Y-136950000I-268750J0D01*
G01*
X139893750Y-136950000D01*
G75*
G02*
X139625000Y-136681250I0J268750D01*
G01*
X139625000Y-135718750D01*
G75*
G02*
X139893750Y-135450000I268750J0D01*
G01*
X140431250Y-135450000D01*
G75*
G02*
X140700000Y-135718750I0J-268750D01*
G01*
G37*
%TD*%
%TO.C,C14*%
G36*
G01*
X140700000Y-133718750D02*
X140700000Y-134681250D01*
G75*
G02*
X140431250Y-134950000I-268750J0D01*
G01*
X139893750Y-134950000D01*
G75*
G02*
X139625000Y-134681250I0J268750D01*
G01*
X139625000Y-133718750D01*
G75*
G02*
X139893750Y-133450000I268750J0D01*
G01*
X140431250Y-133450000D01*
G75*
G02*
X140700000Y-133718750I0J-268750D01*
G01*
G37*
G36*
G01*
X142575000Y-133718750D02*
X142575000Y-134681250D01*
G75*
G02*
X142306250Y-134950000I-268750J0D01*
G01*
X141768750Y-134950000D01*
G75*
G02*
X141500000Y-134681250I0J268750D01*
G01*
X141500000Y-133718750D01*
G75*
G02*
X141768750Y-133450000I268750J0D01*
G01*
X142306250Y-133450000D01*
G75*
G02*
X142575000Y-133718750I0J-268750D01*
G01*
G37*
%TD*%
D12*
%TO.C,C15*%
X129000000Y-146000000D03*
D11*
X129000000Y-141000000D03*
%TD*%
%TO.C,C17*%
G36*
G01*
X115981250Y-151600000D02*
X115018750Y-151600000D01*
G75*
G02*
X114750000Y-151331250I0J268750D01*
G01*
X114750000Y-150793750D01*
G75*
G02*
X115018750Y-150525000I268750J0D01*
G01*
X115981250Y-150525000D01*
G75*
G02*
X116250000Y-150793750I0J-268750D01*
G01*
X116250000Y-151331250D01*
G75*
G02*
X115981250Y-151600000I-268750J0D01*
G01*
G37*
G36*
G01*
X115981250Y-153475000D02*
X115018750Y-153475000D01*
G75*
G02*
X114750000Y-153206250I0J268750D01*
G01*
X114750000Y-152668750D01*
G75*
G02*
X115018750Y-152400000I268750J0D01*
G01*
X115981250Y-152400000D01*
G75*
G02*
X116250000Y-152668750I0J-268750D01*
G01*
X116250000Y-153206250D01*
G75*
G02*
X115981250Y-153475000I-268750J0D01*
G01*
G37*
%TD*%
%TO.C,C18*%
G36*
G01*
X102981250Y-152475000D02*
X102018750Y-152475000D01*
G75*
G02*
X101750000Y-152206250I0J268750D01*
G01*
X101750000Y-151668750D01*
G75*
G02*
X102018750Y-151400000I268750J0D01*
G01*
X102981250Y-151400000D01*
G75*
G02*
X103250000Y-151668750I0J-268750D01*
G01*
X103250000Y-152206250D01*
G75*
G02*
X102981250Y-152475000I-268750J0D01*
G01*
G37*
G36*
G01*
X102981250Y-150600000D02*
X102018750Y-150600000D01*
G75*
G02*
X101750000Y-150331250I0J268750D01*
G01*
X101750000Y-149793750D01*
G75*
G02*
X102018750Y-149525000I268750J0D01*
G01*
X102981250Y-149525000D01*
G75*
G02*
X103250000Y-149793750I0J-268750D01*
G01*
X103250000Y-150331250D01*
G75*
G02*
X102981250Y-150600000I-268750J0D01*
G01*
G37*
%TD*%
%TO.C,C19*%
G36*
G01*
X138400000Y-82481250D02*
X138400000Y-81518750D01*
G75*
G02*
X138668750Y-81250000I268750J0D01*
G01*
X139206250Y-81250000D01*
G75*
G02*
X139475000Y-81518750I0J-268750D01*
G01*
X139475000Y-82481250D01*
G75*
G02*
X139206250Y-82750000I-268750J0D01*
G01*
X138668750Y-82750000D01*
G75*
G02*
X138400000Y-82481250I0J268750D01*
G01*
G37*
G36*
G01*
X136525000Y-82481250D02*
X136525000Y-81518750D01*
G75*
G02*
X136793750Y-81250000I268750J0D01*
G01*
X137331250Y-81250000D01*
G75*
G02*
X137600000Y-81518750I0J-268750D01*
G01*
X137600000Y-82481250D01*
G75*
G02*
X137331250Y-82750000I-268750J0D01*
G01*
X136793750Y-82750000D01*
G75*
G02*
X136525000Y-82481250I0J268750D01*
G01*
G37*
%TD*%
%TO.C,C20*%
G36*
G01*
X132525000Y-82481250D02*
X132525000Y-81518750D01*
G75*
G02*
X132793750Y-81250000I268750J0D01*
G01*
X133331250Y-81250000D01*
G75*
G02*
X133600000Y-81518750I0J-268750D01*
G01*
X133600000Y-82481250D01*
G75*
G02*
X133331250Y-82750000I-268750J0D01*
G01*
X132793750Y-82750000D01*
G75*
G02*
X132525000Y-82481250I0J268750D01*
G01*
G37*
G36*
G01*
X134400000Y-82481250D02*
X134400000Y-81518750D01*
G75*
G02*
X134668750Y-81250000I268750J0D01*
G01*
X135206250Y-81250000D01*
G75*
G02*
X135475000Y-81518750I0J-268750D01*
G01*
X135475000Y-82481250D01*
G75*
G02*
X135206250Y-82750000I-268750J0D01*
G01*
X134668750Y-82750000D01*
G75*
G02*
X134400000Y-82481250I0J268750D01*
G01*
G37*
%TD*%
%TO.C,C21*%
G36*
G01*
X134525000Y-109981250D02*
X134525000Y-109018750D01*
G75*
G02*
X134793750Y-108750000I268750J0D01*
G01*
X135331250Y-108750000D01*
G75*
G02*
X135600000Y-109018750I0J-268750D01*
G01*
X135600000Y-109981250D01*
G75*
G02*
X135331250Y-110250000I-268750J0D01*
G01*
X134793750Y-110250000D01*
G75*
G02*
X134525000Y-109981250I0J268750D01*
G01*
G37*
G36*
G01*
X136400000Y-109981250D02*
X136400000Y-109018750D01*
G75*
G02*
X136668750Y-108750000I268750J0D01*
G01*
X137206250Y-108750000D01*
G75*
G02*
X137475000Y-109018750I0J-268750D01*
G01*
X137475000Y-109981250D01*
G75*
G02*
X137206250Y-110250000I-268750J0D01*
G01*
X136668750Y-110250000D01*
G75*
G02*
X136400000Y-109981250I0J268750D01*
G01*
G37*
%TD*%
%TO.C,C22*%
G36*
G01*
X133400000Y-65481250D02*
X133400000Y-64518750D01*
G75*
G02*
X133668750Y-64250000I268750J0D01*
G01*
X134206250Y-64250000D01*
G75*
G02*
X134475000Y-64518750I0J-268750D01*
G01*
X134475000Y-65481250D01*
G75*
G02*
X134206250Y-65750000I-268750J0D01*
G01*
X133668750Y-65750000D01*
G75*
G02*
X133400000Y-65481250I0J268750D01*
G01*
G37*
G36*
G01*
X131525000Y-65481250D02*
X131525000Y-64518750D01*
G75*
G02*
X131793750Y-64250000I268750J0D01*
G01*
X132331250Y-64250000D01*
G75*
G02*
X132600000Y-64518750I0J-268750D01*
G01*
X132600000Y-65481250D01*
G75*
G02*
X132331250Y-65750000I-268750J0D01*
G01*
X131793750Y-65750000D01*
G75*
G02*
X131525000Y-65481250I0J268750D01*
G01*
G37*
%TD*%
%TO.C,FB1*%
G36*
G01*
X126475000Y-133518750D02*
X126475000Y-134481250D01*
G75*
G02*
X126206250Y-134750000I-268750J0D01*
G01*
X125668750Y-134750000D01*
G75*
G02*
X125400000Y-134481250I0J268750D01*
G01*
X125400000Y-133518750D01*
G75*
G02*
X125668750Y-133250000I268750J0D01*
G01*
X126206250Y-133250000D01*
G75*
G02*
X126475000Y-133518750I0J-268750D01*
G01*
G37*
G36*
G01*
X124600000Y-133518750D02*
X124600000Y-134481250D01*
G75*
G02*
X124331250Y-134750000I-268750J0D01*
G01*
X123793750Y-134750000D01*
G75*
G02*
X123525000Y-134481250I0J268750D01*
G01*
X123525000Y-133518750D01*
G75*
G02*
X123793750Y-133250000I268750J0D01*
G01*
X124331250Y-133250000D01*
G75*
G02*
X124600000Y-133518750I0J-268750D01*
G01*
G37*
%TD*%
D14*
%TO.C,J1*%
X111870000Y-78560000D03*
D15*
X114410000Y-78560000D03*
X111870000Y-81100000D03*
X114410000Y-81100000D03*
X111870000Y-83640000D03*
X114410000Y-83640000D03*
X111870000Y-86180000D03*
X114410000Y-86180000D03*
X111870000Y-88720000D03*
X114410000Y-88720000D03*
X111870000Y-91260000D03*
X114410000Y-91260000D03*
X111870000Y-93800000D03*
X114410000Y-93800000D03*
X111870000Y-96340000D03*
X114410000Y-96340000D03*
%TD*%
D14*
%TO.C,J2*%
X157590000Y-69670000D03*
D15*
X160130000Y-69670000D03*
X157590000Y-72210000D03*
X160130000Y-72210000D03*
X157590000Y-74750000D03*
X160130000Y-74750000D03*
X157590000Y-77290000D03*
X160130000Y-77290000D03*
X157590000Y-79830000D03*
X160130000Y-79830000D03*
X157590000Y-82370000D03*
X160130000Y-82370000D03*
X157590000Y-84910000D03*
X160130000Y-84910000D03*
X157590000Y-87450000D03*
X160130000Y-87450000D03*
X157590000Y-89990000D03*
X160130000Y-89990000D03*
X157590000Y-92530000D03*
X160130000Y-92530000D03*
%TD*%
D14*
%TO.C,J3*%
X157590000Y-96340000D03*
D15*
X160130000Y-96340000D03*
X157590000Y-98880000D03*
X160130000Y-98880000D03*
X157590000Y-101420000D03*
X160130000Y-101420000D03*
X157590000Y-103960000D03*
X160130000Y-103960000D03*
X157590000Y-106500000D03*
X160130000Y-106500000D03*
X157590000Y-109040000D03*
X160130000Y-109040000D03*
X157590000Y-111580000D03*
X160130000Y-111580000D03*
X157590000Y-114120000D03*
X160130000Y-114120000D03*
X157590000Y-116660000D03*
X160130000Y-116660000D03*
X157590000Y-119200000D03*
X160130000Y-119200000D03*
X157590000Y-121740000D03*
X160130000Y-121740000D03*
X157590000Y-124280000D03*
X160130000Y-124280000D03*
X157590000Y-126820000D03*
X160130000Y-126820000D03*
X157590000Y-129360000D03*
X160130000Y-129360000D03*
X157590000Y-131900000D03*
X160130000Y-131900000D03*
X157590000Y-134440000D03*
X160130000Y-134440000D03*
X157590000Y-136980000D03*
X160130000Y-136980000D03*
%TD*%
D14*
%TO.C,J4*%
X111870000Y-101420000D03*
D15*
X114410000Y-101420000D03*
X111870000Y-103960000D03*
X114410000Y-103960000D03*
X111870000Y-106500000D03*
X114410000Y-106500000D03*
X111870000Y-109040000D03*
X114410000Y-109040000D03*
X111870000Y-111580000D03*
X114410000Y-111580000D03*
X111870000Y-114120000D03*
X114410000Y-114120000D03*
X111870000Y-116660000D03*
X114410000Y-116660000D03*
X111870000Y-119200000D03*
X114410000Y-119200000D03*
X111870000Y-121740000D03*
X114410000Y-121740000D03*
X111870000Y-124280000D03*
X114410000Y-124280000D03*
X111870000Y-126820000D03*
X114410000Y-126820000D03*
X111870000Y-129360000D03*
X114410000Y-129360000D03*
X111870000Y-131900000D03*
X114410000Y-131900000D03*
X111870000Y-134440000D03*
X114410000Y-134440000D03*
X111870000Y-136980000D03*
X114410000Y-136980000D03*
%TD*%
D16*
%TO.C,R1*%
X151550000Y-155000000D03*
X153450000Y-155000000D03*
%TD*%
D17*
%TO.C,R2*%
X152500000Y-146050000D03*
X152500000Y-147950000D03*
%TD*%
D16*
%TO.C,R3*%
X145950000Y-148000000D03*
X144050000Y-148000000D03*
%TD*%
%TO.C,R4*%
X107550000Y-124500000D03*
X109450000Y-124500000D03*
%TD*%
%TO.C,R5*%
X109450000Y-126500000D03*
X107550000Y-126500000D03*
%TD*%
%TO.C,R7*%
X169450000Y-148500000D03*
X167550000Y-148500000D03*
%TD*%
%TO.C,R8*%
X148250000Y-131500000D03*
X150150000Y-131500000D03*
%TD*%
%TO.C,R9*%
X150150000Y-129400000D03*
X148250000Y-129400000D03*
%TD*%
D17*
%TO.C,R10*%
X169500000Y-158550000D03*
X169500000Y-160450000D03*
%TD*%
%TO.C,R11*%
X156500000Y-158550000D03*
X156500000Y-160450000D03*
%TD*%
D16*
%TO.C,R12*%
X156550000Y-148500000D03*
X158450000Y-148500000D03*
%TD*%
D17*
%TO.C,R14*%
X133500000Y-160950000D03*
X133500000Y-159050000D03*
%TD*%
%TO.C,R16*%
X120500000Y-160950000D03*
X120500000Y-159050000D03*
%TD*%
%TO.C,R13*%
X120500000Y-152950000D03*
X120500000Y-151050000D03*
%TD*%
%TO.C,R23*%
X115500000Y-160950000D03*
X115500000Y-159050000D03*
%TD*%
%TO.C,R24*%
X102500000Y-160450000D03*
X102500000Y-158550000D03*
%TD*%
D16*
%TO.C,R17*%
X131550000Y-88500000D03*
X133450000Y-88500000D03*
%TD*%
%TO.C,R18*%
X138550000Y-88500000D03*
X140450000Y-88500000D03*
%TD*%
%TO.C,R19*%
X130050000Y-109500000D03*
X131950000Y-109500000D03*
%TD*%
D17*
%TO.C,R20*%
X139000000Y-84550000D03*
X139000000Y-86450000D03*
%TD*%
%TO.C,R21*%
X133000000Y-84550000D03*
X133000000Y-86450000D03*
%TD*%
D12*
%TO.C,SW1*%
X133500000Y-106500000D03*
X138500000Y-106500000D03*
D18*
X130400000Y-99500000D03*
X141600000Y-99500000D03*
D12*
X133500000Y-92000000D03*
X136000000Y-92000000D03*
D11*
X138500000Y-92000000D03*
%TD*%
%TO.C,U1*%
G36*
G01*
X132350000Y-123900000D02*
X132350000Y-123650000D01*
G75*
G02*
X132475000Y-123525000I125000J0D01*
G01*
X133800000Y-123525000D01*
G75*
G02*
X133925000Y-123650000I0J-125000D01*
G01*
X133925000Y-123900000D01*
G75*
G02*
X133800000Y-124025000I-125000J0D01*
G01*
X132475000Y-124025000D01*
G75*
G02*
X132350000Y-123900000I0J125000D01*
G01*
G37*
G36*
G01*
X132350000Y-124550000D02*
X132350000Y-124300000D01*
G75*
G02*
X132475000Y-124175000I125000J0D01*
G01*
X133800000Y-124175000D01*
G75*
G02*
X133925000Y-124300000I0J-125000D01*
G01*
X133925000Y-124550000D01*
G75*
G02*
X133800000Y-124675000I-125000J0D01*
G01*
X132475000Y-124675000D01*
G75*
G02*
X132350000Y-124550000I0J125000D01*
G01*
G37*
G36*
G01*
X132350000Y-125200000D02*
X132350000Y-124950000D01*
G75*
G02*
X132475000Y-124825000I125000J0D01*
G01*
X133800000Y-124825000D01*
G75*
G02*
X133925000Y-124950000I0J-125000D01*
G01*
X133925000Y-125200000D01*
G75*
G02*
X133800000Y-125325000I-125000J0D01*
G01*
X132475000Y-125325000D01*
G75*
G02*
X132350000Y-125200000I0J125000D01*
G01*
G37*
G36*
G01*
X132350000Y-125850000D02*
X132350000Y-125600000D01*
G75*
G02*
X132475000Y-125475000I125000J0D01*
G01*
X133800000Y-125475000D01*
G75*
G02*
X133925000Y-125600000I0J-125000D01*
G01*
X133925000Y-125850000D01*
G75*
G02*
X133800000Y-125975000I-125000J0D01*
G01*
X132475000Y-125975000D01*
G75*
G02*
X132350000Y-125850000I0J125000D01*
G01*
G37*
G36*
G01*
X132350000Y-126500000D02*
X132350000Y-126250000D01*
G75*
G02*
X132475000Y-126125000I125000J0D01*
G01*
X133800000Y-126125000D01*
G75*
G02*
X133925000Y-126250000I0J-125000D01*
G01*
X133925000Y-126500000D01*
G75*
G02*
X133800000Y-126625000I-125000J0D01*
G01*
X132475000Y-126625000D01*
G75*
G02*
X132350000Y-126500000I0J125000D01*
G01*
G37*
G36*
G01*
X132350000Y-127150000D02*
X132350000Y-126900000D01*
G75*
G02*
X132475000Y-126775000I125000J0D01*
G01*
X133800000Y-126775000D01*
G75*
G02*
X133925000Y-126900000I0J-125000D01*
G01*
X133925000Y-127150000D01*
G75*
G02*
X133800000Y-127275000I-125000J0D01*
G01*
X132475000Y-127275000D01*
G75*
G02*
X132350000Y-127150000I0J125000D01*
G01*
G37*
G36*
G01*
X132350000Y-127800000D02*
X132350000Y-127550000D01*
G75*
G02*
X132475000Y-127425000I125000J0D01*
G01*
X133800000Y-127425000D01*
G75*
G02*
X133925000Y-127550000I0J-125000D01*
G01*
X133925000Y-127800000D01*
G75*
G02*
X133800000Y-127925000I-125000J0D01*
G01*
X132475000Y-127925000D01*
G75*
G02*
X132350000Y-127800000I0J125000D01*
G01*
G37*
G36*
G01*
X132350000Y-128450000D02*
X132350000Y-128200000D01*
G75*
G02*
X132475000Y-128075000I125000J0D01*
G01*
X133800000Y-128075000D01*
G75*
G02*
X133925000Y-128200000I0J-125000D01*
G01*
X133925000Y-128450000D01*
G75*
G02*
X133800000Y-128575000I-125000J0D01*
G01*
X132475000Y-128575000D01*
G75*
G02*
X132350000Y-128450000I0J125000D01*
G01*
G37*
G36*
G01*
X132350000Y-129100000D02*
X132350000Y-128850000D01*
G75*
G02*
X132475000Y-128725000I125000J0D01*
G01*
X133800000Y-128725000D01*
G75*
G02*
X133925000Y-128850000I0J-125000D01*
G01*
X133925000Y-129100000D01*
G75*
G02*
X133800000Y-129225000I-125000J0D01*
G01*
X132475000Y-129225000D01*
G75*
G02*
X132350000Y-129100000I0J125000D01*
G01*
G37*
G36*
G01*
X132350000Y-129750000D02*
X132350000Y-129500000D01*
G75*
G02*
X132475000Y-129375000I125000J0D01*
G01*
X133800000Y-129375000D01*
G75*
G02*
X133925000Y-129500000I0J-125000D01*
G01*
X133925000Y-129750000D01*
G75*
G02*
X133800000Y-129875000I-125000J0D01*
G01*
X132475000Y-129875000D01*
G75*
G02*
X132350000Y-129750000I0J125000D01*
G01*
G37*
G36*
G01*
X132350000Y-130400000D02*
X132350000Y-130150000D01*
G75*
G02*
X132475000Y-130025000I125000J0D01*
G01*
X133800000Y-130025000D01*
G75*
G02*
X133925000Y-130150000I0J-125000D01*
G01*
X133925000Y-130400000D01*
G75*
G02*
X133800000Y-130525000I-125000J0D01*
G01*
X132475000Y-130525000D01*
G75*
G02*
X132350000Y-130400000I0J125000D01*
G01*
G37*
G36*
G01*
X132350000Y-131050000D02*
X132350000Y-130800000D01*
G75*
G02*
X132475000Y-130675000I125000J0D01*
G01*
X133800000Y-130675000D01*
G75*
G02*
X133925000Y-130800000I0J-125000D01*
G01*
X133925000Y-131050000D01*
G75*
G02*
X133800000Y-131175000I-125000J0D01*
G01*
X132475000Y-131175000D01*
G75*
G02*
X132350000Y-131050000I0J125000D01*
G01*
G37*
G36*
G01*
X132350000Y-131700000D02*
X132350000Y-131450000D01*
G75*
G02*
X132475000Y-131325000I125000J0D01*
G01*
X133800000Y-131325000D01*
G75*
G02*
X133925000Y-131450000I0J-125000D01*
G01*
X133925000Y-131700000D01*
G75*
G02*
X133800000Y-131825000I-125000J0D01*
G01*
X132475000Y-131825000D01*
G75*
G02*
X132350000Y-131700000I0J125000D01*
G01*
G37*
G36*
G01*
X132350000Y-132350000D02*
X132350000Y-132100000D01*
G75*
G02*
X132475000Y-131975000I125000J0D01*
G01*
X133800000Y-131975000D01*
G75*
G02*
X133925000Y-132100000I0J-125000D01*
G01*
X133925000Y-132350000D01*
G75*
G02*
X133800000Y-132475000I-125000J0D01*
G01*
X132475000Y-132475000D01*
G75*
G02*
X132350000Y-132350000I0J125000D01*
G01*
G37*
G36*
G01*
X138075000Y-132350000D02*
X138075000Y-132100000D01*
G75*
G02*
X138200000Y-131975000I125000J0D01*
G01*
X139525000Y-131975000D01*
G75*
G02*
X139650000Y-132100000I0J-125000D01*
G01*
X139650000Y-132350000D01*
G75*
G02*
X139525000Y-132475000I-125000J0D01*
G01*
X138200000Y-132475000D01*
G75*
G02*
X138075000Y-132350000I0J125000D01*
G01*
G37*
G36*
G01*
X138075000Y-131700000D02*
X138075000Y-131450000D01*
G75*
G02*
X138200000Y-131325000I125000J0D01*
G01*
X139525000Y-131325000D01*
G75*
G02*
X139650000Y-131450000I0J-125000D01*
G01*
X139650000Y-131700000D01*
G75*
G02*
X139525000Y-131825000I-125000J0D01*
G01*
X138200000Y-131825000D01*
G75*
G02*
X138075000Y-131700000I0J125000D01*
G01*
G37*
G36*
G01*
X138075000Y-131050000D02*
X138075000Y-130800000D01*
G75*
G02*
X138200000Y-130675000I125000J0D01*
G01*
X139525000Y-130675000D01*
G75*
G02*
X139650000Y-130800000I0J-125000D01*
G01*
X139650000Y-131050000D01*
G75*
G02*
X139525000Y-131175000I-125000J0D01*
G01*
X138200000Y-131175000D01*
G75*
G02*
X138075000Y-131050000I0J125000D01*
G01*
G37*
G36*
G01*
X138075000Y-130400000D02*
X138075000Y-130150000D01*
G75*
G02*
X138200000Y-130025000I125000J0D01*
G01*
X139525000Y-130025000D01*
G75*
G02*
X139650000Y-130150000I0J-125000D01*
G01*
X139650000Y-130400000D01*
G75*
G02*
X139525000Y-130525000I-125000J0D01*
G01*
X138200000Y-130525000D01*
G75*
G02*
X138075000Y-130400000I0J125000D01*
G01*
G37*
G36*
G01*
X138075000Y-129750000D02*
X138075000Y-129500000D01*
G75*
G02*
X138200000Y-129375000I125000J0D01*
G01*
X139525000Y-129375000D01*
G75*
G02*
X139650000Y-129500000I0J-125000D01*
G01*
X139650000Y-129750000D01*
G75*
G02*
X139525000Y-129875000I-125000J0D01*
G01*
X138200000Y-129875000D01*
G75*
G02*
X138075000Y-129750000I0J125000D01*
G01*
G37*
G36*
G01*
X138075000Y-129100000D02*
X138075000Y-128850000D01*
G75*
G02*
X138200000Y-128725000I125000J0D01*
G01*
X139525000Y-128725000D01*
G75*
G02*
X139650000Y-128850000I0J-125000D01*
G01*
X139650000Y-129100000D01*
G75*
G02*
X139525000Y-129225000I-125000J0D01*
G01*
X138200000Y-129225000D01*
G75*
G02*
X138075000Y-129100000I0J125000D01*
G01*
G37*
G36*
G01*
X138075000Y-128450000D02*
X138075000Y-128200000D01*
G75*
G02*
X138200000Y-128075000I125000J0D01*
G01*
X139525000Y-128075000D01*
G75*
G02*
X139650000Y-128200000I0J-125000D01*
G01*
X139650000Y-128450000D01*
G75*
G02*
X139525000Y-128575000I-125000J0D01*
G01*
X138200000Y-128575000D01*
G75*
G02*
X138075000Y-128450000I0J125000D01*
G01*
G37*
G36*
G01*
X138075000Y-127800000D02*
X138075000Y-127550000D01*
G75*
G02*
X138200000Y-127425000I125000J0D01*
G01*
X139525000Y-127425000D01*
G75*
G02*
X139650000Y-127550000I0J-125000D01*
G01*
X139650000Y-127800000D01*
G75*
G02*
X139525000Y-127925000I-125000J0D01*
G01*
X138200000Y-127925000D01*
G75*
G02*
X138075000Y-127800000I0J125000D01*
G01*
G37*
G36*
G01*
X138075000Y-127150000D02*
X138075000Y-126900000D01*
G75*
G02*
X138200000Y-126775000I125000J0D01*
G01*
X139525000Y-126775000D01*
G75*
G02*
X139650000Y-126900000I0J-125000D01*
G01*
X139650000Y-127150000D01*
G75*
G02*
X139525000Y-127275000I-125000J0D01*
G01*
X138200000Y-127275000D01*
G75*
G02*
X138075000Y-127150000I0J125000D01*
G01*
G37*
G36*
G01*
X138075000Y-126500000D02*
X138075000Y-126250000D01*
G75*
G02*
X138200000Y-126125000I125000J0D01*
G01*
X139525000Y-126125000D01*
G75*
G02*
X139650000Y-126250000I0J-125000D01*
G01*
X139650000Y-126500000D01*
G75*
G02*
X139525000Y-126625000I-125000J0D01*
G01*
X138200000Y-126625000D01*
G75*
G02*
X138075000Y-126500000I0J125000D01*
G01*
G37*
G36*
G01*
X138075000Y-125850000D02*
X138075000Y-125600000D01*
G75*
G02*
X138200000Y-125475000I125000J0D01*
G01*
X139525000Y-125475000D01*
G75*
G02*
X139650000Y-125600000I0J-125000D01*
G01*
X139650000Y-125850000D01*
G75*
G02*
X139525000Y-125975000I-125000J0D01*
G01*
X138200000Y-125975000D01*
G75*
G02*
X138075000Y-125850000I0J125000D01*
G01*
G37*
G36*
G01*
X138075000Y-125200000D02*
X138075000Y-124950000D01*
G75*
G02*
X138200000Y-124825000I125000J0D01*
G01*
X139525000Y-124825000D01*
G75*
G02*
X139650000Y-124950000I0J-125000D01*
G01*
X139650000Y-125200000D01*
G75*
G02*
X139525000Y-125325000I-125000J0D01*
G01*
X138200000Y-125325000D01*
G75*
G02*
X138075000Y-125200000I0J125000D01*
G01*
G37*
G36*
G01*
X138075000Y-124550000D02*
X138075000Y-124300000D01*
G75*
G02*
X138200000Y-124175000I125000J0D01*
G01*
X139525000Y-124175000D01*
G75*
G02*
X139650000Y-124300000I0J-125000D01*
G01*
X139650000Y-124550000D01*
G75*
G02*
X139525000Y-124675000I-125000J0D01*
G01*
X138200000Y-124675000D01*
G75*
G02*
X138075000Y-124550000I0J125000D01*
G01*
G37*
G36*
G01*
X138075000Y-123900000D02*
X138075000Y-123650000D01*
G75*
G02*
X138200000Y-123525000I125000J0D01*
G01*
X139525000Y-123525000D01*
G75*
G02*
X139650000Y-123650000I0J-125000D01*
G01*
X139650000Y-123900000D01*
G75*
G02*
X139525000Y-124025000I-125000J0D01*
G01*
X138200000Y-124025000D01*
G75*
G02*
X138075000Y-123900000I0J125000D01*
G01*
G37*
%TD*%
D16*
%TO.C,R6*%
X162050000Y-147500000D03*
X163950000Y-147500000D03*
%TD*%
%TO.C,R22*%
X109950000Y-148000000D03*
X108050000Y-148000000D03*
%TD*%
D19*
%TO.C,X1*%
X145000000Y-156500000D03*
X145000000Y-163500000D03*
D20*
X148700000Y-155200000D03*
D21*
X144250000Y-151200000D03*
D22*
X148700000Y-164600000D03*
X141300000Y-162600000D03*
%TD*%
%TO.C,X2*%
X159300000Y-162600000D03*
X166700000Y-164600000D03*
D21*
X162250000Y-151200000D03*
D20*
X166700000Y-155200000D03*
D19*
X163000000Y-163500000D03*
X163000000Y-156500000D03*
%TD*%
D22*
%TO.C,X4*%
X105300000Y-162600000D03*
X112700000Y-164600000D03*
D21*
X108250000Y-151200000D03*
D20*
X112700000Y-155200000D03*
D19*
X109000000Y-163500000D03*
X109000000Y-156500000D03*
%TD*%
%TO.C,X3*%
X127000000Y-156500000D03*
X127000000Y-163500000D03*
D20*
X130700000Y-155200000D03*
D21*
X126250000Y-151200000D03*
D22*
X130700000Y-164600000D03*
X123300000Y-162600000D03*
%TD*%
D15*
%TO.C,J5*%
X147430000Y-139520000D03*
D14*
X149970000Y-139520000D03*
%TD*%
D15*
%TO.C,J6*%
X149970000Y-136980000D03*
D14*
X152510000Y-136980000D03*
%TD*%
%TO.C,J7*%
X152510000Y-134440000D03*
%TD*%
%TO.C,J8*%
X137270000Y-139520000D03*
D15*
X137270000Y-136980000D03*
%TD*%
D14*
%TO.C,J9*%
X139810000Y-139520000D03*
%TD*%
%TO.C,J10*%
X119490000Y-136980000D03*
D15*
X119490000Y-134440000D03*
%TD*%
D14*
%TO.C,J11*%
X119490000Y-131900000D03*
%TD*%
%TO.C,U2*%
X131920000Y-61500000D03*
D15*
X134460000Y-61500000D03*
X137000000Y-61500000D03*
X139540000Y-61500000D03*
%TD*%
D17*
%TO.C,R15*%
X155000000Y-134350000D03*
X155000000Y-132450000D03*
%TD*%
M02*
