%TF.GenerationSoftware,KiCad,Pcbnew,(5.1.6)-1*%
%TF.CreationDate,2021-01-03T17:25:39+01:00*%
%TF.ProjectId,Nucleo144_DSP,4e75636c-656f-4313-9434-5f4453502e6b,rev?*%
%TF.SameCoordinates,Original*%
%TF.FileFunction,Other,Fab,Bot*%
%FSLAX46Y46*%
G04 Gerber Fmt 4.6, Leading zero omitted, Abs format (unit mm)*
G04 Created by KiCad (PCBNEW (5.1.6)-1) date 2021-01-03 17:25:39*
%MOMM*%
%LPD*%
G01*
G04 APERTURE LIST*
%ADD10C,0.100000*%
%ADD11C,0.150000*%
G04 APERTURE END LIST*
D10*
%TO.C,J1*%
X115680000Y-77290000D02*
X111600000Y-77290000D01*
X111600000Y-77290000D02*
X110600000Y-78290000D01*
X110600000Y-78290000D02*
X110600000Y-97610000D01*
X110600000Y-97610000D02*
X115680000Y-97610000D01*
X115680000Y-97610000D02*
X115680000Y-77290000D01*
%TO.C,J2*%
X161400000Y-68400000D02*
X157320000Y-68400000D01*
X157320000Y-68400000D02*
X156320000Y-69400000D01*
X156320000Y-69400000D02*
X156320000Y-93800000D01*
X156320000Y-93800000D02*
X161400000Y-93800000D01*
X161400000Y-93800000D02*
X161400000Y-68400000D01*
%TO.C,J3*%
X161400000Y-95070000D02*
X157320000Y-95070000D01*
X157320000Y-95070000D02*
X156320000Y-96070000D01*
X156320000Y-96070000D02*
X156320000Y-138250000D01*
X156320000Y-138250000D02*
X161400000Y-138250000D01*
X161400000Y-138250000D02*
X161400000Y-95070000D01*
%TO.C,J4*%
X115680000Y-100150000D02*
X111600000Y-100150000D01*
X111600000Y-100150000D02*
X110600000Y-101150000D01*
X110600000Y-101150000D02*
X110600000Y-138250000D01*
X110600000Y-138250000D02*
X115680000Y-138250000D01*
X115680000Y-138250000D02*
X115680000Y-100150000D01*
%TO.C,J5*%
X151240000Y-140790000D02*
X151240000Y-138885000D01*
X151240000Y-138885000D02*
X150605000Y-138250000D01*
X150605000Y-138250000D02*
X146160000Y-138250000D01*
X146160000Y-138250000D02*
X146160000Y-140790000D01*
X146160000Y-140790000D02*
X151240000Y-140790000D01*
%TO.C,J6*%
X153780000Y-138250000D02*
X153780000Y-136345000D01*
X153780000Y-136345000D02*
X153145000Y-135710000D01*
X153145000Y-135710000D02*
X148700000Y-135710000D01*
X148700000Y-135710000D02*
X148700000Y-138250000D01*
X148700000Y-138250000D02*
X153780000Y-138250000D01*
%TO.C,J7*%
X151240000Y-135710000D02*
X153780000Y-135710000D01*
X151240000Y-133170000D02*
X151240000Y-135710000D01*
X153145000Y-133170000D02*
X151240000Y-133170000D01*
X153780000Y-133805000D02*
X153145000Y-133170000D01*
X153780000Y-135710000D02*
X153780000Y-133805000D01*
%TO.C,J8*%
X136000000Y-135710000D02*
X136000000Y-140790000D01*
X138540000Y-135710000D02*
X136000000Y-135710000D01*
X138540000Y-140155000D02*
X138540000Y-135710000D01*
X137905000Y-140790000D02*
X138540000Y-140155000D01*
X136000000Y-140790000D02*
X137905000Y-140790000D01*
%TO.C,J9*%
X138540000Y-140790000D02*
X140445000Y-140790000D01*
X140445000Y-140790000D02*
X141080000Y-140155000D01*
X141080000Y-140155000D02*
X141080000Y-138250000D01*
X141080000Y-138250000D02*
X138540000Y-138250000D01*
X138540000Y-138250000D02*
X138540000Y-140790000D01*
%TO.C,J10*%
X118220000Y-133170000D02*
X118220000Y-138250000D01*
X120760000Y-133170000D02*
X118220000Y-133170000D01*
X120760000Y-137615000D02*
X120760000Y-133170000D01*
X120125000Y-138250000D02*
X120760000Y-137615000D01*
X118220000Y-138250000D02*
X120125000Y-138250000D01*
%TO.C,J11*%
X120760000Y-133170000D02*
X120760000Y-130630000D01*
X118220000Y-133170000D02*
X120760000Y-133170000D01*
X118220000Y-131265000D02*
X118220000Y-133170000D01*
X118855000Y-130630000D02*
X118220000Y-131265000D01*
X120760000Y-130630000D02*
X118855000Y-130630000D01*
%TD*%
%TO.C,J1*%
D11*
X113830476Y-99467142D02*
X113878095Y-99514761D01*
X114020952Y-99562380D01*
X114116190Y-99562380D01*
X114259047Y-99514761D01*
X114354285Y-99419523D01*
X114401904Y-99324285D01*
X114449523Y-99133809D01*
X114449523Y-98990952D01*
X114401904Y-98800476D01*
X114354285Y-98705238D01*
X114259047Y-98610000D01*
X114116190Y-98562380D01*
X114020952Y-98562380D01*
X113878095Y-98610000D01*
X113830476Y-98657619D01*
X113401904Y-99562380D02*
X113401904Y-98562380D01*
X112830476Y-99562380D01*
X112830476Y-98562380D01*
X112211428Y-98990952D02*
X112306666Y-98943333D01*
X112354285Y-98895714D01*
X112401904Y-98800476D01*
X112401904Y-98752857D01*
X112354285Y-98657619D01*
X112306666Y-98610000D01*
X112211428Y-98562380D01*
X112020952Y-98562380D01*
X111925714Y-98610000D01*
X111878095Y-98657619D01*
X111830476Y-98752857D01*
X111830476Y-98800476D01*
X111878095Y-98895714D01*
X111925714Y-98943333D01*
X112020952Y-98990952D01*
X112211428Y-98990952D01*
X112306666Y-99038571D01*
X112354285Y-99086190D01*
X112401904Y-99181428D01*
X112401904Y-99371904D01*
X112354285Y-99467142D01*
X112306666Y-99514761D01*
X112211428Y-99562380D01*
X112020952Y-99562380D01*
X111925714Y-99514761D01*
X111878095Y-99467142D01*
X111830476Y-99371904D01*
X111830476Y-99181428D01*
X111878095Y-99086190D01*
X111925714Y-99038571D01*
X112020952Y-98990952D01*
X112592380Y-87116666D02*
X113306666Y-87116666D01*
X113449523Y-87069047D01*
X113544761Y-86973809D01*
X113592380Y-86830952D01*
X113592380Y-86735714D01*
X113592380Y-88116666D02*
X113592380Y-87545238D01*
X113592380Y-87830952D02*
X112592380Y-87830952D01*
X112735238Y-87735714D01*
X112830476Y-87640476D01*
X112878095Y-87545238D01*
%TO.C,J2*%
X159550476Y-95657142D02*
X159598095Y-95704761D01*
X159740952Y-95752380D01*
X159836190Y-95752380D01*
X159979047Y-95704761D01*
X160074285Y-95609523D01*
X160121904Y-95514285D01*
X160169523Y-95323809D01*
X160169523Y-95180952D01*
X160121904Y-94990476D01*
X160074285Y-94895238D01*
X159979047Y-94800000D01*
X159836190Y-94752380D01*
X159740952Y-94752380D01*
X159598095Y-94800000D01*
X159550476Y-94847619D01*
X159121904Y-95752380D02*
X159121904Y-94752380D01*
X158550476Y-95752380D01*
X158550476Y-94752380D01*
X158169523Y-94752380D02*
X157502857Y-94752380D01*
X157931428Y-95752380D01*
X158312380Y-80766666D02*
X159026666Y-80766666D01*
X159169523Y-80719047D01*
X159264761Y-80623809D01*
X159312380Y-80480952D01*
X159312380Y-80385714D01*
X158407619Y-81195238D02*
X158360000Y-81242857D01*
X158312380Y-81338095D01*
X158312380Y-81576190D01*
X158360000Y-81671428D01*
X158407619Y-81719047D01*
X158502857Y-81766666D01*
X158598095Y-81766666D01*
X158740952Y-81719047D01*
X159312380Y-81147619D01*
X159312380Y-81766666D01*
%TO.C,J3*%
X160026666Y-140107142D02*
X160074285Y-140154761D01*
X160217142Y-140202380D01*
X160312380Y-140202380D01*
X160455238Y-140154761D01*
X160550476Y-140059523D01*
X160598095Y-139964285D01*
X160645714Y-139773809D01*
X160645714Y-139630952D01*
X160598095Y-139440476D01*
X160550476Y-139345238D01*
X160455238Y-139250000D01*
X160312380Y-139202380D01*
X160217142Y-139202380D01*
X160074285Y-139250000D01*
X160026666Y-139297619D01*
X159598095Y-140202380D02*
X159598095Y-139202380D01*
X159026666Y-140202380D01*
X159026666Y-139202380D01*
X158026666Y-140202380D02*
X158598095Y-140202380D01*
X158312380Y-140202380D02*
X158312380Y-139202380D01*
X158407619Y-139345238D01*
X158502857Y-139440476D01*
X158598095Y-139488095D01*
X157407619Y-139202380D02*
X157312380Y-139202380D01*
X157217142Y-139250000D01*
X157169523Y-139297619D01*
X157121904Y-139392857D01*
X157074285Y-139583333D01*
X157074285Y-139821428D01*
X157121904Y-140011904D01*
X157169523Y-140107142D01*
X157217142Y-140154761D01*
X157312380Y-140202380D01*
X157407619Y-140202380D01*
X157502857Y-140154761D01*
X157550476Y-140107142D01*
X157598095Y-140011904D01*
X157645714Y-139821428D01*
X157645714Y-139583333D01*
X157598095Y-139392857D01*
X157550476Y-139297619D01*
X157502857Y-139250000D01*
X157407619Y-139202380D01*
X158312380Y-116326666D02*
X159026666Y-116326666D01*
X159169523Y-116279047D01*
X159264761Y-116183809D01*
X159312380Y-116040952D01*
X159312380Y-115945714D01*
X158312380Y-116707619D02*
X158312380Y-117326666D01*
X158693333Y-116993333D01*
X158693333Y-117136190D01*
X158740952Y-117231428D01*
X158788571Y-117279047D01*
X158883809Y-117326666D01*
X159121904Y-117326666D01*
X159217142Y-117279047D01*
X159264761Y-117231428D01*
X159312380Y-117136190D01*
X159312380Y-116850476D01*
X159264761Y-116755238D01*
X159217142Y-116707619D01*
%TO.C,J4*%
X113830476Y-140107142D02*
X113878095Y-140154761D01*
X114020952Y-140202380D01*
X114116190Y-140202380D01*
X114259047Y-140154761D01*
X114354285Y-140059523D01*
X114401904Y-139964285D01*
X114449523Y-139773809D01*
X114449523Y-139630952D01*
X114401904Y-139440476D01*
X114354285Y-139345238D01*
X114259047Y-139250000D01*
X114116190Y-139202380D01*
X114020952Y-139202380D01*
X113878095Y-139250000D01*
X113830476Y-139297619D01*
X113401904Y-140202380D02*
X113401904Y-139202380D01*
X112830476Y-140202380D01*
X112830476Y-139202380D01*
X112306666Y-140202380D02*
X112116190Y-140202380D01*
X112020952Y-140154761D01*
X111973333Y-140107142D01*
X111878095Y-139964285D01*
X111830476Y-139773809D01*
X111830476Y-139392857D01*
X111878095Y-139297619D01*
X111925714Y-139250000D01*
X112020952Y-139202380D01*
X112211428Y-139202380D01*
X112306666Y-139250000D01*
X112354285Y-139297619D01*
X112401904Y-139392857D01*
X112401904Y-139630952D01*
X112354285Y-139726190D01*
X112306666Y-139773809D01*
X112211428Y-139821428D01*
X112020952Y-139821428D01*
X111925714Y-139773809D01*
X111878095Y-139726190D01*
X111830476Y-139630952D01*
X112592380Y-118866666D02*
X113306666Y-118866666D01*
X113449523Y-118819047D01*
X113544761Y-118723809D01*
X113592380Y-118580952D01*
X113592380Y-118485714D01*
X112925714Y-119771428D02*
X113592380Y-119771428D01*
X112544761Y-119533333D02*
X113259047Y-119295238D01*
X113259047Y-119914285D01*
%TO.C,J5*%
X144588571Y-135924761D02*
X144588571Y-136258095D01*
X145112380Y-136400952D02*
X145112380Y-135924761D01*
X144112380Y-135924761D01*
X144112380Y-136400952D01*
X145112380Y-136734285D02*
X144445714Y-137258095D01*
X144445714Y-136734285D02*
X145112380Y-137258095D01*
X144445714Y-137496190D02*
X144445714Y-137877142D01*
X144112380Y-137639047D02*
X144969523Y-137639047D01*
X145064761Y-137686666D01*
X145112380Y-137781904D01*
X145112380Y-137877142D01*
X145207619Y-137972380D02*
X145207619Y-138734285D01*
X144112380Y-139162857D02*
X144112380Y-139258095D01*
X144160000Y-139353333D01*
X144207619Y-139400952D01*
X144302857Y-139448571D01*
X144493333Y-139496190D01*
X144731428Y-139496190D01*
X144921904Y-139448571D01*
X145017142Y-139400952D01*
X145064761Y-139353333D01*
X145112380Y-139258095D01*
X145112380Y-139162857D01*
X145064761Y-139067619D01*
X145017142Y-139020000D01*
X144921904Y-138972380D01*
X144731428Y-138924761D01*
X144493333Y-138924761D01*
X144302857Y-138972380D01*
X144207619Y-139020000D01*
X144160000Y-139067619D01*
X144112380Y-139162857D01*
X145112380Y-140448571D02*
X145112380Y-139877142D01*
X145112380Y-140162857D02*
X144112380Y-140162857D01*
X144255238Y-140067619D01*
X144350476Y-139972380D01*
X144398095Y-139877142D01*
X145112380Y-140781904D02*
X144445714Y-141305714D01*
X144445714Y-140781904D02*
X145112380Y-141305714D01*
X144112380Y-141877142D02*
X144112380Y-141972380D01*
X144160000Y-142067619D01*
X144207619Y-142115238D01*
X144302857Y-142162857D01*
X144493333Y-142210476D01*
X144731428Y-142210476D01*
X144921904Y-142162857D01*
X145017142Y-142115238D01*
X145064761Y-142067619D01*
X145112380Y-141972380D01*
X145112380Y-141877142D01*
X145064761Y-141781904D01*
X145017142Y-141734285D01*
X144921904Y-141686666D01*
X144731428Y-141639047D01*
X144493333Y-141639047D01*
X144302857Y-141686666D01*
X144207619Y-141734285D01*
X144160000Y-141781904D01*
X144112380Y-141877142D01*
X144207619Y-142591428D02*
X144160000Y-142639047D01*
X144112380Y-142734285D01*
X144112380Y-142972380D01*
X144160000Y-143067619D01*
X144207619Y-143115238D01*
X144302857Y-143162857D01*
X144398095Y-143162857D01*
X144540952Y-143115238D01*
X145112380Y-142543809D01*
X145112380Y-143162857D01*
X149033333Y-138972380D02*
X149033333Y-139686666D01*
X149080952Y-139829523D01*
X149176190Y-139924761D01*
X149319047Y-139972380D01*
X149414285Y-139972380D01*
X148080952Y-138972380D02*
X148557142Y-138972380D01*
X148604761Y-139448571D01*
X148557142Y-139400952D01*
X148461904Y-139353333D01*
X148223809Y-139353333D01*
X148128571Y-139400952D01*
X148080952Y-139448571D01*
X148033333Y-139543809D01*
X148033333Y-139781904D01*
X148080952Y-139877142D01*
X148128571Y-139924761D01*
X148223809Y-139972380D01*
X148461904Y-139972380D01*
X148557142Y-139924761D01*
X148604761Y-139877142D01*
%TO.C,J6*%
X147128571Y-133384761D02*
X147128571Y-133718095D01*
X147652380Y-133860952D02*
X147652380Y-133384761D01*
X146652380Y-133384761D01*
X146652380Y-133860952D01*
X147652380Y-134194285D02*
X146985714Y-134718095D01*
X146985714Y-134194285D02*
X147652380Y-134718095D01*
X146985714Y-134956190D02*
X146985714Y-135337142D01*
X146652380Y-135099047D02*
X147509523Y-135099047D01*
X147604761Y-135146666D01*
X147652380Y-135241904D01*
X147652380Y-135337142D01*
X147747619Y-135432380D02*
X147747619Y-136194285D01*
X146652380Y-136622857D02*
X146652380Y-136718095D01*
X146700000Y-136813333D01*
X146747619Y-136860952D01*
X146842857Y-136908571D01*
X147033333Y-136956190D01*
X147271428Y-136956190D01*
X147461904Y-136908571D01*
X147557142Y-136860952D01*
X147604761Y-136813333D01*
X147652380Y-136718095D01*
X147652380Y-136622857D01*
X147604761Y-136527619D01*
X147557142Y-136480000D01*
X147461904Y-136432380D01*
X147271428Y-136384761D01*
X147033333Y-136384761D01*
X146842857Y-136432380D01*
X146747619Y-136480000D01*
X146700000Y-136527619D01*
X146652380Y-136622857D01*
X147652380Y-137908571D02*
X147652380Y-137337142D01*
X147652380Y-137622857D02*
X146652380Y-137622857D01*
X146795238Y-137527619D01*
X146890476Y-137432380D01*
X146938095Y-137337142D01*
X147652380Y-138241904D02*
X146985714Y-138765714D01*
X146985714Y-138241904D02*
X147652380Y-138765714D01*
X146652380Y-139337142D02*
X146652380Y-139432380D01*
X146700000Y-139527619D01*
X146747619Y-139575238D01*
X146842857Y-139622857D01*
X147033333Y-139670476D01*
X147271428Y-139670476D01*
X147461904Y-139622857D01*
X147557142Y-139575238D01*
X147604761Y-139527619D01*
X147652380Y-139432380D01*
X147652380Y-139337142D01*
X147604761Y-139241904D01*
X147557142Y-139194285D01*
X147461904Y-139146666D01*
X147271428Y-139099047D01*
X147033333Y-139099047D01*
X146842857Y-139146666D01*
X146747619Y-139194285D01*
X146700000Y-139241904D01*
X146652380Y-139337142D01*
X146747619Y-140051428D02*
X146700000Y-140099047D01*
X146652380Y-140194285D01*
X146652380Y-140432380D01*
X146700000Y-140527619D01*
X146747619Y-140575238D01*
X146842857Y-140622857D01*
X146938095Y-140622857D01*
X147080952Y-140575238D01*
X147652380Y-140003809D01*
X147652380Y-140622857D01*
X151573333Y-136432380D02*
X151573333Y-137146666D01*
X151620952Y-137289523D01*
X151716190Y-137384761D01*
X151859047Y-137432380D01*
X151954285Y-137432380D01*
X150668571Y-136432380D02*
X150859047Y-136432380D01*
X150954285Y-136480000D01*
X151001904Y-136527619D01*
X151097142Y-136670476D01*
X151144761Y-136860952D01*
X151144761Y-137241904D01*
X151097142Y-137337142D01*
X151049523Y-137384761D01*
X150954285Y-137432380D01*
X150763809Y-137432380D01*
X150668571Y-137384761D01*
X150620952Y-137337142D01*
X150573333Y-137241904D01*
X150573333Y-137003809D01*
X150620952Y-136908571D01*
X150668571Y-136860952D01*
X150763809Y-136813333D01*
X150954285Y-136813333D01*
X151049523Y-136860952D01*
X151097142Y-136908571D01*
X151144761Y-137003809D01*
%TO.C,J7*%
X150097142Y-130701904D02*
X150144761Y-130654285D01*
X150192380Y-130511428D01*
X150192380Y-130416190D01*
X150144761Y-130273333D01*
X150049523Y-130178095D01*
X149954285Y-130130476D01*
X149763809Y-130082857D01*
X149620952Y-130082857D01*
X149430476Y-130130476D01*
X149335238Y-130178095D01*
X149240000Y-130273333D01*
X149192380Y-130416190D01*
X149192380Y-130511428D01*
X149240000Y-130654285D01*
X149287619Y-130701904D01*
X150192380Y-131273333D02*
X150144761Y-131178095D01*
X150097142Y-131130476D01*
X150001904Y-131082857D01*
X149716190Y-131082857D01*
X149620952Y-131130476D01*
X149573333Y-131178095D01*
X149525714Y-131273333D01*
X149525714Y-131416190D01*
X149573333Y-131511428D01*
X149620952Y-131559047D01*
X149716190Y-131606666D01*
X150001904Y-131606666D01*
X150097142Y-131559047D01*
X150144761Y-131511428D01*
X150192380Y-131416190D01*
X150192380Y-131273333D01*
X149525714Y-132035238D02*
X150192380Y-132035238D01*
X149620952Y-132035238D02*
X149573333Y-132082857D01*
X149525714Y-132178095D01*
X149525714Y-132320952D01*
X149573333Y-132416190D01*
X149668571Y-132463809D01*
X150192380Y-132463809D01*
X149525714Y-132940000D02*
X150192380Y-132940000D01*
X149620952Y-132940000D02*
X149573333Y-132987619D01*
X149525714Y-133082857D01*
X149525714Y-133225714D01*
X149573333Y-133320952D01*
X149668571Y-133368571D01*
X150192380Y-133368571D01*
X150287619Y-133606666D02*
X150287619Y-134368571D01*
X149192380Y-134797142D02*
X149192380Y-134892380D01*
X149240000Y-134987619D01*
X149287619Y-135035238D01*
X149382857Y-135082857D01*
X149573333Y-135130476D01*
X149811428Y-135130476D01*
X150001904Y-135082857D01*
X150097142Y-135035238D01*
X150144761Y-134987619D01*
X150192380Y-134892380D01*
X150192380Y-134797142D01*
X150144761Y-134701904D01*
X150097142Y-134654285D01*
X150001904Y-134606666D01*
X149811428Y-134559047D01*
X149573333Y-134559047D01*
X149382857Y-134606666D01*
X149287619Y-134654285D01*
X149240000Y-134701904D01*
X149192380Y-134797142D01*
X150192380Y-136082857D02*
X150192380Y-135511428D01*
X150192380Y-135797142D02*
X149192380Y-135797142D01*
X149335238Y-135701904D01*
X149430476Y-135606666D01*
X149478095Y-135511428D01*
X150192380Y-136416190D02*
X149525714Y-136940000D01*
X149525714Y-136416190D02*
X150192380Y-136940000D01*
X149192380Y-137511428D02*
X149192380Y-137606666D01*
X149240000Y-137701904D01*
X149287619Y-137749523D01*
X149382857Y-137797142D01*
X149573333Y-137844761D01*
X149811428Y-137844761D01*
X150001904Y-137797142D01*
X150097142Y-137749523D01*
X150144761Y-137701904D01*
X150192380Y-137606666D01*
X150192380Y-137511428D01*
X150144761Y-137416190D01*
X150097142Y-137368571D01*
X150001904Y-137320952D01*
X149811428Y-137273333D01*
X149573333Y-137273333D01*
X149382857Y-137320952D01*
X149287619Y-137368571D01*
X149240000Y-137416190D01*
X149192380Y-137511428D01*
X150192380Y-138797142D02*
X150192380Y-138225714D01*
X150192380Y-138511428D02*
X149192380Y-138511428D01*
X149335238Y-138416190D01*
X149430476Y-138320952D01*
X149478095Y-138225714D01*
X151962380Y-134106666D02*
X152676666Y-134106666D01*
X152819523Y-134059047D01*
X152914761Y-133963809D01*
X152962380Y-133820952D01*
X152962380Y-133725714D01*
X151962380Y-134487619D02*
X151962380Y-135154285D01*
X152962380Y-134725714D01*
%TO.C,J8*%
X140865238Y-134138571D02*
X140531904Y-134138571D01*
X140389047Y-134662380D02*
X140865238Y-134662380D01*
X140865238Y-133662380D01*
X140389047Y-133662380D01*
X140055714Y-134662380D02*
X139531904Y-133995714D01*
X140055714Y-133995714D02*
X139531904Y-134662380D01*
X139293809Y-133995714D02*
X138912857Y-133995714D01*
X139150952Y-133662380D02*
X139150952Y-134519523D01*
X139103333Y-134614761D01*
X139008095Y-134662380D01*
X138912857Y-134662380D01*
X138817619Y-134757619D02*
X138055714Y-134757619D01*
X137627142Y-133662380D02*
X137531904Y-133662380D01*
X137436666Y-133710000D01*
X137389047Y-133757619D01*
X137341428Y-133852857D01*
X137293809Y-134043333D01*
X137293809Y-134281428D01*
X137341428Y-134471904D01*
X137389047Y-134567142D01*
X137436666Y-134614761D01*
X137531904Y-134662380D01*
X137627142Y-134662380D01*
X137722380Y-134614761D01*
X137770000Y-134567142D01*
X137817619Y-134471904D01*
X137865238Y-134281428D01*
X137865238Y-134043333D01*
X137817619Y-133852857D01*
X137770000Y-133757619D01*
X137722380Y-133710000D01*
X137627142Y-133662380D01*
X136341428Y-134662380D02*
X136912857Y-134662380D01*
X136627142Y-134662380D02*
X136627142Y-133662380D01*
X136722380Y-133805238D01*
X136817619Y-133900476D01*
X136912857Y-133948095D01*
X136008095Y-134662380D02*
X135484285Y-133995714D01*
X136008095Y-133995714D02*
X135484285Y-134662380D01*
X134912857Y-133662380D02*
X134817619Y-133662380D01*
X134722380Y-133710000D01*
X134674761Y-133757619D01*
X134627142Y-133852857D01*
X134579523Y-134043333D01*
X134579523Y-134281428D01*
X134627142Y-134471904D01*
X134674761Y-134567142D01*
X134722380Y-134614761D01*
X134817619Y-134662380D01*
X134912857Y-134662380D01*
X135008095Y-134614761D01*
X135055714Y-134567142D01*
X135103333Y-134471904D01*
X135150952Y-134281428D01*
X135150952Y-134043333D01*
X135103333Y-133852857D01*
X135055714Y-133757619D01*
X135008095Y-133710000D01*
X134912857Y-133662380D01*
X134198571Y-133757619D02*
X134150952Y-133710000D01*
X134055714Y-133662380D01*
X133817619Y-133662380D01*
X133722380Y-133710000D01*
X133674761Y-133757619D01*
X133627142Y-133852857D01*
X133627142Y-133948095D01*
X133674761Y-134090952D01*
X134246190Y-134662380D01*
X133627142Y-134662380D01*
X137817619Y-138583333D02*
X137103333Y-138583333D01*
X136960476Y-138630952D01*
X136865238Y-138726190D01*
X136817619Y-138869047D01*
X136817619Y-138964285D01*
X137389047Y-137964285D02*
X137436666Y-138059523D01*
X137484285Y-138107142D01*
X137579523Y-138154761D01*
X137627142Y-138154761D01*
X137722380Y-138107142D01*
X137770000Y-138059523D01*
X137817619Y-137964285D01*
X137817619Y-137773809D01*
X137770000Y-137678571D01*
X137722380Y-137630952D01*
X137627142Y-137583333D01*
X137579523Y-137583333D01*
X137484285Y-137630952D01*
X137436666Y-137678571D01*
X137389047Y-137773809D01*
X137389047Y-137964285D01*
X137341428Y-138059523D01*
X137293809Y-138107142D01*
X137198571Y-138154761D01*
X137008095Y-138154761D01*
X136912857Y-138107142D01*
X136865238Y-138059523D01*
X136817619Y-137964285D01*
X136817619Y-137773809D01*
X136865238Y-137678571D01*
X136912857Y-137630952D01*
X137008095Y-137583333D01*
X137198571Y-137583333D01*
X137293809Y-137630952D01*
X137341428Y-137678571D01*
X137389047Y-137773809D01*
%TO.C,J9*%
X143548095Y-137107142D02*
X143595714Y-137154761D01*
X143738571Y-137202380D01*
X143833809Y-137202380D01*
X143976666Y-137154761D01*
X144071904Y-137059523D01*
X144119523Y-136964285D01*
X144167142Y-136773809D01*
X144167142Y-136630952D01*
X144119523Y-136440476D01*
X144071904Y-136345238D01*
X143976666Y-136250000D01*
X143833809Y-136202380D01*
X143738571Y-136202380D01*
X143595714Y-136250000D01*
X143548095Y-136297619D01*
X142976666Y-137202380D02*
X143071904Y-137154761D01*
X143119523Y-137107142D01*
X143167142Y-137011904D01*
X143167142Y-136726190D01*
X143119523Y-136630952D01*
X143071904Y-136583333D01*
X142976666Y-136535714D01*
X142833809Y-136535714D01*
X142738571Y-136583333D01*
X142690952Y-136630952D01*
X142643333Y-136726190D01*
X142643333Y-137011904D01*
X142690952Y-137107142D01*
X142738571Y-137154761D01*
X142833809Y-137202380D01*
X142976666Y-137202380D01*
X142214761Y-136535714D02*
X142214761Y-137202380D01*
X142214761Y-136630952D02*
X142167142Y-136583333D01*
X142071904Y-136535714D01*
X141929047Y-136535714D01*
X141833809Y-136583333D01*
X141786190Y-136678571D01*
X141786190Y-137202380D01*
X141310000Y-136535714D02*
X141310000Y-137202380D01*
X141310000Y-136630952D02*
X141262380Y-136583333D01*
X141167142Y-136535714D01*
X141024285Y-136535714D01*
X140929047Y-136583333D01*
X140881428Y-136678571D01*
X140881428Y-137202380D01*
X140643333Y-137297619D02*
X139881428Y-137297619D01*
X139452857Y-136202380D02*
X139357619Y-136202380D01*
X139262380Y-136250000D01*
X139214761Y-136297619D01*
X139167142Y-136392857D01*
X139119523Y-136583333D01*
X139119523Y-136821428D01*
X139167142Y-137011904D01*
X139214761Y-137107142D01*
X139262380Y-137154761D01*
X139357619Y-137202380D01*
X139452857Y-137202380D01*
X139548095Y-137154761D01*
X139595714Y-137107142D01*
X139643333Y-137011904D01*
X139690952Y-136821428D01*
X139690952Y-136583333D01*
X139643333Y-136392857D01*
X139595714Y-136297619D01*
X139548095Y-136250000D01*
X139452857Y-136202380D01*
X138167142Y-137202380D02*
X138738571Y-137202380D01*
X138452857Y-137202380D02*
X138452857Y-136202380D01*
X138548095Y-136345238D01*
X138643333Y-136440476D01*
X138738571Y-136488095D01*
X137833809Y-137202380D02*
X137310000Y-136535714D01*
X137833809Y-136535714D02*
X137310000Y-137202380D01*
X136738571Y-136202380D02*
X136643333Y-136202380D01*
X136548095Y-136250000D01*
X136500476Y-136297619D01*
X136452857Y-136392857D01*
X136405238Y-136583333D01*
X136405238Y-136821428D01*
X136452857Y-137011904D01*
X136500476Y-137107142D01*
X136548095Y-137154761D01*
X136643333Y-137202380D01*
X136738571Y-137202380D01*
X136833809Y-137154761D01*
X136881428Y-137107142D01*
X136929047Y-137011904D01*
X136976666Y-136821428D01*
X136976666Y-136583333D01*
X136929047Y-136392857D01*
X136881428Y-136297619D01*
X136833809Y-136250000D01*
X136738571Y-136202380D01*
X135452857Y-137202380D02*
X136024285Y-137202380D01*
X135738571Y-137202380D02*
X135738571Y-136202380D01*
X135833809Y-136345238D01*
X135929047Y-136440476D01*
X136024285Y-136488095D01*
X140143333Y-138972380D02*
X140143333Y-139686666D01*
X140190952Y-139829523D01*
X140286190Y-139924761D01*
X140429047Y-139972380D01*
X140524285Y-139972380D01*
X139619523Y-139972380D02*
X139429047Y-139972380D01*
X139333809Y-139924761D01*
X139286190Y-139877142D01*
X139190952Y-139734285D01*
X139143333Y-139543809D01*
X139143333Y-139162857D01*
X139190952Y-139067619D01*
X139238571Y-139020000D01*
X139333809Y-138972380D01*
X139524285Y-138972380D01*
X139619523Y-139020000D01*
X139667142Y-139067619D01*
X139714761Y-139162857D01*
X139714761Y-139400952D01*
X139667142Y-139496190D01*
X139619523Y-139543809D01*
X139524285Y-139591428D01*
X139333809Y-139591428D01*
X139238571Y-139543809D01*
X139190952Y-139496190D01*
X139143333Y-139400952D01*
%TO.C,J10*%
X123085238Y-131598571D02*
X122751904Y-131598571D01*
X122609047Y-132122380D02*
X123085238Y-132122380D01*
X123085238Y-131122380D01*
X122609047Y-131122380D01*
X122275714Y-132122380D02*
X121751904Y-131455714D01*
X122275714Y-131455714D02*
X121751904Y-132122380D01*
X121513809Y-131455714D02*
X121132857Y-131455714D01*
X121370952Y-131122380D02*
X121370952Y-131979523D01*
X121323333Y-132074761D01*
X121228095Y-132122380D01*
X121132857Y-132122380D01*
X121037619Y-132217619D02*
X120275714Y-132217619D01*
X119847142Y-131122380D02*
X119751904Y-131122380D01*
X119656666Y-131170000D01*
X119609047Y-131217619D01*
X119561428Y-131312857D01*
X119513809Y-131503333D01*
X119513809Y-131741428D01*
X119561428Y-131931904D01*
X119609047Y-132027142D01*
X119656666Y-132074761D01*
X119751904Y-132122380D01*
X119847142Y-132122380D01*
X119942380Y-132074761D01*
X119990000Y-132027142D01*
X120037619Y-131931904D01*
X120085238Y-131741428D01*
X120085238Y-131503333D01*
X120037619Y-131312857D01*
X119990000Y-131217619D01*
X119942380Y-131170000D01*
X119847142Y-131122380D01*
X118561428Y-132122380D02*
X119132857Y-132122380D01*
X118847142Y-132122380D02*
X118847142Y-131122380D01*
X118942380Y-131265238D01*
X119037619Y-131360476D01*
X119132857Y-131408095D01*
X118228095Y-132122380D02*
X117704285Y-131455714D01*
X118228095Y-131455714D02*
X117704285Y-132122380D01*
X117132857Y-131122380D02*
X117037619Y-131122380D01*
X116942380Y-131170000D01*
X116894761Y-131217619D01*
X116847142Y-131312857D01*
X116799523Y-131503333D01*
X116799523Y-131741428D01*
X116847142Y-131931904D01*
X116894761Y-132027142D01*
X116942380Y-132074761D01*
X117037619Y-132122380D01*
X117132857Y-132122380D01*
X117228095Y-132074761D01*
X117275714Y-132027142D01*
X117323333Y-131931904D01*
X117370952Y-131741428D01*
X117370952Y-131503333D01*
X117323333Y-131312857D01*
X117275714Y-131217619D01*
X117228095Y-131170000D01*
X117132857Y-131122380D01*
X116418571Y-131217619D02*
X116370952Y-131170000D01*
X116275714Y-131122380D01*
X116037619Y-131122380D01*
X115942380Y-131170000D01*
X115894761Y-131217619D01*
X115847142Y-131312857D01*
X115847142Y-131408095D01*
X115894761Y-131550952D01*
X116466190Y-132122380D01*
X115847142Y-132122380D01*
X120037619Y-136519523D02*
X119323333Y-136519523D01*
X119180476Y-136567142D01*
X119085238Y-136662380D01*
X119037619Y-136805238D01*
X119037619Y-136900476D01*
X119037619Y-135519523D02*
X119037619Y-136090952D01*
X119037619Y-135805238D02*
X120037619Y-135805238D01*
X119894761Y-135900476D01*
X119799523Y-135995714D01*
X119751904Y-136090952D01*
X120037619Y-134900476D02*
X120037619Y-134805238D01*
X119990000Y-134710000D01*
X119942380Y-134662380D01*
X119847142Y-134614761D01*
X119656666Y-134567142D01*
X119418571Y-134567142D01*
X119228095Y-134614761D01*
X119132857Y-134662380D01*
X119085238Y-134710000D01*
X119037619Y-134805238D01*
X119037619Y-134900476D01*
X119085238Y-134995714D01*
X119132857Y-135043333D01*
X119228095Y-135090952D01*
X119418571Y-135138571D01*
X119656666Y-135138571D01*
X119847142Y-135090952D01*
X119942380Y-135043333D01*
X119990000Y-134995714D01*
X120037619Y-134900476D01*
%TO.C,J11*%
X123228095Y-135027142D02*
X123275714Y-135074761D01*
X123418571Y-135122380D01*
X123513809Y-135122380D01*
X123656666Y-135074761D01*
X123751904Y-134979523D01*
X123799523Y-134884285D01*
X123847142Y-134693809D01*
X123847142Y-134550952D01*
X123799523Y-134360476D01*
X123751904Y-134265238D01*
X123656666Y-134170000D01*
X123513809Y-134122380D01*
X123418571Y-134122380D01*
X123275714Y-134170000D01*
X123228095Y-134217619D01*
X122656666Y-135122380D02*
X122751904Y-135074761D01*
X122799523Y-135027142D01*
X122847142Y-134931904D01*
X122847142Y-134646190D01*
X122799523Y-134550952D01*
X122751904Y-134503333D01*
X122656666Y-134455714D01*
X122513809Y-134455714D01*
X122418571Y-134503333D01*
X122370952Y-134550952D01*
X122323333Y-134646190D01*
X122323333Y-134931904D01*
X122370952Y-135027142D01*
X122418571Y-135074761D01*
X122513809Y-135122380D01*
X122656666Y-135122380D01*
X121894761Y-134455714D02*
X121894761Y-135122380D01*
X121894761Y-134550952D02*
X121847142Y-134503333D01*
X121751904Y-134455714D01*
X121609047Y-134455714D01*
X121513809Y-134503333D01*
X121466190Y-134598571D01*
X121466190Y-135122380D01*
X120990000Y-134455714D02*
X120990000Y-135122380D01*
X120990000Y-134550952D02*
X120942380Y-134503333D01*
X120847142Y-134455714D01*
X120704285Y-134455714D01*
X120609047Y-134503333D01*
X120561428Y-134598571D01*
X120561428Y-135122380D01*
X120323333Y-135217619D02*
X119561428Y-135217619D01*
X119132857Y-134122380D02*
X119037619Y-134122380D01*
X118942380Y-134170000D01*
X118894761Y-134217619D01*
X118847142Y-134312857D01*
X118799523Y-134503333D01*
X118799523Y-134741428D01*
X118847142Y-134931904D01*
X118894761Y-135027142D01*
X118942380Y-135074761D01*
X119037619Y-135122380D01*
X119132857Y-135122380D01*
X119228095Y-135074761D01*
X119275714Y-135027142D01*
X119323333Y-134931904D01*
X119370952Y-134741428D01*
X119370952Y-134503333D01*
X119323333Y-134312857D01*
X119275714Y-134217619D01*
X119228095Y-134170000D01*
X119132857Y-134122380D01*
X117847142Y-135122380D02*
X118418571Y-135122380D01*
X118132857Y-135122380D02*
X118132857Y-134122380D01*
X118228095Y-134265238D01*
X118323333Y-134360476D01*
X118418571Y-134408095D01*
X117513809Y-135122380D02*
X116990000Y-134455714D01*
X117513809Y-134455714D02*
X116990000Y-135122380D01*
X116418571Y-134122380D02*
X116323333Y-134122380D01*
X116228095Y-134170000D01*
X116180476Y-134217619D01*
X116132857Y-134312857D01*
X116085238Y-134503333D01*
X116085238Y-134741428D01*
X116132857Y-134931904D01*
X116180476Y-135027142D01*
X116228095Y-135074761D01*
X116323333Y-135122380D01*
X116418571Y-135122380D01*
X116513809Y-135074761D01*
X116561428Y-135027142D01*
X116609047Y-134931904D01*
X116656666Y-134741428D01*
X116656666Y-134503333D01*
X116609047Y-134312857D01*
X116561428Y-134217619D01*
X116513809Y-134170000D01*
X116418571Y-134122380D01*
X115132857Y-135122380D02*
X115704285Y-135122380D01*
X115418571Y-135122380D02*
X115418571Y-134122380D01*
X115513809Y-134265238D01*
X115609047Y-134360476D01*
X115704285Y-134408095D01*
X120299523Y-131352380D02*
X120299523Y-132066666D01*
X120347142Y-132209523D01*
X120442380Y-132304761D01*
X120585238Y-132352380D01*
X120680476Y-132352380D01*
X119299523Y-132352380D02*
X119870952Y-132352380D01*
X119585238Y-132352380D02*
X119585238Y-131352380D01*
X119680476Y-131495238D01*
X119775714Y-131590476D01*
X119870952Y-131638095D01*
X118347142Y-132352380D02*
X118918571Y-132352380D01*
X118632857Y-132352380D02*
X118632857Y-131352380D01*
X118728095Y-131495238D01*
X118823333Y-131590476D01*
X118918571Y-131638095D01*
%TD*%
M02*
