M48
; DRILL file {KiCad (5.1.6)-1} date 01/03/21 17:25:35
; FORMAT={-:-/ absolute / metric / decimal}
; #@! TF.CreationDate,2021-01-03T17:25:35+01:00
; #@! TF.GenerationSoftware,Kicad,Pcbnew,(5.1.6)-1
; #@! TF.FileFunction,Plated,1,2,PTH
FMAT,2
METRIC
T1C0.600
T2C1.000
T3C2.600
%
G90
G05
T1
X109.9Y-141.35
X109.9Y-145.8
X112.2Y-149.25
X119.03Y-125.53
X120.5Y-149.4
X120.5Y-154.5
X122.0Y-134.0
X124.0Y-132.0
X127.0Y-88.0
X127.5Y-109.5
X128.5Y-129.0
X130.8Y-129.0
X131.0Y-82.0
X133.0Y-122.0
X135.0Y-125.5
X137.0Y-125.5
X139.0Y-116.0
X139.0Y-117.5
X141.0Y-82.0
X141.0Y-116.0
X141.0Y-117.5
X144.05Y-145.9
X150.0Y-121.6
X164.0Y-142.85
X164.0Y-145.5
T2
X147.43Y-139.52
X149.97Y-139.52
X149.97Y-136.98
X152.51Y-136.98
X119.49Y-131.9
X137.27Y-136.98
X137.27Y-139.52
X111.87Y-78.56
X111.87Y-81.1
X111.87Y-83.64
X111.87Y-86.18
X111.87Y-88.72
X111.87Y-91.26
X111.87Y-93.8
X111.87Y-96.34
X114.41Y-78.56
X114.41Y-81.1
X114.41Y-83.64
X114.41Y-86.18
X114.41Y-88.72
X114.41Y-91.26
X114.41Y-93.8
X114.41Y-96.34
X157.59Y-69.67
X157.59Y-72.21
X157.59Y-74.75
X157.59Y-77.29
X157.59Y-79.83
X157.59Y-82.37
X157.59Y-84.91
X157.59Y-87.45
X157.59Y-89.99
X157.59Y-92.53
X160.13Y-69.67
X160.13Y-72.21
X160.13Y-74.75
X160.13Y-77.29
X160.13Y-79.83
X160.13Y-82.37
X160.13Y-84.91
X160.13Y-87.45
X160.13Y-89.99
X160.13Y-92.53
X157.59Y-96.34
X157.59Y-98.88
X157.59Y-101.42
X157.59Y-103.96
X157.59Y-106.5
X157.59Y-109.04
X157.59Y-111.58
X157.59Y-114.12
X157.59Y-116.66
X157.59Y-119.2
X157.59Y-121.74
X157.59Y-124.28
X157.59Y-126.82
X157.59Y-129.36
X157.59Y-131.9
X157.59Y-134.44
X157.59Y-136.98
X160.13Y-96.34
X160.13Y-98.88
X160.13Y-101.42
X160.13Y-103.96
X160.13Y-106.5
X160.13Y-109.04
X160.13Y-111.58
X160.13Y-114.12
X160.13Y-116.66
X160.13Y-119.2
X160.13Y-121.74
X160.13Y-124.28
X160.13Y-126.82
X160.13Y-129.36
X160.13Y-131.9
X160.13Y-134.44
X160.13Y-136.98
X133.5Y-92.0
X133.5Y-106.5
X136.0Y-92.0
X138.5Y-92.0
X138.5Y-106.5
X111.87Y-101.42
X111.87Y-103.96
X111.87Y-106.5
X111.87Y-109.04
X111.87Y-111.58
X111.87Y-114.12
X111.87Y-116.66
X111.87Y-119.2
X111.87Y-121.74
X111.87Y-124.28
X111.87Y-126.82
X111.87Y-129.36
X111.87Y-131.9
X111.87Y-134.44
X111.87Y-136.98
X114.41Y-101.42
X114.41Y-103.96
X114.41Y-106.5
X114.41Y-109.04
X114.41Y-111.58
X114.41Y-114.12
X114.41Y-116.66
X114.41Y-119.2
X114.41Y-121.74
X114.41Y-124.28
X114.41Y-126.82
X114.41Y-129.36
X114.41Y-131.9
X114.41Y-134.44
X114.41Y-136.98
X129.0Y-141.0
X129.0Y-146.0
X139.81Y-139.52
X119.49Y-134.44
X119.49Y-136.98
X152.51Y-134.44
X131.92Y-61.5
X134.46Y-61.5
X137.0Y-61.5
X139.54Y-61.5
X117.0Y-141.0
X117.0Y-146.0
T3
X130.4Y-99.5
X141.6Y-99.5
T0
M30
