%TF.GenerationSoftware,KiCad,Pcbnew,(5.1.6)-1*%
%TF.CreationDate,2021-01-03T17:25:39+01:00*%
%TF.ProjectId,Nucleo144_DSP,4e75636c-656f-4313-9434-5f4453502e6b,rev?*%
%TF.SameCoordinates,Original*%
%TF.FileFunction,Other,Fab,Top*%
%FSLAX46Y46*%
G04 Gerber Fmt 4.6, Leading zero omitted, Abs format (unit mm)*
G04 Created by KiCad (PCBNEW (5.1.6)-1) date 2021-01-03 17:25:39*
%MOMM*%
%LPD*%
G01*
G04 APERTURE LIST*
%ADD10C,0.100000*%
%ADD11C,0.120000*%
%ADD12C,0.150000*%
%ADD13C,0.080000*%
%ADD14C,0.075000*%
G04 APERTURE END LIST*
D10*
%TO.C,C16*%
X122000000Y-143500000D02*
G75*
G03*
X122000000Y-143500000I-5000000J0D01*
G01*
X119187500Y-139211139D02*
X119187500Y-140211139D01*
X119687500Y-139711139D02*
X118687500Y-139711139D01*
%TO.C,Y1*%
X148350000Y-115800000D02*
X143650000Y-115800000D01*
X143650000Y-115800000D02*
X143650000Y-127200000D01*
X143650000Y-127200000D02*
X148350000Y-127200000D01*
X148350000Y-127200000D02*
X148350000Y-115800000D01*
X148115000Y-118485000D02*
X148115000Y-124515000D01*
X143885000Y-118485000D02*
X143885000Y-124515000D01*
X143885000Y-118485000D02*
G75*
G02*
X148115000Y-118485000I2115000J0D01*
G01*
X143885000Y-124515000D02*
G75*
G03*
X148115000Y-124515000I2115000J0D01*
G01*
%TO.C,C1*%
X153100000Y-150000000D02*
X153100000Y-152000000D01*
X151900000Y-150000000D02*
X153100000Y-150000000D01*
X151900000Y-152000000D02*
X151900000Y-150000000D01*
X153100000Y-152000000D02*
X151900000Y-152000000D01*
%TO.C,C3*%
X139000000Y-120100000D02*
X139000000Y-118900000D01*
X139000000Y-118900000D02*
X141000000Y-118900000D01*
X141000000Y-118900000D02*
X141000000Y-120100000D01*
X141000000Y-120100000D02*
X139000000Y-120100000D01*
%TO.C,C4*%
X127900000Y-130500000D02*
X129100000Y-130500000D01*
X129100000Y-130500000D02*
X129100000Y-132500000D01*
X129100000Y-132500000D02*
X127900000Y-132500000D01*
X127900000Y-132500000D02*
X127900000Y-130500000D01*
%TO.C,C2*%
X152100000Y-160500000D02*
X150900000Y-160500000D01*
X150900000Y-160500000D02*
X150900000Y-158500000D01*
X150900000Y-158500000D02*
X152100000Y-158500000D01*
X152100000Y-158500000D02*
X152100000Y-160500000D01*
%TO.C,C5*%
X141000000Y-122100000D02*
X139000000Y-122100000D01*
X141000000Y-120900000D02*
X141000000Y-122100000D01*
X139000000Y-120900000D02*
X141000000Y-120900000D01*
X139000000Y-122100000D02*
X139000000Y-120900000D01*
%TO.C,C6*%
X130200000Y-132500000D02*
X130200000Y-130500000D01*
X131400000Y-132500000D02*
X130200000Y-132500000D01*
X131400000Y-130500000D02*
X131400000Y-132500000D01*
X130200000Y-130500000D02*
X131400000Y-130500000D01*
%TO.C,C7*%
X167500000Y-146100000D02*
X167500000Y-144900000D01*
X167500000Y-144900000D02*
X169500000Y-144900000D01*
X169500000Y-144900000D02*
X169500000Y-146100000D01*
X169500000Y-146100000D02*
X167500000Y-146100000D01*
%TO.C,C8*%
X167500000Y-141900000D02*
X169500000Y-141900000D01*
X167500000Y-143100000D02*
X167500000Y-141900000D01*
X169500000Y-143100000D02*
X167500000Y-143100000D01*
X169500000Y-141900000D02*
X169500000Y-143100000D01*
%TO.C,C9*%
X158500000Y-143100000D02*
X156500000Y-143100000D01*
X158500000Y-141900000D02*
X158500000Y-143100000D01*
X156500000Y-141900000D02*
X158500000Y-141900000D01*
X156500000Y-143100000D02*
X156500000Y-141900000D01*
%TO.C,C10*%
X158500000Y-146100000D02*
X156500000Y-146100000D01*
X158500000Y-144900000D02*
X158500000Y-146100000D01*
X156500000Y-144900000D02*
X158500000Y-144900000D01*
X156500000Y-146100000D02*
X156500000Y-144900000D01*
%TO.C,C11*%
X149400000Y-124000000D02*
X150600000Y-124000000D01*
X150600000Y-124000000D02*
X150600000Y-126000000D01*
X150600000Y-126000000D02*
X149400000Y-126000000D01*
X149400000Y-126000000D02*
X149400000Y-124000000D01*
%TO.C,C12*%
X150600000Y-119000000D02*
X149400000Y-119000000D01*
X149400000Y-119000000D02*
X149400000Y-117000000D01*
X149400000Y-117000000D02*
X150600000Y-117000000D01*
X150600000Y-117000000D02*
X150600000Y-119000000D01*
%TO.C,C13*%
X142100000Y-135600000D02*
X142100000Y-136800000D01*
X142100000Y-136800000D02*
X140100000Y-136800000D01*
X140100000Y-136800000D02*
X140100000Y-135600000D01*
X140100000Y-135600000D02*
X142100000Y-135600000D01*
%TO.C,C14*%
X140100000Y-133600000D02*
X142100000Y-133600000D01*
X140100000Y-134800000D02*
X140100000Y-133600000D01*
X142100000Y-134800000D02*
X140100000Y-134800000D01*
X142100000Y-133600000D02*
X142100000Y-134800000D01*
%TO.C,C15*%
X131687500Y-139711139D02*
X130687500Y-139711139D01*
X131187500Y-139211139D02*
X131187500Y-140211139D01*
X134000000Y-143500000D02*
G75*
G03*
X134000000Y-143500000I-5000000J0D01*
G01*
%TO.C,C17*%
X116100000Y-151000000D02*
X116100000Y-153000000D01*
X114900000Y-151000000D02*
X116100000Y-151000000D01*
X114900000Y-153000000D02*
X114900000Y-151000000D01*
X116100000Y-153000000D02*
X114900000Y-153000000D01*
%TO.C,C18*%
X103100000Y-152000000D02*
X101900000Y-152000000D01*
X101900000Y-152000000D02*
X101900000Y-150000000D01*
X101900000Y-150000000D02*
X103100000Y-150000000D01*
X103100000Y-150000000D02*
X103100000Y-152000000D01*
%TO.C,C19*%
X139000000Y-82600000D02*
X137000000Y-82600000D01*
X139000000Y-81400000D02*
X139000000Y-82600000D01*
X137000000Y-81400000D02*
X139000000Y-81400000D01*
X137000000Y-82600000D02*
X137000000Y-81400000D01*
%TO.C,C20*%
X133000000Y-82600000D02*
X133000000Y-81400000D01*
X133000000Y-81400000D02*
X135000000Y-81400000D01*
X135000000Y-81400000D02*
X135000000Y-82600000D01*
X135000000Y-82600000D02*
X133000000Y-82600000D01*
%TO.C,C21*%
X135000000Y-110100000D02*
X135000000Y-108900000D01*
X135000000Y-108900000D02*
X137000000Y-108900000D01*
X137000000Y-108900000D02*
X137000000Y-110100000D01*
X137000000Y-110100000D02*
X135000000Y-110100000D01*
%TO.C,C22*%
X134000000Y-65600000D02*
X132000000Y-65600000D01*
X134000000Y-64400000D02*
X134000000Y-65600000D01*
X132000000Y-64400000D02*
X134000000Y-64400000D01*
X132000000Y-65600000D02*
X132000000Y-64400000D01*
%TO.C,FB1*%
X126000000Y-133400000D02*
X126000000Y-134600000D01*
X126000000Y-134600000D02*
X124000000Y-134600000D01*
X124000000Y-134600000D02*
X124000000Y-133400000D01*
X124000000Y-133400000D02*
X126000000Y-133400000D01*
%TO.C,R1*%
X151500000Y-155620000D02*
X151500000Y-154380000D01*
X153500000Y-155620000D02*
X151500000Y-155620000D01*
X153500000Y-154380000D02*
X153500000Y-155620000D01*
X151500000Y-154380000D02*
X153500000Y-154380000D01*
%TO.C,R2*%
X151880000Y-148000000D02*
X151880000Y-146000000D01*
X151880000Y-146000000D02*
X153120000Y-146000000D01*
X153120000Y-146000000D02*
X153120000Y-148000000D01*
X153120000Y-148000000D02*
X151880000Y-148000000D01*
%TO.C,R3*%
X146000000Y-147380000D02*
X146000000Y-148620000D01*
X144000000Y-147380000D02*
X146000000Y-147380000D01*
X144000000Y-148620000D02*
X144000000Y-147380000D01*
X146000000Y-148620000D02*
X144000000Y-148620000D01*
%TO.C,R4*%
X107500000Y-125120000D02*
X107500000Y-123880000D01*
X109500000Y-125120000D02*
X107500000Y-125120000D01*
X109500000Y-123880000D02*
X109500000Y-125120000D01*
X107500000Y-123880000D02*
X109500000Y-123880000D01*
%TO.C,R5*%
X107500000Y-125880000D02*
X109500000Y-125880000D01*
X109500000Y-125880000D02*
X109500000Y-127120000D01*
X109500000Y-127120000D02*
X107500000Y-127120000D01*
X107500000Y-127120000D02*
X107500000Y-125880000D01*
%TO.C,R7*%
X169500000Y-147880000D02*
X169500000Y-149120000D01*
X167500000Y-147880000D02*
X169500000Y-147880000D01*
X167500000Y-149120000D02*
X167500000Y-147880000D01*
X169500000Y-149120000D02*
X167500000Y-149120000D01*
%TO.C,R8*%
X148200000Y-132120000D02*
X148200000Y-130880000D01*
X150200000Y-132120000D02*
X148200000Y-132120000D01*
X150200000Y-130880000D02*
X150200000Y-132120000D01*
X148200000Y-130880000D02*
X150200000Y-130880000D01*
%TO.C,R9*%
X148200000Y-128780000D02*
X150200000Y-128780000D01*
X150200000Y-128780000D02*
X150200000Y-130020000D01*
X150200000Y-130020000D02*
X148200000Y-130020000D01*
X148200000Y-130020000D02*
X148200000Y-128780000D01*
%TO.C,R10*%
X168880000Y-160500000D02*
X168880000Y-158500000D01*
X168880000Y-158500000D02*
X170120000Y-158500000D01*
X170120000Y-158500000D02*
X170120000Y-160500000D01*
X170120000Y-160500000D02*
X168880000Y-160500000D01*
%TO.C,R11*%
X155880000Y-160500000D02*
X155880000Y-158500000D01*
X155880000Y-158500000D02*
X157120000Y-158500000D01*
X157120000Y-158500000D02*
X157120000Y-160500000D01*
X157120000Y-160500000D02*
X155880000Y-160500000D01*
%TO.C,R12*%
X156500000Y-149120000D02*
X156500000Y-147880000D01*
X158500000Y-149120000D02*
X156500000Y-149120000D01*
X158500000Y-147880000D02*
X158500000Y-149120000D01*
X156500000Y-147880000D02*
X158500000Y-147880000D01*
%TO.C,R14*%
X134120000Y-159000000D02*
X134120000Y-161000000D01*
X134120000Y-161000000D02*
X132880000Y-161000000D01*
X132880000Y-161000000D02*
X132880000Y-159000000D01*
X132880000Y-159000000D02*
X134120000Y-159000000D01*
%TO.C,R16*%
X121120000Y-161000000D02*
X119880000Y-161000000D01*
X121120000Y-159000000D02*
X121120000Y-161000000D01*
X119880000Y-159000000D02*
X121120000Y-159000000D01*
X119880000Y-161000000D02*
X119880000Y-159000000D01*
%TO.C,R13*%
X121120000Y-151000000D02*
X121120000Y-153000000D01*
X121120000Y-153000000D02*
X119880000Y-153000000D01*
X119880000Y-153000000D02*
X119880000Y-151000000D01*
X119880000Y-151000000D02*
X121120000Y-151000000D01*
%TO.C,R23*%
X116120000Y-159000000D02*
X116120000Y-161000000D01*
X116120000Y-161000000D02*
X114880000Y-161000000D01*
X114880000Y-161000000D02*
X114880000Y-159000000D01*
X114880000Y-159000000D02*
X116120000Y-159000000D01*
%TO.C,R24*%
X103120000Y-160500000D02*
X101880000Y-160500000D01*
X103120000Y-158500000D02*
X103120000Y-160500000D01*
X101880000Y-158500000D02*
X103120000Y-158500000D01*
X101880000Y-160500000D02*
X101880000Y-158500000D01*
%TO.C,R17*%
X131500000Y-89120000D02*
X131500000Y-87880000D01*
X133500000Y-89120000D02*
X131500000Y-89120000D01*
X133500000Y-87880000D02*
X133500000Y-89120000D01*
X131500000Y-87880000D02*
X133500000Y-87880000D01*
%TO.C,R18*%
X140500000Y-89120000D02*
X138500000Y-89120000D01*
X138500000Y-89120000D02*
X138500000Y-87880000D01*
X138500000Y-87880000D02*
X140500000Y-87880000D01*
X140500000Y-87880000D02*
X140500000Y-89120000D01*
%TO.C,R19*%
X130000000Y-110120000D02*
X130000000Y-108880000D01*
X132000000Y-110120000D02*
X130000000Y-110120000D01*
X132000000Y-108880000D02*
X132000000Y-110120000D01*
X130000000Y-108880000D02*
X132000000Y-108880000D01*
%TO.C,R20*%
X138380000Y-86500000D02*
X138380000Y-84500000D01*
X138380000Y-84500000D02*
X139620000Y-84500000D01*
X139620000Y-84500000D02*
X139620000Y-86500000D01*
X139620000Y-86500000D02*
X138380000Y-86500000D01*
%TO.C,R21*%
X132380000Y-86500000D02*
X132380000Y-84500000D01*
X132380000Y-84500000D02*
X133620000Y-84500000D01*
X133620000Y-84500000D02*
X133620000Y-86500000D01*
X133620000Y-86500000D02*
X132380000Y-86500000D01*
D11*
%TO.C,SW1*%
X136000000Y-96500000D02*
X136000000Y-102500000D01*
X139000000Y-99500000D02*
X133000000Y-99500000D01*
X140700000Y-93500000D02*
X141800000Y-94500000D01*
X130200000Y-93500000D02*
X140700000Y-93500000D01*
X130200000Y-105500000D02*
X130200000Y-93500000D01*
X141800000Y-105500000D02*
X130200000Y-105500000D01*
X141800000Y-94500000D02*
X141800000Y-105500000D01*
X139000000Y-99500000D02*
G75*
G03*
X139000000Y-99500000I-3000000J0D01*
G01*
D10*
%TO.C,U1*%
X134800000Y-123150000D02*
X138200000Y-123150000D01*
X138200000Y-123150000D02*
X138200000Y-132850000D01*
X138200000Y-132850000D02*
X133800000Y-132850000D01*
X133800000Y-132850000D02*
X133800000Y-124150000D01*
X133800000Y-124150000D02*
X134800000Y-123150000D01*
%TO.C,R6*%
X162000000Y-148120000D02*
X162000000Y-146880000D01*
X164000000Y-148120000D02*
X162000000Y-148120000D01*
X164000000Y-146880000D02*
X164000000Y-148120000D01*
X162000000Y-146880000D02*
X164000000Y-146880000D01*
%TO.C,R22*%
X108000000Y-147380000D02*
X110000000Y-147380000D01*
X110000000Y-147380000D02*
X110000000Y-148620000D01*
X110000000Y-148620000D02*
X108000000Y-148620000D01*
X108000000Y-148620000D02*
X108000000Y-147380000D01*
%TO.C,X1*%
X142500000Y-167000000D02*
X142000000Y-167000000D01*
X142500000Y-169500000D02*
X142500000Y-167000000D01*
X147500000Y-169500000D02*
X142500000Y-169500000D01*
X147500000Y-167000000D02*
X147500000Y-169500000D01*
X148000000Y-167000000D02*
X147500000Y-167000000D01*
X148000000Y-152500000D02*
X148000000Y-167000000D01*
X142000000Y-152500000D02*
X148000000Y-152500000D01*
X142000000Y-167000000D02*
X142000000Y-152500000D01*
%TO.C,X2*%
X160000000Y-167000000D02*
X160000000Y-152500000D01*
X160000000Y-152500000D02*
X166000000Y-152500000D01*
X166000000Y-152500000D02*
X166000000Y-167000000D01*
X166000000Y-167000000D02*
X165500000Y-167000000D01*
X165500000Y-167000000D02*
X165500000Y-169500000D01*
X165500000Y-169500000D02*
X160500000Y-169500000D01*
X160500000Y-169500000D02*
X160500000Y-167000000D01*
X160500000Y-167000000D02*
X160000000Y-167000000D01*
%TO.C,X4*%
X106000000Y-167000000D02*
X106000000Y-152500000D01*
X106000000Y-152500000D02*
X112000000Y-152500000D01*
X112000000Y-152500000D02*
X112000000Y-167000000D01*
X112000000Y-167000000D02*
X111500000Y-167000000D01*
X111500000Y-167000000D02*
X111500000Y-169500000D01*
X111500000Y-169500000D02*
X106500000Y-169500000D01*
X106500000Y-169500000D02*
X106500000Y-167000000D01*
X106500000Y-167000000D02*
X106000000Y-167000000D01*
%TO.C,X3*%
X124500000Y-167000000D02*
X124000000Y-167000000D01*
X124500000Y-169500000D02*
X124500000Y-167000000D01*
X129500000Y-169500000D02*
X124500000Y-169500000D01*
X129500000Y-167000000D02*
X129500000Y-169500000D01*
X130000000Y-167000000D02*
X129500000Y-167000000D01*
X130000000Y-152500000D02*
X130000000Y-167000000D01*
X124000000Y-152500000D02*
X130000000Y-152500000D01*
X124000000Y-167000000D02*
X124000000Y-152500000D01*
%TO.C,U2*%
X140810000Y-62770000D02*
X130650000Y-62770000D01*
X140810000Y-60230000D02*
X140810000Y-62770000D01*
X131285000Y-60230000D02*
X140810000Y-60230000D01*
X130650000Y-60865000D02*
X131285000Y-60230000D01*
X130650000Y-62770000D02*
X130650000Y-60865000D01*
%TO.C,R15*%
X154380000Y-132400000D02*
X155620000Y-132400000D01*
X154380000Y-134400000D02*
X154380000Y-132400000D01*
X155620000Y-134400000D02*
X154380000Y-134400000D01*
X155620000Y-132400000D02*
X155620000Y-134400000D01*
%TD*%
%TO.C,REF\u002A\u002A*%
D12*
X116809523Y-90152380D02*
X116809523Y-89152380D01*
X117142857Y-89866666D01*
X117476190Y-89152380D01*
X117476190Y-90152380D01*
X118095238Y-90152380D02*
X118000000Y-90104761D01*
X117952380Y-90057142D01*
X117904761Y-89961904D01*
X117904761Y-89676190D01*
X117952380Y-89580952D01*
X118000000Y-89533333D01*
X118095238Y-89485714D01*
X118238095Y-89485714D01*
X118333333Y-89533333D01*
X118380952Y-89580952D01*
X118428571Y-89676190D01*
X118428571Y-89961904D01*
X118380952Y-90057142D01*
X118333333Y-90104761D01*
X118238095Y-90152380D01*
X118095238Y-90152380D01*
X119285714Y-89485714D02*
X119285714Y-90152380D01*
X118857142Y-89485714D02*
X118857142Y-90009523D01*
X118904761Y-90104761D01*
X119000000Y-90152380D01*
X119142857Y-90152380D01*
X119238095Y-90104761D01*
X119285714Y-90057142D01*
X119761904Y-89485714D02*
X119761904Y-90152380D01*
X119761904Y-89580952D02*
X119809523Y-89533333D01*
X119904761Y-89485714D01*
X120047619Y-89485714D01*
X120142857Y-89533333D01*
X120190476Y-89628571D01*
X120190476Y-90152380D01*
X120523809Y-89485714D02*
X120904761Y-89485714D01*
X120666666Y-89152380D02*
X120666666Y-90009523D01*
X120714285Y-90104761D01*
X120809523Y-90152380D01*
X120904761Y-90152380D01*
X121238095Y-90152380D02*
X121238095Y-89485714D01*
X121238095Y-89152380D02*
X121190476Y-89200000D01*
X121238095Y-89247619D01*
X121285714Y-89200000D01*
X121238095Y-89152380D01*
X121238095Y-89247619D01*
X121714285Y-89485714D02*
X121714285Y-90152380D01*
X121714285Y-89580952D02*
X121761904Y-89533333D01*
X121857142Y-89485714D01*
X122000000Y-89485714D01*
X122095238Y-89533333D01*
X122142857Y-89628571D01*
X122142857Y-90152380D01*
X123047619Y-89485714D02*
X123047619Y-90295238D01*
X123000000Y-90390476D01*
X122952380Y-90438095D01*
X122857142Y-90485714D01*
X122714285Y-90485714D01*
X122619047Y-90438095D01*
X123047619Y-90104761D02*
X122952380Y-90152380D01*
X122761904Y-90152380D01*
X122666666Y-90104761D01*
X122619047Y-90057142D01*
X122571428Y-89961904D01*
X122571428Y-89676190D01*
X122619047Y-89580952D01*
X122666666Y-89533333D01*
X122761904Y-89485714D01*
X122952380Y-89485714D01*
X123047619Y-89533333D01*
X123523809Y-90152380D02*
X123523809Y-89152380D01*
X123523809Y-89628571D02*
X124095238Y-89628571D01*
X124095238Y-90152380D02*
X124095238Y-89152380D01*
X124714285Y-90152380D02*
X124619047Y-90104761D01*
X124571428Y-90057142D01*
X124523809Y-89961904D01*
X124523809Y-89676190D01*
X124571428Y-89580952D01*
X124619047Y-89533333D01*
X124714285Y-89485714D01*
X124857142Y-89485714D01*
X124952380Y-89533333D01*
X125000000Y-89580952D01*
X125047619Y-89676190D01*
X125047619Y-89961904D01*
X125000000Y-90057142D01*
X124952380Y-90104761D01*
X124857142Y-90152380D01*
X124714285Y-90152380D01*
X125619047Y-90152380D02*
X125523809Y-90104761D01*
X125476190Y-90009523D01*
X125476190Y-89152380D01*
X126380952Y-90104761D02*
X126285714Y-90152380D01*
X126095238Y-90152380D01*
X126000000Y-90104761D01*
X125952380Y-90009523D01*
X125952380Y-89628571D01*
X126000000Y-89533333D01*
X126095238Y-89485714D01*
X126285714Y-89485714D01*
X126380952Y-89533333D01*
X126428571Y-89628571D01*
X126428571Y-89723809D01*
X125952380Y-89819047D01*
X126619047Y-90247619D02*
X127380952Y-90247619D01*
X127571428Y-89247619D02*
X127619047Y-89200000D01*
X127714285Y-89152380D01*
X127952380Y-89152380D01*
X128047619Y-89200000D01*
X128095238Y-89247619D01*
X128142857Y-89342857D01*
X128142857Y-89438095D01*
X128095238Y-89580952D01*
X127523809Y-90152380D01*
X128142857Y-90152380D01*
X128571428Y-90057142D02*
X128619047Y-90104761D01*
X128571428Y-90152380D01*
X128523809Y-90104761D01*
X128571428Y-90057142D01*
X128571428Y-90152380D01*
X128952380Y-89152380D02*
X129619047Y-89152380D01*
X129190476Y-90152380D01*
X129999999Y-90152380D02*
X129999999Y-89485714D01*
X129999999Y-89580952D02*
X130047619Y-89533333D01*
X130142857Y-89485714D01*
X130285714Y-89485714D01*
X130380952Y-89533333D01*
X130428571Y-89628571D01*
X130428571Y-90152380D01*
X130428571Y-89628571D02*
X130476190Y-89533333D01*
X130571428Y-89485714D01*
X130714285Y-89485714D01*
X130809523Y-89533333D01*
X130857142Y-89628571D01*
X130857142Y-90152380D01*
X131333333Y-90152380D02*
X131333333Y-89485714D01*
X131333333Y-89580952D02*
X131380952Y-89533333D01*
X131476190Y-89485714D01*
X131619047Y-89485714D01*
X131714285Y-89533333D01*
X131761904Y-89628571D01*
X131761904Y-90152380D01*
X131761904Y-89628571D02*
X131809523Y-89533333D01*
X131904761Y-89485714D01*
X132047619Y-89485714D01*
X132142857Y-89533333D01*
X132190476Y-89628571D01*
X132190476Y-90152380D01*
X123466666Y-86452380D02*
X123133333Y-85976190D01*
X122895238Y-86452380D02*
X122895238Y-85452380D01*
X123276190Y-85452380D01*
X123371428Y-85500000D01*
X123419047Y-85547619D01*
X123466666Y-85642857D01*
X123466666Y-85785714D01*
X123419047Y-85880952D01*
X123371428Y-85928571D01*
X123276190Y-85976190D01*
X122895238Y-85976190D01*
X123895238Y-85928571D02*
X124228571Y-85928571D01*
X124371428Y-86452380D02*
X123895238Y-86452380D01*
X123895238Y-85452380D01*
X124371428Y-85452380D01*
X125133333Y-85928571D02*
X124800000Y-85928571D01*
X124800000Y-86452380D02*
X124800000Y-85452380D01*
X125276190Y-85452380D01*
X125800000Y-85452380D02*
X125800000Y-85690476D01*
X125561904Y-85595238D02*
X125800000Y-85690476D01*
X126038095Y-85595238D01*
X125657142Y-85880952D02*
X125800000Y-85690476D01*
X125942857Y-85880952D01*
X126561904Y-85452380D02*
X126561904Y-85690476D01*
X126323809Y-85595238D02*
X126561904Y-85690476D01*
X126800000Y-85595238D01*
X126419047Y-85880952D02*
X126561904Y-85690476D01*
X126704761Y-85880952D01*
X116809523Y-66152380D02*
X116809523Y-65152380D01*
X117142857Y-65866666D01*
X117476190Y-65152380D01*
X117476190Y-66152380D01*
X118095238Y-66152380D02*
X118000000Y-66104761D01*
X117952380Y-66057142D01*
X117904761Y-65961904D01*
X117904761Y-65676190D01*
X117952380Y-65580952D01*
X118000000Y-65533333D01*
X118095238Y-65485714D01*
X118238095Y-65485714D01*
X118333333Y-65533333D01*
X118380952Y-65580952D01*
X118428571Y-65676190D01*
X118428571Y-65961904D01*
X118380952Y-66057142D01*
X118333333Y-66104761D01*
X118238095Y-66152380D01*
X118095238Y-66152380D01*
X119285714Y-65485714D02*
X119285714Y-66152380D01*
X118857142Y-65485714D02*
X118857142Y-66009523D01*
X118904761Y-66104761D01*
X119000000Y-66152380D01*
X119142857Y-66152380D01*
X119238095Y-66104761D01*
X119285714Y-66057142D01*
X119761904Y-65485714D02*
X119761904Y-66152380D01*
X119761904Y-65580952D02*
X119809523Y-65533333D01*
X119904761Y-65485714D01*
X120047619Y-65485714D01*
X120142857Y-65533333D01*
X120190476Y-65628571D01*
X120190476Y-66152380D01*
X120523809Y-65485714D02*
X120904761Y-65485714D01*
X120666666Y-65152380D02*
X120666666Y-66009523D01*
X120714285Y-66104761D01*
X120809523Y-66152380D01*
X120904761Y-66152380D01*
X121238095Y-66152380D02*
X121238095Y-65485714D01*
X121238095Y-65152380D02*
X121190476Y-65200000D01*
X121238095Y-65247619D01*
X121285714Y-65200000D01*
X121238095Y-65152380D01*
X121238095Y-65247619D01*
X121714285Y-65485714D02*
X121714285Y-66152380D01*
X121714285Y-65580952D02*
X121761904Y-65533333D01*
X121857142Y-65485714D01*
X122000000Y-65485714D01*
X122095238Y-65533333D01*
X122142857Y-65628571D01*
X122142857Y-66152380D01*
X123047619Y-65485714D02*
X123047619Y-66295238D01*
X123000000Y-66390476D01*
X122952380Y-66438095D01*
X122857142Y-66485714D01*
X122714285Y-66485714D01*
X122619047Y-66438095D01*
X123047619Y-66104761D02*
X122952380Y-66152380D01*
X122761904Y-66152380D01*
X122666666Y-66104761D01*
X122619047Y-66057142D01*
X122571428Y-65961904D01*
X122571428Y-65676190D01*
X122619047Y-65580952D01*
X122666666Y-65533333D01*
X122761904Y-65485714D01*
X122952380Y-65485714D01*
X123047619Y-65533333D01*
X123523809Y-66152380D02*
X123523809Y-65152380D01*
X123523809Y-65628571D02*
X124095238Y-65628571D01*
X124095238Y-66152380D02*
X124095238Y-65152380D01*
X124714285Y-66152380D02*
X124619047Y-66104761D01*
X124571428Y-66057142D01*
X124523809Y-65961904D01*
X124523809Y-65676190D01*
X124571428Y-65580952D01*
X124619047Y-65533333D01*
X124714285Y-65485714D01*
X124857142Y-65485714D01*
X124952380Y-65533333D01*
X125000000Y-65580952D01*
X125047619Y-65676190D01*
X125047619Y-65961904D01*
X125000000Y-66057142D01*
X124952380Y-66104761D01*
X124857142Y-66152380D01*
X124714285Y-66152380D01*
X125619047Y-66152380D02*
X125523809Y-66104761D01*
X125476190Y-66009523D01*
X125476190Y-65152380D01*
X126380952Y-66104761D02*
X126285714Y-66152380D01*
X126095238Y-66152380D01*
X126000000Y-66104761D01*
X125952380Y-66009523D01*
X125952380Y-65628571D01*
X126000000Y-65533333D01*
X126095238Y-65485714D01*
X126285714Y-65485714D01*
X126380952Y-65533333D01*
X126428571Y-65628571D01*
X126428571Y-65723809D01*
X125952380Y-65819047D01*
X126619047Y-66247619D02*
X127380952Y-66247619D01*
X127571428Y-65247619D02*
X127619047Y-65200000D01*
X127714285Y-65152380D01*
X127952380Y-65152380D01*
X128047619Y-65200000D01*
X128095238Y-65247619D01*
X128142857Y-65342857D01*
X128142857Y-65438095D01*
X128095238Y-65580952D01*
X127523809Y-66152380D01*
X128142857Y-66152380D01*
X128571428Y-66057142D02*
X128619047Y-66104761D01*
X128571428Y-66152380D01*
X128523809Y-66104761D01*
X128571428Y-66057142D01*
X128571428Y-66152380D01*
X128952380Y-65152380D02*
X129619047Y-65152380D01*
X129190476Y-66152380D01*
X129999999Y-66152380D02*
X129999999Y-65485714D01*
X129999999Y-65580952D02*
X130047619Y-65533333D01*
X130142857Y-65485714D01*
X130285714Y-65485714D01*
X130380952Y-65533333D01*
X130428571Y-65628571D01*
X130428571Y-66152380D01*
X130428571Y-65628571D02*
X130476190Y-65533333D01*
X130571428Y-65485714D01*
X130714285Y-65485714D01*
X130809523Y-65533333D01*
X130857142Y-65628571D01*
X130857142Y-66152380D01*
X131333333Y-66152380D02*
X131333333Y-65485714D01*
X131333333Y-65580952D02*
X131380952Y-65533333D01*
X131476190Y-65485714D01*
X131619047Y-65485714D01*
X131714285Y-65533333D01*
X131761904Y-65628571D01*
X131761904Y-66152380D01*
X131761904Y-65628571D02*
X131809523Y-65533333D01*
X131904761Y-65485714D01*
X132047619Y-65485714D01*
X132142857Y-65533333D01*
X132190476Y-65628571D01*
X132190476Y-66152380D01*
X123466666Y-62452380D02*
X123133333Y-61976190D01*
X122895238Y-62452380D02*
X122895238Y-61452380D01*
X123276190Y-61452380D01*
X123371428Y-61500000D01*
X123419047Y-61547619D01*
X123466666Y-61642857D01*
X123466666Y-61785714D01*
X123419047Y-61880952D01*
X123371428Y-61928571D01*
X123276190Y-61976190D01*
X122895238Y-61976190D01*
X123895238Y-61928571D02*
X124228571Y-61928571D01*
X124371428Y-62452380D02*
X123895238Y-62452380D01*
X123895238Y-61452380D01*
X124371428Y-61452380D01*
X125133333Y-61928571D02*
X124800000Y-61928571D01*
X124800000Y-62452380D02*
X124800000Y-61452380D01*
X125276190Y-61452380D01*
X125800000Y-61452380D02*
X125800000Y-61690476D01*
X125561904Y-61595238D02*
X125800000Y-61690476D01*
X126038095Y-61595238D01*
X125657142Y-61880952D02*
X125800000Y-61690476D01*
X125942857Y-61880952D01*
X126561904Y-61452380D02*
X126561904Y-61690476D01*
X126323809Y-61595238D02*
X126561904Y-61690476D01*
X126800000Y-61595238D01*
X126419047Y-61880952D02*
X126561904Y-61690476D01*
X126704761Y-61880952D01*
X139809523Y-90152380D02*
X139809523Y-89152380D01*
X140142857Y-89866666D01*
X140476190Y-89152380D01*
X140476190Y-90152380D01*
X141095238Y-90152380D02*
X141000000Y-90104761D01*
X140952380Y-90057142D01*
X140904761Y-89961904D01*
X140904761Y-89676190D01*
X140952380Y-89580952D01*
X141000000Y-89533333D01*
X141095238Y-89485714D01*
X141238095Y-89485714D01*
X141333333Y-89533333D01*
X141380952Y-89580952D01*
X141428571Y-89676190D01*
X141428571Y-89961904D01*
X141380952Y-90057142D01*
X141333333Y-90104761D01*
X141238095Y-90152380D01*
X141095238Y-90152380D01*
X142285714Y-89485714D02*
X142285714Y-90152380D01*
X141857142Y-89485714D02*
X141857142Y-90009523D01*
X141904761Y-90104761D01*
X142000000Y-90152380D01*
X142142857Y-90152380D01*
X142238095Y-90104761D01*
X142285714Y-90057142D01*
X142761904Y-89485714D02*
X142761904Y-90152380D01*
X142761904Y-89580952D02*
X142809523Y-89533333D01*
X142904761Y-89485714D01*
X143047619Y-89485714D01*
X143142857Y-89533333D01*
X143190476Y-89628571D01*
X143190476Y-90152380D01*
X143523809Y-89485714D02*
X143904761Y-89485714D01*
X143666666Y-89152380D02*
X143666666Y-90009523D01*
X143714285Y-90104761D01*
X143809523Y-90152380D01*
X143904761Y-90152380D01*
X144238095Y-90152380D02*
X144238095Y-89485714D01*
X144238095Y-89152380D02*
X144190476Y-89200000D01*
X144238095Y-89247619D01*
X144285714Y-89200000D01*
X144238095Y-89152380D01*
X144238095Y-89247619D01*
X144714285Y-89485714D02*
X144714285Y-90152380D01*
X144714285Y-89580952D02*
X144761904Y-89533333D01*
X144857142Y-89485714D01*
X145000000Y-89485714D01*
X145095238Y-89533333D01*
X145142857Y-89628571D01*
X145142857Y-90152380D01*
X146047619Y-89485714D02*
X146047619Y-90295238D01*
X146000000Y-90390476D01*
X145952380Y-90438095D01*
X145857142Y-90485714D01*
X145714285Y-90485714D01*
X145619047Y-90438095D01*
X146047619Y-90104761D02*
X145952380Y-90152380D01*
X145761904Y-90152380D01*
X145666666Y-90104761D01*
X145619047Y-90057142D01*
X145571428Y-89961904D01*
X145571428Y-89676190D01*
X145619047Y-89580952D01*
X145666666Y-89533333D01*
X145761904Y-89485714D01*
X145952380Y-89485714D01*
X146047619Y-89533333D01*
X146523809Y-90152380D02*
X146523809Y-89152380D01*
X146523809Y-89628571D02*
X147095238Y-89628571D01*
X147095238Y-90152380D02*
X147095238Y-89152380D01*
X147714285Y-90152380D02*
X147619047Y-90104761D01*
X147571428Y-90057142D01*
X147523809Y-89961904D01*
X147523809Y-89676190D01*
X147571428Y-89580952D01*
X147619047Y-89533333D01*
X147714285Y-89485714D01*
X147857142Y-89485714D01*
X147952380Y-89533333D01*
X148000000Y-89580952D01*
X148047619Y-89676190D01*
X148047619Y-89961904D01*
X148000000Y-90057142D01*
X147952380Y-90104761D01*
X147857142Y-90152380D01*
X147714285Y-90152380D01*
X148619047Y-90152380D02*
X148523809Y-90104761D01*
X148476190Y-90009523D01*
X148476190Y-89152380D01*
X149380952Y-90104761D02*
X149285714Y-90152380D01*
X149095238Y-90152380D01*
X149000000Y-90104761D01*
X148952380Y-90009523D01*
X148952380Y-89628571D01*
X149000000Y-89533333D01*
X149095238Y-89485714D01*
X149285714Y-89485714D01*
X149380952Y-89533333D01*
X149428571Y-89628571D01*
X149428571Y-89723809D01*
X148952380Y-89819047D01*
X149619047Y-90247619D02*
X150380952Y-90247619D01*
X150571428Y-89247619D02*
X150619047Y-89200000D01*
X150714285Y-89152380D01*
X150952380Y-89152380D01*
X151047619Y-89200000D01*
X151095238Y-89247619D01*
X151142857Y-89342857D01*
X151142857Y-89438095D01*
X151095238Y-89580952D01*
X150523809Y-90152380D01*
X151142857Y-90152380D01*
X151571428Y-90057142D02*
X151619047Y-90104761D01*
X151571428Y-90152380D01*
X151523809Y-90104761D01*
X151571428Y-90057142D01*
X151571428Y-90152380D01*
X151952380Y-89152380D02*
X152619047Y-89152380D01*
X152190476Y-90152380D01*
X153000000Y-90152380D02*
X153000000Y-89485714D01*
X153000000Y-89580952D02*
X153047619Y-89533333D01*
X153142857Y-89485714D01*
X153285714Y-89485714D01*
X153380952Y-89533333D01*
X153428571Y-89628571D01*
X153428571Y-90152380D01*
X153428571Y-89628571D02*
X153476190Y-89533333D01*
X153571428Y-89485714D01*
X153714285Y-89485714D01*
X153809523Y-89533333D01*
X153857142Y-89628571D01*
X153857142Y-90152380D01*
X154333333Y-90152380D02*
X154333333Y-89485714D01*
X154333333Y-89580952D02*
X154380952Y-89533333D01*
X154476190Y-89485714D01*
X154619047Y-89485714D01*
X154714285Y-89533333D01*
X154761904Y-89628571D01*
X154761904Y-90152380D01*
X154761904Y-89628571D02*
X154809523Y-89533333D01*
X154904761Y-89485714D01*
X155047619Y-89485714D01*
X155142857Y-89533333D01*
X155190476Y-89628571D01*
X155190476Y-90152380D01*
X146466666Y-86452380D02*
X146133333Y-85976190D01*
X145895238Y-86452380D02*
X145895238Y-85452380D01*
X146276190Y-85452380D01*
X146371428Y-85500000D01*
X146419047Y-85547619D01*
X146466666Y-85642857D01*
X146466666Y-85785714D01*
X146419047Y-85880952D01*
X146371428Y-85928571D01*
X146276190Y-85976190D01*
X145895238Y-85976190D01*
X146895238Y-85928571D02*
X147228571Y-85928571D01*
X147371428Y-86452380D02*
X146895238Y-86452380D01*
X146895238Y-85452380D01*
X147371428Y-85452380D01*
X148133333Y-85928571D02*
X147800000Y-85928571D01*
X147800000Y-86452380D02*
X147800000Y-85452380D01*
X148276190Y-85452380D01*
X148800000Y-85452380D02*
X148800000Y-85690476D01*
X148561904Y-85595238D02*
X148800000Y-85690476D01*
X149038095Y-85595238D01*
X148657142Y-85880952D02*
X148800000Y-85690476D01*
X148942857Y-85880952D01*
X149561904Y-85452380D02*
X149561904Y-85690476D01*
X149323809Y-85595238D02*
X149561904Y-85690476D01*
X149800000Y-85595238D01*
X149419047Y-85880952D02*
X149561904Y-85690476D01*
X149704761Y-85880952D01*
X139809523Y-66152380D02*
X139809523Y-65152380D01*
X140142857Y-65866666D01*
X140476190Y-65152380D01*
X140476190Y-66152380D01*
X141095238Y-66152380D02*
X141000000Y-66104761D01*
X140952380Y-66057142D01*
X140904761Y-65961904D01*
X140904761Y-65676190D01*
X140952380Y-65580952D01*
X141000000Y-65533333D01*
X141095238Y-65485714D01*
X141238095Y-65485714D01*
X141333333Y-65533333D01*
X141380952Y-65580952D01*
X141428571Y-65676190D01*
X141428571Y-65961904D01*
X141380952Y-66057142D01*
X141333333Y-66104761D01*
X141238095Y-66152380D01*
X141095238Y-66152380D01*
X142285714Y-65485714D02*
X142285714Y-66152380D01*
X141857142Y-65485714D02*
X141857142Y-66009523D01*
X141904761Y-66104761D01*
X142000000Y-66152380D01*
X142142857Y-66152380D01*
X142238095Y-66104761D01*
X142285714Y-66057142D01*
X142761904Y-65485714D02*
X142761904Y-66152380D01*
X142761904Y-65580952D02*
X142809523Y-65533333D01*
X142904761Y-65485714D01*
X143047619Y-65485714D01*
X143142857Y-65533333D01*
X143190476Y-65628571D01*
X143190476Y-66152380D01*
X143523809Y-65485714D02*
X143904761Y-65485714D01*
X143666666Y-65152380D02*
X143666666Y-66009523D01*
X143714285Y-66104761D01*
X143809523Y-66152380D01*
X143904761Y-66152380D01*
X144238095Y-66152380D02*
X144238095Y-65485714D01*
X144238095Y-65152380D02*
X144190476Y-65200000D01*
X144238095Y-65247619D01*
X144285714Y-65200000D01*
X144238095Y-65152380D01*
X144238095Y-65247619D01*
X144714285Y-65485714D02*
X144714285Y-66152380D01*
X144714285Y-65580952D02*
X144761904Y-65533333D01*
X144857142Y-65485714D01*
X145000000Y-65485714D01*
X145095238Y-65533333D01*
X145142857Y-65628571D01*
X145142857Y-66152380D01*
X146047619Y-65485714D02*
X146047619Y-66295238D01*
X146000000Y-66390476D01*
X145952380Y-66438095D01*
X145857142Y-66485714D01*
X145714285Y-66485714D01*
X145619047Y-66438095D01*
X146047619Y-66104761D02*
X145952380Y-66152380D01*
X145761904Y-66152380D01*
X145666666Y-66104761D01*
X145619047Y-66057142D01*
X145571428Y-65961904D01*
X145571428Y-65676190D01*
X145619047Y-65580952D01*
X145666666Y-65533333D01*
X145761904Y-65485714D01*
X145952380Y-65485714D01*
X146047619Y-65533333D01*
X146523809Y-66152380D02*
X146523809Y-65152380D01*
X146523809Y-65628571D02*
X147095238Y-65628571D01*
X147095238Y-66152380D02*
X147095238Y-65152380D01*
X147714285Y-66152380D02*
X147619047Y-66104761D01*
X147571428Y-66057142D01*
X147523809Y-65961904D01*
X147523809Y-65676190D01*
X147571428Y-65580952D01*
X147619047Y-65533333D01*
X147714285Y-65485714D01*
X147857142Y-65485714D01*
X147952380Y-65533333D01*
X148000000Y-65580952D01*
X148047619Y-65676190D01*
X148047619Y-65961904D01*
X148000000Y-66057142D01*
X147952380Y-66104761D01*
X147857142Y-66152380D01*
X147714285Y-66152380D01*
X148619047Y-66152380D02*
X148523809Y-66104761D01*
X148476190Y-66009523D01*
X148476190Y-65152380D01*
X149380952Y-66104761D02*
X149285714Y-66152380D01*
X149095238Y-66152380D01*
X149000000Y-66104761D01*
X148952380Y-66009523D01*
X148952380Y-65628571D01*
X149000000Y-65533333D01*
X149095238Y-65485714D01*
X149285714Y-65485714D01*
X149380952Y-65533333D01*
X149428571Y-65628571D01*
X149428571Y-65723809D01*
X148952380Y-65819047D01*
X149619047Y-66247619D02*
X150380952Y-66247619D01*
X150571428Y-65247619D02*
X150619047Y-65200000D01*
X150714285Y-65152380D01*
X150952380Y-65152380D01*
X151047619Y-65200000D01*
X151095238Y-65247619D01*
X151142857Y-65342857D01*
X151142857Y-65438095D01*
X151095238Y-65580952D01*
X150523809Y-66152380D01*
X151142857Y-66152380D01*
X151571428Y-66057142D02*
X151619047Y-66104761D01*
X151571428Y-66152380D01*
X151523809Y-66104761D01*
X151571428Y-66057142D01*
X151571428Y-66152380D01*
X151952380Y-65152380D02*
X152619047Y-65152380D01*
X152190476Y-66152380D01*
X153000000Y-66152380D02*
X153000000Y-65485714D01*
X153000000Y-65580952D02*
X153047619Y-65533333D01*
X153142857Y-65485714D01*
X153285714Y-65485714D01*
X153380952Y-65533333D01*
X153428571Y-65628571D01*
X153428571Y-66152380D01*
X153428571Y-65628571D02*
X153476190Y-65533333D01*
X153571428Y-65485714D01*
X153714285Y-65485714D01*
X153809523Y-65533333D01*
X153857142Y-65628571D01*
X153857142Y-66152380D01*
X154333333Y-66152380D02*
X154333333Y-65485714D01*
X154333333Y-65580952D02*
X154380952Y-65533333D01*
X154476190Y-65485714D01*
X154619047Y-65485714D01*
X154714285Y-65533333D01*
X154761904Y-65628571D01*
X154761904Y-66152380D01*
X154761904Y-65628571D02*
X154809523Y-65533333D01*
X154904761Y-65485714D01*
X155047619Y-65485714D01*
X155142857Y-65533333D01*
X155190476Y-65628571D01*
X155190476Y-66152380D01*
X146466666Y-62452380D02*
X146133333Y-61976190D01*
X145895238Y-62452380D02*
X145895238Y-61452380D01*
X146276190Y-61452380D01*
X146371428Y-61500000D01*
X146419047Y-61547619D01*
X146466666Y-61642857D01*
X146466666Y-61785714D01*
X146419047Y-61880952D01*
X146371428Y-61928571D01*
X146276190Y-61976190D01*
X145895238Y-61976190D01*
X146895238Y-61928571D02*
X147228571Y-61928571D01*
X147371428Y-62452380D02*
X146895238Y-62452380D01*
X146895238Y-61452380D01*
X147371428Y-61452380D01*
X148133333Y-61928571D02*
X147800000Y-61928571D01*
X147800000Y-62452380D02*
X147800000Y-61452380D01*
X148276190Y-61452380D01*
X148800000Y-61452380D02*
X148800000Y-61690476D01*
X148561904Y-61595238D02*
X148800000Y-61690476D01*
X149038095Y-61595238D01*
X148657142Y-61880952D02*
X148800000Y-61690476D01*
X148942857Y-61880952D01*
X149561904Y-61452380D02*
X149561904Y-61690476D01*
X149323809Y-61595238D02*
X149561904Y-61690476D01*
X149800000Y-61595238D01*
X149419047Y-61880952D02*
X149561904Y-61690476D01*
X149704761Y-61880952D01*
%TO.C,C16*%
X111202380Y-145119047D02*
X111202380Y-145690476D01*
X111202380Y-145404761D02*
X110202380Y-145404761D01*
X110345238Y-145500000D01*
X110440476Y-145595238D01*
X110488095Y-145690476D01*
X110202380Y-144500000D02*
X110202380Y-144404761D01*
X110250000Y-144309523D01*
X110297619Y-144261904D01*
X110392857Y-144214285D01*
X110583333Y-144166666D01*
X110821428Y-144166666D01*
X111011904Y-144214285D01*
X111107142Y-144261904D01*
X111154761Y-144309523D01*
X111202380Y-144404761D01*
X111202380Y-144500000D01*
X111154761Y-144595238D01*
X111107142Y-144642857D01*
X111011904Y-144690476D01*
X110821428Y-144738095D01*
X110583333Y-144738095D01*
X110392857Y-144690476D01*
X110297619Y-144642857D01*
X110250000Y-144595238D01*
X110202380Y-144500000D01*
X110202380Y-143547619D02*
X110202380Y-143452380D01*
X110250000Y-143357142D01*
X110297619Y-143309523D01*
X110392857Y-143261904D01*
X110583333Y-143214285D01*
X110821428Y-143214285D01*
X111011904Y-143261904D01*
X111107142Y-143309523D01*
X111154761Y-143357142D01*
X111202380Y-143452380D01*
X111202380Y-143547619D01*
X111154761Y-143642857D01*
X111107142Y-143690476D01*
X111011904Y-143738095D01*
X110821428Y-143785714D01*
X110583333Y-143785714D01*
X110392857Y-143738095D01*
X110297619Y-143690476D01*
X110250000Y-143642857D01*
X110202380Y-143547619D01*
X110535714Y-142785714D02*
X111535714Y-142785714D01*
X111059523Y-142309523D02*
X111154761Y-142261904D01*
X111202380Y-142166666D01*
X111059523Y-142785714D02*
X111154761Y-142738095D01*
X111202380Y-142642857D01*
X111202380Y-142452380D01*
X111154761Y-142357142D01*
X111059523Y-142309523D01*
X110535714Y-142309523D01*
X110678571Y-141404761D02*
X110678571Y-141738095D01*
X111202380Y-141738095D02*
X110202380Y-141738095D01*
X110202380Y-141261904D01*
X117357142Y-144142857D02*
X117404761Y-144190476D01*
X117452380Y-144333333D01*
X117452380Y-144428571D01*
X117404761Y-144571428D01*
X117309523Y-144666666D01*
X117214285Y-144714285D01*
X117023809Y-144761904D01*
X116880952Y-144761904D01*
X116690476Y-144714285D01*
X116595238Y-144666666D01*
X116500000Y-144571428D01*
X116452380Y-144428571D01*
X116452380Y-144333333D01*
X116500000Y-144190476D01*
X116547619Y-144142857D01*
X117452380Y-143190476D02*
X117452380Y-143761904D01*
X117452380Y-143476190D02*
X116452380Y-143476190D01*
X116595238Y-143571428D01*
X116690476Y-143666666D01*
X116738095Y-143761904D01*
X116452380Y-142333333D02*
X116452380Y-142523809D01*
X116500000Y-142619047D01*
X116547619Y-142666666D01*
X116690476Y-142761904D01*
X116880952Y-142809523D01*
X117261904Y-142809523D01*
X117357142Y-142761904D01*
X117404761Y-142714285D01*
X117452380Y-142619047D01*
X117452380Y-142428571D01*
X117404761Y-142333333D01*
X117357142Y-142285714D01*
X117261904Y-142238095D01*
X117023809Y-142238095D01*
X116928571Y-142285714D01*
X116880952Y-142333333D01*
X116833333Y-142428571D01*
X116833333Y-142619047D01*
X116880952Y-142714285D01*
X116928571Y-142761904D01*
X117023809Y-142809523D01*
%TO.C,Y1*%
X142902380Y-125238095D02*
X142902380Y-125809523D01*
X142902380Y-125523809D02*
X141902380Y-125523809D01*
X142045238Y-125619047D01*
X142140476Y-125714285D01*
X142188095Y-125809523D01*
X141997619Y-124857142D02*
X141950000Y-124809523D01*
X141902380Y-124714285D01*
X141902380Y-124476190D01*
X141950000Y-124380952D01*
X141997619Y-124333333D01*
X142092857Y-124285714D01*
X142188095Y-124285714D01*
X142330952Y-124333333D01*
X142902380Y-124904761D01*
X142902380Y-124285714D01*
X142807142Y-123857142D02*
X142854761Y-123809523D01*
X142902380Y-123857142D01*
X142854761Y-123904761D01*
X142807142Y-123857142D01*
X142902380Y-123857142D01*
X141997619Y-123428571D02*
X141950000Y-123380952D01*
X141902380Y-123285714D01*
X141902380Y-123047619D01*
X141950000Y-122952380D01*
X141997619Y-122904761D01*
X142092857Y-122857142D01*
X142188095Y-122857142D01*
X142330952Y-122904761D01*
X142902380Y-123476190D01*
X142902380Y-122857142D01*
X142330952Y-122285714D02*
X142283333Y-122380952D01*
X142235714Y-122428571D01*
X142140476Y-122476190D01*
X142092857Y-122476190D01*
X141997619Y-122428571D01*
X141950000Y-122380952D01*
X141902380Y-122285714D01*
X141902380Y-122095238D01*
X141950000Y-122000000D01*
X141997619Y-121952380D01*
X142092857Y-121904761D01*
X142140476Y-121904761D01*
X142235714Y-121952380D01*
X142283333Y-122000000D01*
X142330952Y-122095238D01*
X142330952Y-122285714D01*
X142378571Y-122380952D01*
X142426190Y-122428571D01*
X142521428Y-122476190D01*
X142711904Y-122476190D01*
X142807142Y-122428571D01*
X142854761Y-122380952D01*
X142902380Y-122285714D01*
X142902380Y-122095238D01*
X142854761Y-122000000D01*
X142807142Y-121952380D01*
X142711904Y-121904761D01*
X142521428Y-121904761D01*
X142426190Y-121952380D01*
X142378571Y-122000000D01*
X142330952Y-122095238D01*
X142330952Y-121333333D02*
X142283333Y-121428571D01*
X142235714Y-121476190D01*
X142140476Y-121523809D01*
X142092857Y-121523809D01*
X141997619Y-121476190D01*
X141950000Y-121428571D01*
X141902380Y-121333333D01*
X141902380Y-121142857D01*
X141950000Y-121047619D01*
X141997619Y-121000000D01*
X142092857Y-120952380D01*
X142140476Y-120952380D01*
X142235714Y-121000000D01*
X142283333Y-121047619D01*
X142330952Y-121142857D01*
X142330952Y-121333333D01*
X142378571Y-121428571D01*
X142426190Y-121476190D01*
X142521428Y-121523809D01*
X142711904Y-121523809D01*
X142807142Y-121476190D01*
X142854761Y-121428571D01*
X142902380Y-121333333D01*
X142902380Y-121142857D01*
X142854761Y-121047619D01*
X142807142Y-121000000D01*
X142711904Y-120952380D01*
X142521428Y-120952380D01*
X142426190Y-121000000D01*
X142378571Y-121047619D01*
X142330952Y-121142857D01*
X142902380Y-119761904D02*
X141902380Y-119761904D01*
X142616666Y-119428571D01*
X141902380Y-119095238D01*
X142902380Y-119095238D01*
X142902380Y-118619047D02*
X141902380Y-118619047D01*
X142378571Y-118619047D02*
X142378571Y-118047619D01*
X142902380Y-118047619D02*
X141902380Y-118047619D01*
X142235714Y-117666666D02*
X142235714Y-117142857D01*
X142902380Y-117666666D01*
X142902380Y-117142857D01*
X145976190Y-121976190D02*
X146452380Y-121976190D01*
X145452380Y-122309523D02*
X145976190Y-121976190D01*
X145452380Y-121642857D01*
X146452380Y-120785714D02*
X146452380Y-121357142D01*
X146452380Y-121071428D02*
X145452380Y-121071428D01*
X145595238Y-121166666D01*
X145690476Y-121261904D01*
X145738095Y-121357142D01*
%TO.C,C1*%
X154602380Y-151666666D02*
X154602380Y-152238095D01*
X154602380Y-151952380D02*
X153602380Y-151952380D01*
X153745238Y-152047619D01*
X153840476Y-152142857D01*
X153888095Y-152238095D01*
X153935714Y-151238095D02*
X154935714Y-151238095D01*
X154459523Y-150761904D02*
X154554761Y-150714285D01*
X154602380Y-150619047D01*
X154459523Y-151238095D02*
X154554761Y-151190476D01*
X154602380Y-151095238D01*
X154602380Y-150904761D01*
X154554761Y-150809523D01*
X154459523Y-150761904D01*
X153935714Y-150761904D01*
X154078571Y-149857142D02*
X154078571Y-150190476D01*
X154602380Y-150190476D02*
X153602380Y-150190476D01*
X153602380Y-149714285D01*
D13*
X152678571Y-151083333D02*
X152702380Y-151107142D01*
X152726190Y-151178571D01*
X152726190Y-151226190D01*
X152702380Y-151297619D01*
X152654761Y-151345238D01*
X152607142Y-151369047D01*
X152511904Y-151392857D01*
X152440476Y-151392857D01*
X152345238Y-151369047D01*
X152297619Y-151345238D01*
X152250000Y-151297619D01*
X152226190Y-151226190D01*
X152226190Y-151178571D01*
X152250000Y-151107142D01*
X152273809Y-151083333D01*
X152726190Y-150607142D02*
X152726190Y-150892857D01*
X152726190Y-150750000D02*
X152226190Y-150750000D01*
X152297619Y-150797619D01*
X152345238Y-150845238D01*
X152369047Y-150892857D01*
%TO.C,C3*%
D12*
X138857142Y-121602380D02*
X138285714Y-121602380D01*
X138571428Y-121602380D02*
X138571428Y-120602380D01*
X138476190Y-120745238D01*
X138380952Y-120840476D01*
X138285714Y-120888095D01*
X139476190Y-120602380D02*
X139571428Y-120602380D01*
X139666666Y-120650000D01*
X139714285Y-120697619D01*
X139761904Y-120792857D01*
X139809523Y-120983333D01*
X139809523Y-121221428D01*
X139761904Y-121411904D01*
X139714285Y-121507142D01*
X139666666Y-121554761D01*
X139571428Y-121602380D01*
X139476190Y-121602380D01*
X139380952Y-121554761D01*
X139333333Y-121507142D01*
X139285714Y-121411904D01*
X139238095Y-121221428D01*
X139238095Y-120983333D01*
X139285714Y-120792857D01*
X139333333Y-120697619D01*
X139380952Y-120650000D01*
X139476190Y-120602380D01*
X140238095Y-120935714D02*
X140238095Y-121935714D01*
X140714285Y-121459523D02*
X140761904Y-121554761D01*
X140857142Y-121602380D01*
X140238095Y-121459523D02*
X140285714Y-121554761D01*
X140380952Y-121602380D01*
X140571428Y-121602380D01*
X140666666Y-121554761D01*
X140714285Y-121459523D01*
X140714285Y-120935714D01*
X141619047Y-121078571D02*
X141285714Y-121078571D01*
X141285714Y-121602380D02*
X141285714Y-120602380D01*
X141761904Y-120602380D01*
D13*
X139916666Y-119678571D02*
X139892857Y-119702380D01*
X139821428Y-119726190D01*
X139773809Y-119726190D01*
X139702380Y-119702380D01*
X139654761Y-119654761D01*
X139630952Y-119607142D01*
X139607142Y-119511904D01*
X139607142Y-119440476D01*
X139630952Y-119345238D01*
X139654761Y-119297619D01*
X139702380Y-119250000D01*
X139773809Y-119226190D01*
X139821428Y-119226190D01*
X139892857Y-119250000D01*
X139916666Y-119273809D01*
X140083333Y-119226190D02*
X140392857Y-119226190D01*
X140226190Y-119416666D01*
X140297619Y-119416666D01*
X140345238Y-119440476D01*
X140369047Y-119464285D01*
X140392857Y-119511904D01*
X140392857Y-119630952D01*
X140369047Y-119678571D01*
X140345238Y-119702380D01*
X140297619Y-119726190D01*
X140154761Y-119726190D01*
X140107142Y-119702380D01*
X140083333Y-119678571D01*
%TO.C,C4*%
D12*
X127302380Y-132642857D02*
X127302380Y-133214285D01*
X127302380Y-132928571D02*
X126302380Y-132928571D01*
X126445238Y-133023809D01*
X126540476Y-133119047D01*
X126588095Y-133214285D01*
X126302380Y-132023809D02*
X126302380Y-131928571D01*
X126350000Y-131833333D01*
X126397619Y-131785714D01*
X126492857Y-131738095D01*
X126683333Y-131690476D01*
X126921428Y-131690476D01*
X127111904Y-131738095D01*
X127207142Y-131785714D01*
X127254761Y-131833333D01*
X127302380Y-131928571D01*
X127302380Y-132023809D01*
X127254761Y-132119047D01*
X127207142Y-132166666D01*
X127111904Y-132214285D01*
X126921428Y-132261904D01*
X126683333Y-132261904D01*
X126492857Y-132214285D01*
X126397619Y-132166666D01*
X126350000Y-132119047D01*
X126302380Y-132023809D01*
X126635714Y-131261904D02*
X127635714Y-131261904D01*
X127159523Y-130785714D02*
X127254761Y-130738095D01*
X127302380Y-130642857D01*
X127159523Y-131261904D02*
X127254761Y-131214285D01*
X127302380Y-131119047D01*
X127302380Y-130928571D01*
X127254761Y-130833333D01*
X127159523Y-130785714D01*
X126635714Y-130785714D01*
X126778571Y-129880952D02*
X126778571Y-130214285D01*
X127302380Y-130214285D02*
X126302380Y-130214285D01*
X126302380Y-129738095D01*
D13*
X128678571Y-131583333D02*
X128702380Y-131607142D01*
X128726190Y-131678571D01*
X128726190Y-131726190D01*
X128702380Y-131797619D01*
X128654761Y-131845238D01*
X128607142Y-131869047D01*
X128511904Y-131892857D01*
X128440476Y-131892857D01*
X128345238Y-131869047D01*
X128297619Y-131845238D01*
X128250000Y-131797619D01*
X128226190Y-131726190D01*
X128226190Y-131678571D01*
X128250000Y-131607142D01*
X128273809Y-131583333D01*
X128392857Y-131154761D02*
X128726190Y-131154761D01*
X128202380Y-131273809D02*
X128559523Y-131392857D01*
X128559523Y-131083333D01*
%TO.C,C2*%
D12*
X152935714Y-160238095D02*
X153602380Y-160238095D01*
X152554761Y-160476190D02*
X153269047Y-160714285D01*
X153269047Y-160095238D01*
X152602380Y-159809523D02*
X152602380Y-159142857D01*
X153602380Y-159571428D01*
X152935714Y-158761904D02*
X153935714Y-158761904D01*
X152983333Y-158761904D02*
X152935714Y-158666666D01*
X152935714Y-158476190D01*
X152983333Y-158380952D01*
X153030952Y-158333333D01*
X153126190Y-158285714D01*
X153411904Y-158285714D01*
X153507142Y-158333333D01*
X153554761Y-158380952D01*
X153602380Y-158476190D01*
X153602380Y-158666666D01*
X153554761Y-158761904D01*
D13*
X151678571Y-159583333D02*
X151702380Y-159607142D01*
X151726190Y-159678571D01*
X151726190Y-159726190D01*
X151702380Y-159797619D01*
X151654761Y-159845238D01*
X151607142Y-159869047D01*
X151511904Y-159892857D01*
X151440476Y-159892857D01*
X151345238Y-159869047D01*
X151297619Y-159845238D01*
X151250000Y-159797619D01*
X151226190Y-159726190D01*
X151226190Y-159678571D01*
X151250000Y-159607142D01*
X151273809Y-159583333D01*
X151273809Y-159392857D02*
X151250000Y-159369047D01*
X151226190Y-159321428D01*
X151226190Y-159202380D01*
X151250000Y-159154761D01*
X151273809Y-159130952D01*
X151321428Y-159107142D01*
X151369047Y-159107142D01*
X151440476Y-159130952D01*
X151726190Y-159416666D01*
X151726190Y-159107142D01*
%TO.C,C5*%
D12*
X138452380Y-123602380D02*
X137880952Y-123602380D01*
X138166666Y-123602380D02*
X138166666Y-122602380D01*
X138071428Y-122745238D01*
X137976190Y-122840476D01*
X137880952Y-122888095D01*
X139071428Y-122602380D02*
X139166666Y-122602380D01*
X139261904Y-122650000D01*
X139309523Y-122697619D01*
X139357142Y-122792857D01*
X139404761Y-122983333D01*
X139404761Y-123221428D01*
X139357142Y-123411904D01*
X139309523Y-123507142D01*
X139261904Y-123554761D01*
X139166666Y-123602380D01*
X139071428Y-123602380D01*
X138976190Y-123554761D01*
X138928571Y-123507142D01*
X138880952Y-123411904D01*
X138833333Y-123221428D01*
X138833333Y-122983333D01*
X138880952Y-122792857D01*
X138928571Y-122697619D01*
X138976190Y-122650000D01*
X139071428Y-122602380D01*
X140023809Y-122602380D02*
X140119047Y-122602380D01*
X140214285Y-122650000D01*
X140261904Y-122697619D01*
X140309523Y-122792857D01*
X140357142Y-122983333D01*
X140357142Y-123221428D01*
X140309523Y-123411904D01*
X140261904Y-123507142D01*
X140214285Y-123554761D01*
X140119047Y-123602380D01*
X140023809Y-123602380D01*
X139928571Y-123554761D01*
X139880952Y-123507142D01*
X139833333Y-123411904D01*
X139785714Y-123221428D01*
X139785714Y-122983333D01*
X139833333Y-122792857D01*
X139880952Y-122697619D01*
X139928571Y-122650000D01*
X140023809Y-122602380D01*
X140785714Y-122935714D02*
X140785714Y-123602380D01*
X140785714Y-123030952D02*
X140833333Y-122983333D01*
X140928571Y-122935714D01*
X141071428Y-122935714D01*
X141166666Y-122983333D01*
X141214285Y-123078571D01*
X141214285Y-123602380D01*
X142023809Y-123078571D02*
X141690476Y-123078571D01*
X141690476Y-123602380D02*
X141690476Y-122602380D01*
X142166666Y-122602380D01*
D13*
X139916666Y-121678571D02*
X139892857Y-121702380D01*
X139821428Y-121726190D01*
X139773809Y-121726190D01*
X139702380Y-121702380D01*
X139654761Y-121654761D01*
X139630952Y-121607142D01*
X139607142Y-121511904D01*
X139607142Y-121440476D01*
X139630952Y-121345238D01*
X139654761Y-121297619D01*
X139702380Y-121250000D01*
X139773809Y-121226190D01*
X139821428Y-121226190D01*
X139892857Y-121250000D01*
X139916666Y-121273809D01*
X140369047Y-121226190D02*
X140130952Y-121226190D01*
X140107142Y-121464285D01*
X140130952Y-121440476D01*
X140178571Y-121416666D01*
X140297619Y-121416666D01*
X140345238Y-121440476D01*
X140369047Y-121464285D01*
X140392857Y-121511904D01*
X140392857Y-121630952D01*
X140369047Y-121678571D01*
X140345238Y-121702380D01*
X140297619Y-121726190D01*
X140178571Y-121726190D01*
X140130952Y-121702380D01*
X140107142Y-121678571D01*
%TO.C,C6*%
D12*
X129602380Y-133047619D02*
X129602380Y-133619047D01*
X129602380Y-133333333D02*
X128602380Y-133333333D01*
X128745238Y-133428571D01*
X128840476Y-133523809D01*
X128888095Y-133619047D01*
X128602380Y-132428571D02*
X128602380Y-132333333D01*
X128650000Y-132238095D01*
X128697619Y-132190476D01*
X128792857Y-132142857D01*
X128983333Y-132095238D01*
X129221428Y-132095238D01*
X129411904Y-132142857D01*
X129507142Y-132190476D01*
X129554761Y-132238095D01*
X129602380Y-132333333D01*
X129602380Y-132428571D01*
X129554761Y-132523809D01*
X129507142Y-132571428D01*
X129411904Y-132619047D01*
X129221428Y-132666666D01*
X128983333Y-132666666D01*
X128792857Y-132619047D01*
X128697619Y-132571428D01*
X128650000Y-132523809D01*
X128602380Y-132428571D01*
X128602380Y-131476190D02*
X128602380Y-131380952D01*
X128650000Y-131285714D01*
X128697619Y-131238095D01*
X128792857Y-131190476D01*
X128983333Y-131142857D01*
X129221428Y-131142857D01*
X129411904Y-131190476D01*
X129507142Y-131238095D01*
X129554761Y-131285714D01*
X129602380Y-131380952D01*
X129602380Y-131476190D01*
X129554761Y-131571428D01*
X129507142Y-131619047D01*
X129411904Y-131666666D01*
X129221428Y-131714285D01*
X128983333Y-131714285D01*
X128792857Y-131666666D01*
X128697619Y-131619047D01*
X128650000Y-131571428D01*
X128602380Y-131476190D01*
X128935714Y-130714285D02*
X129602380Y-130714285D01*
X129030952Y-130714285D02*
X128983333Y-130666666D01*
X128935714Y-130571428D01*
X128935714Y-130428571D01*
X128983333Y-130333333D01*
X129078571Y-130285714D01*
X129602380Y-130285714D01*
X129078571Y-129476190D02*
X129078571Y-129809523D01*
X129602380Y-129809523D02*
X128602380Y-129809523D01*
X128602380Y-129333333D01*
D13*
X130978571Y-131583333D02*
X131002380Y-131607142D01*
X131026190Y-131678571D01*
X131026190Y-131726190D01*
X131002380Y-131797619D01*
X130954761Y-131845238D01*
X130907142Y-131869047D01*
X130811904Y-131892857D01*
X130740476Y-131892857D01*
X130645238Y-131869047D01*
X130597619Y-131845238D01*
X130550000Y-131797619D01*
X130526190Y-131726190D01*
X130526190Y-131678571D01*
X130550000Y-131607142D01*
X130573809Y-131583333D01*
X130526190Y-131154761D02*
X130526190Y-131250000D01*
X130550000Y-131297619D01*
X130573809Y-131321428D01*
X130645238Y-131369047D01*
X130740476Y-131392857D01*
X130930952Y-131392857D01*
X130978571Y-131369047D01*
X131002380Y-131345238D01*
X131026190Y-131297619D01*
X131026190Y-131202380D01*
X131002380Y-131154761D01*
X130978571Y-131130952D01*
X130930952Y-131107142D01*
X130811904Y-131107142D01*
X130764285Y-131130952D01*
X130740476Y-131154761D01*
X130716666Y-131202380D01*
X130716666Y-131297619D01*
X130740476Y-131345238D01*
X130764285Y-131369047D01*
X130811904Y-131392857D01*
%TO.C,C7*%
D12*
X167761904Y-146935714D02*
X167761904Y-147602380D01*
X167523809Y-146554761D02*
X167285714Y-147269047D01*
X167904761Y-147269047D01*
X168190476Y-146602380D02*
X168857142Y-146602380D01*
X168428571Y-147602380D01*
X169238095Y-146935714D02*
X169238095Y-147935714D01*
X169238095Y-146983333D02*
X169333333Y-146935714D01*
X169523809Y-146935714D01*
X169619047Y-146983333D01*
X169666666Y-147030952D01*
X169714285Y-147126190D01*
X169714285Y-147411904D01*
X169666666Y-147507142D01*
X169619047Y-147554761D01*
X169523809Y-147602380D01*
X169333333Y-147602380D01*
X169238095Y-147554761D01*
D13*
X168416666Y-145678571D02*
X168392857Y-145702380D01*
X168321428Y-145726190D01*
X168273809Y-145726190D01*
X168202380Y-145702380D01*
X168154761Y-145654761D01*
X168130952Y-145607142D01*
X168107142Y-145511904D01*
X168107142Y-145440476D01*
X168130952Y-145345238D01*
X168154761Y-145297619D01*
X168202380Y-145250000D01*
X168273809Y-145226190D01*
X168321428Y-145226190D01*
X168392857Y-145250000D01*
X168416666Y-145273809D01*
X168583333Y-145226190D02*
X168916666Y-145226190D01*
X168702380Y-145726190D01*
%TO.C,C8*%
D12*
X167833333Y-141302380D02*
X167261904Y-141302380D01*
X167547619Y-141302380D02*
X167547619Y-140302380D01*
X167452380Y-140445238D01*
X167357142Y-140540476D01*
X167261904Y-140588095D01*
X168261904Y-140635714D02*
X168261904Y-141635714D01*
X168738095Y-141159523D02*
X168785714Y-141254761D01*
X168880952Y-141302380D01*
X168261904Y-141159523D02*
X168309523Y-141254761D01*
X168404761Y-141302380D01*
X168595238Y-141302380D01*
X168690476Y-141254761D01*
X168738095Y-141159523D01*
X168738095Y-140635714D01*
X169642857Y-140778571D02*
X169309523Y-140778571D01*
X169309523Y-141302380D02*
X169309523Y-140302380D01*
X169785714Y-140302380D01*
D13*
X168416666Y-142678571D02*
X168392857Y-142702380D01*
X168321428Y-142726190D01*
X168273809Y-142726190D01*
X168202380Y-142702380D01*
X168154761Y-142654761D01*
X168130952Y-142607142D01*
X168107142Y-142511904D01*
X168107142Y-142440476D01*
X168130952Y-142345238D01*
X168154761Y-142297619D01*
X168202380Y-142250000D01*
X168273809Y-142226190D01*
X168321428Y-142226190D01*
X168392857Y-142250000D01*
X168416666Y-142273809D01*
X168702380Y-142440476D02*
X168654761Y-142416666D01*
X168630952Y-142392857D01*
X168607142Y-142345238D01*
X168607142Y-142321428D01*
X168630952Y-142273809D01*
X168654761Y-142250000D01*
X168702380Y-142226190D01*
X168797619Y-142226190D01*
X168845238Y-142250000D01*
X168869047Y-142273809D01*
X168892857Y-142321428D01*
X168892857Y-142345238D01*
X168869047Y-142392857D01*
X168845238Y-142416666D01*
X168797619Y-142440476D01*
X168702380Y-142440476D01*
X168654761Y-142464285D01*
X168630952Y-142488095D01*
X168607142Y-142535714D01*
X168607142Y-142630952D01*
X168630952Y-142678571D01*
X168654761Y-142702380D01*
X168702380Y-142726190D01*
X168797619Y-142726190D01*
X168845238Y-142702380D01*
X168869047Y-142678571D01*
X168892857Y-142630952D01*
X168892857Y-142535714D01*
X168869047Y-142488095D01*
X168845238Y-142464285D01*
X168797619Y-142440476D01*
%TO.C,C9*%
D12*
X156833333Y-144602380D02*
X156261904Y-144602380D01*
X156547619Y-144602380D02*
X156547619Y-143602380D01*
X156452380Y-143745238D01*
X156357142Y-143840476D01*
X156261904Y-143888095D01*
X157261904Y-143935714D02*
X157261904Y-144935714D01*
X157738095Y-144459523D02*
X157785714Y-144554761D01*
X157880952Y-144602380D01*
X157261904Y-144459523D02*
X157309523Y-144554761D01*
X157404761Y-144602380D01*
X157595238Y-144602380D01*
X157690476Y-144554761D01*
X157738095Y-144459523D01*
X157738095Y-143935714D01*
X158642857Y-144078571D02*
X158309523Y-144078571D01*
X158309523Y-144602380D02*
X158309523Y-143602380D01*
X158785714Y-143602380D01*
D13*
X157416666Y-142678571D02*
X157392857Y-142702380D01*
X157321428Y-142726190D01*
X157273809Y-142726190D01*
X157202380Y-142702380D01*
X157154761Y-142654761D01*
X157130952Y-142607142D01*
X157107142Y-142511904D01*
X157107142Y-142440476D01*
X157130952Y-142345238D01*
X157154761Y-142297619D01*
X157202380Y-142250000D01*
X157273809Y-142226190D01*
X157321428Y-142226190D01*
X157392857Y-142250000D01*
X157416666Y-142273809D01*
X157654761Y-142726190D02*
X157750000Y-142726190D01*
X157797619Y-142702380D01*
X157821428Y-142678571D01*
X157869047Y-142607142D01*
X157892857Y-142511904D01*
X157892857Y-142321428D01*
X157869047Y-142273809D01*
X157845238Y-142250000D01*
X157797619Y-142226190D01*
X157702380Y-142226190D01*
X157654761Y-142250000D01*
X157630952Y-142273809D01*
X157607142Y-142321428D01*
X157607142Y-142440476D01*
X157630952Y-142488095D01*
X157654761Y-142511904D01*
X157702380Y-142535714D01*
X157797619Y-142535714D01*
X157845238Y-142511904D01*
X157869047Y-142488095D01*
X157892857Y-142440476D01*
%TO.C,C10*%
D12*
X156761904Y-146935714D02*
X156761904Y-147602380D01*
X156523809Y-146554761D02*
X156285714Y-147269047D01*
X156904761Y-147269047D01*
X157190476Y-146602380D02*
X157857142Y-146602380D01*
X157428571Y-147602380D01*
X158238095Y-146935714D02*
X158238095Y-147935714D01*
X158238095Y-146983333D02*
X158333333Y-146935714D01*
X158523809Y-146935714D01*
X158619047Y-146983333D01*
X158666666Y-147030952D01*
X158714285Y-147126190D01*
X158714285Y-147411904D01*
X158666666Y-147507142D01*
X158619047Y-147554761D01*
X158523809Y-147602380D01*
X158333333Y-147602380D01*
X158238095Y-147554761D01*
D13*
X157178571Y-145678571D02*
X157154761Y-145702380D01*
X157083333Y-145726190D01*
X157035714Y-145726190D01*
X156964285Y-145702380D01*
X156916666Y-145654761D01*
X156892857Y-145607142D01*
X156869047Y-145511904D01*
X156869047Y-145440476D01*
X156892857Y-145345238D01*
X156916666Y-145297619D01*
X156964285Y-145250000D01*
X157035714Y-145226190D01*
X157083333Y-145226190D01*
X157154761Y-145250000D01*
X157178571Y-145273809D01*
X157654761Y-145726190D02*
X157369047Y-145726190D01*
X157511904Y-145726190D02*
X157511904Y-145226190D01*
X157464285Y-145297619D01*
X157416666Y-145345238D01*
X157369047Y-145369047D01*
X157964285Y-145226190D02*
X158011904Y-145226190D01*
X158059523Y-145250000D01*
X158083333Y-145273809D01*
X158107142Y-145321428D01*
X158130952Y-145416666D01*
X158130952Y-145535714D01*
X158107142Y-145630952D01*
X158083333Y-145678571D01*
X158059523Y-145702380D01*
X158011904Y-145726190D01*
X157964285Y-145726190D01*
X157916666Y-145702380D01*
X157892857Y-145678571D01*
X157869047Y-145630952D01*
X157845238Y-145535714D01*
X157845238Y-145416666D01*
X157869047Y-145321428D01*
X157892857Y-145273809D01*
X157916666Y-145250000D01*
X157964285Y-145226190D01*
%TO.C,C11*%
D12*
X147897619Y-126642857D02*
X147850000Y-126595238D01*
X147802380Y-126500000D01*
X147802380Y-126261904D01*
X147850000Y-126166666D01*
X147897619Y-126119047D01*
X147992857Y-126071428D01*
X148088095Y-126071428D01*
X148230952Y-126119047D01*
X148802380Y-126690476D01*
X148802380Y-126071428D01*
X147802380Y-125452380D02*
X147802380Y-125357142D01*
X147850000Y-125261904D01*
X147897619Y-125214285D01*
X147992857Y-125166666D01*
X148183333Y-125119047D01*
X148421428Y-125119047D01*
X148611904Y-125166666D01*
X148707142Y-125214285D01*
X148754761Y-125261904D01*
X148802380Y-125357142D01*
X148802380Y-125452380D01*
X148754761Y-125547619D01*
X148707142Y-125595238D01*
X148611904Y-125642857D01*
X148421428Y-125690476D01*
X148183333Y-125690476D01*
X147992857Y-125642857D01*
X147897619Y-125595238D01*
X147850000Y-125547619D01*
X147802380Y-125452380D01*
X148135714Y-124690476D02*
X149135714Y-124690476D01*
X148183333Y-124690476D02*
X148135714Y-124595238D01*
X148135714Y-124404761D01*
X148183333Y-124309523D01*
X148230952Y-124261904D01*
X148326190Y-124214285D01*
X148611904Y-124214285D01*
X148707142Y-124261904D01*
X148754761Y-124309523D01*
X148802380Y-124404761D01*
X148802380Y-124595238D01*
X148754761Y-124690476D01*
X148278571Y-123452380D02*
X148278571Y-123785714D01*
X148802380Y-123785714D02*
X147802380Y-123785714D01*
X147802380Y-123309523D01*
D13*
X150178571Y-125321428D02*
X150202380Y-125345238D01*
X150226190Y-125416666D01*
X150226190Y-125464285D01*
X150202380Y-125535714D01*
X150154761Y-125583333D01*
X150107142Y-125607142D01*
X150011904Y-125630952D01*
X149940476Y-125630952D01*
X149845238Y-125607142D01*
X149797619Y-125583333D01*
X149750000Y-125535714D01*
X149726190Y-125464285D01*
X149726190Y-125416666D01*
X149750000Y-125345238D01*
X149773809Y-125321428D01*
X150226190Y-124845238D02*
X150226190Y-125130952D01*
X150226190Y-124988095D02*
X149726190Y-124988095D01*
X149797619Y-125035714D01*
X149845238Y-125083333D01*
X149869047Y-125130952D01*
X150226190Y-124369047D02*
X150226190Y-124654761D01*
X150226190Y-124511904D02*
X149726190Y-124511904D01*
X149797619Y-124559523D01*
X149845238Y-124607142D01*
X149869047Y-124654761D01*
%TO.C,C12*%
D12*
X151197619Y-119642857D02*
X151150000Y-119595238D01*
X151102380Y-119500000D01*
X151102380Y-119261904D01*
X151150000Y-119166666D01*
X151197619Y-119119047D01*
X151292857Y-119071428D01*
X151388095Y-119071428D01*
X151530952Y-119119047D01*
X152102380Y-119690476D01*
X152102380Y-119071428D01*
X151102380Y-118452380D02*
X151102380Y-118357142D01*
X151150000Y-118261904D01*
X151197619Y-118214285D01*
X151292857Y-118166666D01*
X151483333Y-118119047D01*
X151721428Y-118119047D01*
X151911904Y-118166666D01*
X152007142Y-118214285D01*
X152054761Y-118261904D01*
X152102380Y-118357142D01*
X152102380Y-118452380D01*
X152054761Y-118547619D01*
X152007142Y-118595238D01*
X151911904Y-118642857D01*
X151721428Y-118690476D01*
X151483333Y-118690476D01*
X151292857Y-118642857D01*
X151197619Y-118595238D01*
X151150000Y-118547619D01*
X151102380Y-118452380D01*
X151435714Y-117690476D02*
X152435714Y-117690476D01*
X151483333Y-117690476D02*
X151435714Y-117595238D01*
X151435714Y-117404761D01*
X151483333Y-117309523D01*
X151530952Y-117261904D01*
X151626190Y-117214285D01*
X151911904Y-117214285D01*
X152007142Y-117261904D01*
X152054761Y-117309523D01*
X152102380Y-117404761D01*
X152102380Y-117595238D01*
X152054761Y-117690476D01*
X151578571Y-116452380D02*
X151578571Y-116785714D01*
X152102380Y-116785714D02*
X151102380Y-116785714D01*
X151102380Y-116309523D01*
D13*
X150178571Y-118321428D02*
X150202380Y-118345238D01*
X150226190Y-118416666D01*
X150226190Y-118464285D01*
X150202380Y-118535714D01*
X150154761Y-118583333D01*
X150107142Y-118607142D01*
X150011904Y-118630952D01*
X149940476Y-118630952D01*
X149845238Y-118607142D01*
X149797619Y-118583333D01*
X149750000Y-118535714D01*
X149726190Y-118464285D01*
X149726190Y-118416666D01*
X149750000Y-118345238D01*
X149773809Y-118321428D01*
X150226190Y-117845238D02*
X150226190Y-118130952D01*
X150226190Y-117988095D02*
X149726190Y-117988095D01*
X149797619Y-118035714D01*
X149845238Y-118083333D01*
X149869047Y-118130952D01*
X149773809Y-117654761D02*
X149750000Y-117630952D01*
X149726190Y-117583333D01*
X149726190Y-117464285D01*
X149750000Y-117416666D01*
X149773809Y-117392857D01*
X149821428Y-117369047D01*
X149869047Y-117369047D01*
X149940476Y-117392857D01*
X150226190Y-117678571D01*
X150226190Y-117369047D01*
%TO.C,C13*%
D12*
X139957142Y-135002380D02*
X139385714Y-135002380D01*
X139671428Y-135002380D02*
X139671428Y-134002380D01*
X139576190Y-134145238D01*
X139480952Y-134240476D01*
X139385714Y-134288095D01*
X140576190Y-134002380D02*
X140671428Y-134002380D01*
X140766666Y-134050000D01*
X140814285Y-134097619D01*
X140861904Y-134192857D01*
X140909523Y-134383333D01*
X140909523Y-134621428D01*
X140861904Y-134811904D01*
X140814285Y-134907142D01*
X140766666Y-134954761D01*
X140671428Y-135002380D01*
X140576190Y-135002380D01*
X140480952Y-134954761D01*
X140433333Y-134907142D01*
X140385714Y-134811904D01*
X140338095Y-134621428D01*
X140338095Y-134383333D01*
X140385714Y-134192857D01*
X140433333Y-134097619D01*
X140480952Y-134050000D01*
X140576190Y-134002380D01*
X141338095Y-134335714D02*
X141338095Y-135335714D01*
X141814285Y-134859523D02*
X141861904Y-134954761D01*
X141957142Y-135002380D01*
X141338095Y-134859523D02*
X141385714Y-134954761D01*
X141480952Y-135002380D01*
X141671428Y-135002380D01*
X141766666Y-134954761D01*
X141814285Y-134859523D01*
X141814285Y-134335714D01*
X142719047Y-134478571D02*
X142385714Y-134478571D01*
X142385714Y-135002380D02*
X142385714Y-134002380D01*
X142861904Y-134002380D01*
D13*
X140778571Y-136378571D02*
X140754761Y-136402380D01*
X140683333Y-136426190D01*
X140635714Y-136426190D01*
X140564285Y-136402380D01*
X140516666Y-136354761D01*
X140492857Y-136307142D01*
X140469047Y-136211904D01*
X140469047Y-136140476D01*
X140492857Y-136045238D01*
X140516666Y-135997619D01*
X140564285Y-135950000D01*
X140635714Y-135926190D01*
X140683333Y-135926190D01*
X140754761Y-135950000D01*
X140778571Y-135973809D01*
X141254761Y-136426190D02*
X140969047Y-136426190D01*
X141111904Y-136426190D02*
X141111904Y-135926190D01*
X141064285Y-135997619D01*
X141016666Y-136045238D01*
X140969047Y-136069047D01*
X141421428Y-135926190D02*
X141730952Y-135926190D01*
X141564285Y-136116666D01*
X141635714Y-136116666D01*
X141683333Y-136140476D01*
X141707142Y-136164285D01*
X141730952Y-136211904D01*
X141730952Y-136330952D01*
X141707142Y-136378571D01*
X141683333Y-136402380D01*
X141635714Y-136426190D01*
X141492857Y-136426190D01*
X141445238Y-136402380D01*
X141421428Y-136378571D01*
%TO.C,C14*%
D12*
X139552380Y-133002380D02*
X138980952Y-133002380D01*
X139266666Y-133002380D02*
X139266666Y-132002380D01*
X139171428Y-132145238D01*
X139076190Y-132240476D01*
X138980952Y-132288095D01*
X140171428Y-132002380D02*
X140266666Y-132002380D01*
X140361904Y-132050000D01*
X140409523Y-132097619D01*
X140457142Y-132192857D01*
X140504761Y-132383333D01*
X140504761Y-132621428D01*
X140457142Y-132811904D01*
X140409523Y-132907142D01*
X140361904Y-132954761D01*
X140266666Y-133002380D01*
X140171428Y-133002380D01*
X140076190Y-132954761D01*
X140028571Y-132907142D01*
X139980952Y-132811904D01*
X139933333Y-132621428D01*
X139933333Y-132383333D01*
X139980952Y-132192857D01*
X140028571Y-132097619D01*
X140076190Y-132050000D01*
X140171428Y-132002380D01*
X141123809Y-132002380D02*
X141219047Y-132002380D01*
X141314285Y-132050000D01*
X141361904Y-132097619D01*
X141409523Y-132192857D01*
X141457142Y-132383333D01*
X141457142Y-132621428D01*
X141409523Y-132811904D01*
X141361904Y-132907142D01*
X141314285Y-132954761D01*
X141219047Y-133002380D01*
X141123809Y-133002380D01*
X141028571Y-132954761D01*
X140980952Y-132907142D01*
X140933333Y-132811904D01*
X140885714Y-132621428D01*
X140885714Y-132383333D01*
X140933333Y-132192857D01*
X140980952Y-132097619D01*
X141028571Y-132050000D01*
X141123809Y-132002380D01*
X141885714Y-132335714D02*
X141885714Y-133002380D01*
X141885714Y-132430952D02*
X141933333Y-132383333D01*
X142028571Y-132335714D01*
X142171428Y-132335714D01*
X142266666Y-132383333D01*
X142314285Y-132478571D01*
X142314285Y-133002380D01*
X143123809Y-132478571D02*
X142790476Y-132478571D01*
X142790476Y-133002380D02*
X142790476Y-132002380D01*
X143266666Y-132002380D01*
D13*
X140778571Y-134378571D02*
X140754761Y-134402380D01*
X140683333Y-134426190D01*
X140635714Y-134426190D01*
X140564285Y-134402380D01*
X140516666Y-134354761D01*
X140492857Y-134307142D01*
X140469047Y-134211904D01*
X140469047Y-134140476D01*
X140492857Y-134045238D01*
X140516666Y-133997619D01*
X140564285Y-133950000D01*
X140635714Y-133926190D01*
X140683333Y-133926190D01*
X140754761Y-133950000D01*
X140778571Y-133973809D01*
X141254761Y-134426190D02*
X140969047Y-134426190D01*
X141111904Y-134426190D02*
X141111904Y-133926190D01*
X141064285Y-133997619D01*
X141016666Y-134045238D01*
X140969047Y-134069047D01*
X141683333Y-134092857D02*
X141683333Y-134426190D01*
X141564285Y-133902380D02*
X141445238Y-134259523D01*
X141754761Y-134259523D01*
%TO.C,C15*%
D12*
X123202380Y-145119047D02*
X123202380Y-145690476D01*
X123202380Y-145404761D02*
X122202380Y-145404761D01*
X122345238Y-145500000D01*
X122440476Y-145595238D01*
X122488095Y-145690476D01*
X122202380Y-144500000D02*
X122202380Y-144404761D01*
X122250000Y-144309523D01*
X122297619Y-144261904D01*
X122392857Y-144214285D01*
X122583333Y-144166666D01*
X122821428Y-144166666D01*
X123011904Y-144214285D01*
X123107142Y-144261904D01*
X123154761Y-144309523D01*
X123202380Y-144404761D01*
X123202380Y-144500000D01*
X123154761Y-144595238D01*
X123107142Y-144642857D01*
X123011904Y-144690476D01*
X122821428Y-144738095D01*
X122583333Y-144738095D01*
X122392857Y-144690476D01*
X122297619Y-144642857D01*
X122250000Y-144595238D01*
X122202380Y-144500000D01*
X122202380Y-143547619D02*
X122202380Y-143452380D01*
X122250000Y-143357142D01*
X122297619Y-143309523D01*
X122392857Y-143261904D01*
X122583333Y-143214285D01*
X122821428Y-143214285D01*
X123011904Y-143261904D01*
X123107142Y-143309523D01*
X123154761Y-143357142D01*
X123202380Y-143452380D01*
X123202380Y-143547619D01*
X123154761Y-143642857D01*
X123107142Y-143690476D01*
X123011904Y-143738095D01*
X122821428Y-143785714D01*
X122583333Y-143785714D01*
X122392857Y-143738095D01*
X122297619Y-143690476D01*
X122250000Y-143642857D01*
X122202380Y-143547619D01*
X122535714Y-142785714D02*
X123535714Y-142785714D01*
X123059523Y-142309523D02*
X123154761Y-142261904D01*
X123202380Y-142166666D01*
X123059523Y-142785714D02*
X123154761Y-142738095D01*
X123202380Y-142642857D01*
X123202380Y-142452380D01*
X123154761Y-142357142D01*
X123059523Y-142309523D01*
X122535714Y-142309523D01*
X122678571Y-141404761D02*
X122678571Y-141738095D01*
X123202380Y-141738095D02*
X122202380Y-141738095D01*
X122202380Y-141261904D01*
X129357142Y-144142857D02*
X129404761Y-144190476D01*
X129452380Y-144333333D01*
X129452380Y-144428571D01*
X129404761Y-144571428D01*
X129309523Y-144666666D01*
X129214285Y-144714285D01*
X129023809Y-144761904D01*
X128880952Y-144761904D01*
X128690476Y-144714285D01*
X128595238Y-144666666D01*
X128500000Y-144571428D01*
X128452380Y-144428571D01*
X128452380Y-144333333D01*
X128500000Y-144190476D01*
X128547619Y-144142857D01*
X129452380Y-143190476D02*
X129452380Y-143761904D01*
X129452380Y-143476190D02*
X128452380Y-143476190D01*
X128595238Y-143571428D01*
X128690476Y-143666666D01*
X128738095Y-143761904D01*
X128452380Y-142285714D02*
X128452380Y-142761904D01*
X128928571Y-142809523D01*
X128880952Y-142761904D01*
X128833333Y-142666666D01*
X128833333Y-142428571D01*
X128880952Y-142333333D01*
X128928571Y-142285714D01*
X129023809Y-142238095D01*
X129261904Y-142238095D01*
X129357142Y-142285714D01*
X129404761Y-142333333D01*
X129452380Y-142428571D01*
X129452380Y-142666666D01*
X129404761Y-142761904D01*
X129357142Y-142809523D01*
%TO.C,C17*%
X117602380Y-152666666D02*
X117602380Y-153238095D01*
X117602380Y-152952380D02*
X116602380Y-152952380D01*
X116745238Y-153047619D01*
X116840476Y-153142857D01*
X116888095Y-153238095D01*
X116935714Y-152238095D02*
X117935714Y-152238095D01*
X117459523Y-151761904D02*
X117554761Y-151714285D01*
X117602380Y-151619047D01*
X117459523Y-152238095D02*
X117554761Y-152190476D01*
X117602380Y-152095238D01*
X117602380Y-151904761D01*
X117554761Y-151809523D01*
X117459523Y-151761904D01*
X116935714Y-151761904D01*
X117078571Y-150857142D02*
X117078571Y-151190476D01*
X117602380Y-151190476D02*
X116602380Y-151190476D01*
X116602380Y-150714285D01*
D13*
X115678571Y-152321428D02*
X115702380Y-152345238D01*
X115726190Y-152416666D01*
X115726190Y-152464285D01*
X115702380Y-152535714D01*
X115654761Y-152583333D01*
X115607142Y-152607142D01*
X115511904Y-152630952D01*
X115440476Y-152630952D01*
X115345238Y-152607142D01*
X115297619Y-152583333D01*
X115250000Y-152535714D01*
X115226190Y-152464285D01*
X115226190Y-152416666D01*
X115250000Y-152345238D01*
X115273809Y-152321428D01*
X115726190Y-151845238D02*
X115726190Y-152130952D01*
X115726190Y-151988095D02*
X115226190Y-151988095D01*
X115297619Y-152035714D01*
X115345238Y-152083333D01*
X115369047Y-152130952D01*
X115226190Y-151678571D02*
X115226190Y-151345238D01*
X115726190Y-151559523D01*
%TO.C,C18*%
D12*
X104602380Y-151666666D02*
X104602380Y-152238095D01*
X104602380Y-151952380D02*
X103602380Y-151952380D01*
X103745238Y-152047619D01*
X103840476Y-152142857D01*
X103888095Y-152238095D01*
X103935714Y-151238095D02*
X104935714Y-151238095D01*
X104459523Y-150761904D02*
X104554761Y-150714285D01*
X104602380Y-150619047D01*
X104459523Y-151238095D02*
X104554761Y-151190476D01*
X104602380Y-151095238D01*
X104602380Y-150904761D01*
X104554761Y-150809523D01*
X104459523Y-150761904D01*
X103935714Y-150761904D01*
X104078571Y-149857142D02*
X104078571Y-150190476D01*
X104602380Y-150190476D02*
X103602380Y-150190476D01*
X103602380Y-149714285D01*
D13*
X102678571Y-151321428D02*
X102702380Y-151345238D01*
X102726190Y-151416666D01*
X102726190Y-151464285D01*
X102702380Y-151535714D01*
X102654761Y-151583333D01*
X102607142Y-151607142D01*
X102511904Y-151630952D01*
X102440476Y-151630952D01*
X102345238Y-151607142D01*
X102297619Y-151583333D01*
X102250000Y-151535714D01*
X102226190Y-151464285D01*
X102226190Y-151416666D01*
X102250000Y-151345238D01*
X102273809Y-151321428D01*
X102726190Y-150845238D02*
X102726190Y-151130952D01*
X102726190Y-150988095D02*
X102226190Y-150988095D01*
X102297619Y-151035714D01*
X102345238Y-151083333D01*
X102369047Y-151130952D01*
X102440476Y-150559523D02*
X102416666Y-150607142D01*
X102392857Y-150630952D01*
X102345238Y-150654761D01*
X102321428Y-150654761D01*
X102273809Y-150630952D01*
X102250000Y-150607142D01*
X102226190Y-150559523D01*
X102226190Y-150464285D01*
X102250000Y-150416666D01*
X102273809Y-150392857D01*
X102321428Y-150369047D01*
X102345238Y-150369047D01*
X102392857Y-150392857D01*
X102416666Y-150416666D01*
X102440476Y-150464285D01*
X102440476Y-150559523D01*
X102464285Y-150607142D01*
X102488095Y-150630952D01*
X102535714Y-150654761D01*
X102630952Y-150654761D01*
X102678571Y-150630952D01*
X102702380Y-150607142D01*
X102726190Y-150559523D01*
X102726190Y-150464285D01*
X102702380Y-150416666D01*
X102678571Y-150392857D01*
X102630952Y-150369047D01*
X102535714Y-150369047D01*
X102488095Y-150392857D01*
X102464285Y-150416666D01*
X102440476Y-150464285D01*
%TO.C,C19*%
D12*
X136928571Y-84102380D02*
X136357142Y-84102380D01*
X136642857Y-84102380D02*
X136642857Y-83102380D01*
X136547619Y-83245238D01*
X136452380Y-83340476D01*
X136357142Y-83388095D01*
X137547619Y-83102380D02*
X137642857Y-83102380D01*
X137738095Y-83150000D01*
X137785714Y-83197619D01*
X137833333Y-83292857D01*
X137880952Y-83483333D01*
X137880952Y-83721428D01*
X137833333Y-83911904D01*
X137785714Y-84007142D01*
X137738095Y-84054761D01*
X137642857Y-84102380D01*
X137547619Y-84102380D01*
X137452380Y-84054761D01*
X137404761Y-84007142D01*
X137357142Y-83911904D01*
X137309523Y-83721428D01*
X137309523Y-83483333D01*
X137357142Y-83292857D01*
X137404761Y-83197619D01*
X137452380Y-83150000D01*
X137547619Y-83102380D01*
X138309523Y-83435714D02*
X138309523Y-84102380D01*
X138309523Y-83530952D02*
X138357142Y-83483333D01*
X138452380Y-83435714D01*
X138595238Y-83435714D01*
X138690476Y-83483333D01*
X138738095Y-83578571D01*
X138738095Y-84102380D01*
X139547619Y-83578571D02*
X139214285Y-83578571D01*
X139214285Y-84102380D02*
X139214285Y-83102380D01*
X139690476Y-83102380D01*
D13*
X137678571Y-82178571D02*
X137654761Y-82202380D01*
X137583333Y-82226190D01*
X137535714Y-82226190D01*
X137464285Y-82202380D01*
X137416666Y-82154761D01*
X137392857Y-82107142D01*
X137369047Y-82011904D01*
X137369047Y-81940476D01*
X137392857Y-81845238D01*
X137416666Y-81797619D01*
X137464285Y-81750000D01*
X137535714Y-81726190D01*
X137583333Y-81726190D01*
X137654761Y-81750000D01*
X137678571Y-81773809D01*
X138154761Y-82226190D02*
X137869047Y-82226190D01*
X138011904Y-82226190D02*
X138011904Y-81726190D01*
X137964285Y-81797619D01*
X137916666Y-81845238D01*
X137869047Y-81869047D01*
X138392857Y-82226190D02*
X138488095Y-82226190D01*
X138535714Y-82202380D01*
X138559523Y-82178571D01*
X138607142Y-82107142D01*
X138630952Y-82011904D01*
X138630952Y-81821428D01*
X138607142Y-81773809D01*
X138583333Y-81750000D01*
X138535714Y-81726190D01*
X138440476Y-81726190D01*
X138392857Y-81750000D01*
X138369047Y-81773809D01*
X138345238Y-81821428D01*
X138345238Y-81940476D01*
X138369047Y-81988095D01*
X138392857Y-82011904D01*
X138440476Y-82035714D01*
X138535714Y-82035714D01*
X138583333Y-82011904D01*
X138607142Y-81988095D01*
X138630952Y-81940476D01*
%TO.C,C20*%
D12*
X132928571Y-84102380D02*
X132357142Y-84102380D01*
X132642857Y-84102380D02*
X132642857Y-83102380D01*
X132547619Y-83245238D01*
X132452380Y-83340476D01*
X132357142Y-83388095D01*
X133547619Y-83102380D02*
X133642857Y-83102380D01*
X133738095Y-83150000D01*
X133785714Y-83197619D01*
X133833333Y-83292857D01*
X133880952Y-83483333D01*
X133880952Y-83721428D01*
X133833333Y-83911904D01*
X133785714Y-84007142D01*
X133738095Y-84054761D01*
X133642857Y-84102380D01*
X133547619Y-84102380D01*
X133452380Y-84054761D01*
X133404761Y-84007142D01*
X133357142Y-83911904D01*
X133309523Y-83721428D01*
X133309523Y-83483333D01*
X133357142Y-83292857D01*
X133404761Y-83197619D01*
X133452380Y-83150000D01*
X133547619Y-83102380D01*
X134309523Y-83435714D02*
X134309523Y-84102380D01*
X134309523Y-83530952D02*
X134357142Y-83483333D01*
X134452380Y-83435714D01*
X134595238Y-83435714D01*
X134690476Y-83483333D01*
X134738095Y-83578571D01*
X134738095Y-84102380D01*
X135547619Y-83578571D02*
X135214285Y-83578571D01*
X135214285Y-84102380D02*
X135214285Y-83102380D01*
X135690476Y-83102380D01*
D13*
X133678571Y-82178571D02*
X133654761Y-82202380D01*
X133583333Y-82226190D01*
X133535714Y-82226190D01*
X133464285Y-82202380D01*
X133416666Y-82154761D01*
X133392857Y-82107142D01*
X133369047Y-82011904D01*
X133369047Y-81940476D01*
X133392857Y-81845238D01*
X133416666Y-81797619D01*
X133464285Y-81750000D01*
X133535714Y-81726190D01*
X133583333Y-81726190D01*
X133654761Y-81750000D01*
X133678571Y-81773809D01*
X133869047Y-81773809D02*
X133892857Y-81750000D01*
X133940476Y-81726190D01*
X134059523Y-81726190D01*
X134107142Y-81750000D01*
X134130952Y-81773809D01*
X134154761Y-81821428D01*
X134154761Y-81869047D01*
X134130952Y-81940476D01*
X133845238Y-82226190D01*
X134154761Y-82226190D01*
X134464285Y-81726190D02*
X134511904Y-81726190D01*
X134559523Y-81750000D01*
X134583333Y-81773809D01*
X134607142Y-81821428D01*
X134630952Y-81916666D01*
X134630952Y-82035714D01*
X134607142Y-82130952D01*
X134583333Y-82178571D01*
X134559523Y-82202380D01*
X134511904Y-82226190D01*
X134464285Y-82226190D01*
X134416666Y-82202380D01*
X134392857Y-82178571D01*
X134369047Y-82130952D01*
X134345238Y-82035714D01*
X134345238Y-81916666D01*
X134369047Y-81821428D01*
X134392857Y-81773809D01*
X134416666Y-81750000D01*
X134464285Y-81726190D01*
%TO.C,C21*%
D12*
X134928571Y-111602380D02*
X134357142Y-111602380D01*
X134642857Y-111602380D02*
X134642857Y-110602380D01*
X134547619Y-110745238D01*
X134452380Y-110840476D01*
X134357142Y-110888095D01*
X135547619Y-110602380D02*
X135642857Y-110602380D01*
X135738095Y-110650000D01*
X135785714Y-110697619D01*
X135833333Y-110792857D01*
X135880952Y-110983333D01*
X135880952Y-111221428D01*
X135833333Y-111411904D01*
X135785714Y-111507142D01*
X135738095Y-111554761D01*
X135642857Y-111602380D01*
X135547619Y-111602380D01*
X135452380Y-111554761D01*
X135404761Y-111507142D01*
X135357142Y-111411904D01*
X135309523Y-111221428D01*
X135309523Y-110983333D01*
X135357142Y-110792857D01*
X135404761Y-110697619D01*
X135452380Y-110650000D01*
X135547619Y-110602380D01*
X136309523Y-110935714D02*
X136309523Y-111602380D01*
X136309523Y-111030952D02*
X136357142Y-110983333D01*
X136452380Y-110935714D01*
X136595238Y-110935714D01*
X136690476Y-110983333D01*
X136738095Y-111078571D01*
X136738095Y-111602380D01*
X137547619Y-111078571D02*
X137214285Y-111078571D01*
X137214285Y-111602380D02*
X137214285Y-110602380D01*
X137690476Y-110602380D01*
D13*
X135678571Y-109678571D02*
X135654761Y-109702380D01*
X135583333Y-109726190D01*
X135535714Y-109726190D01*
X135464285Y-109702380D01*
X135416666Y-109654761D01*
X135392857Y-109607142D01*
X135369047Y-109511904D01*
X135369047Y-109440476D01*
X135392857Y-109345238D01*
X135416666Y-109297619D01*
X135464285Y-109250000D01*
X135535714Y-109226190D01*
X135583333Y-109226190D01*
X135654761Y-109250000D01*
X135678571Y-109273809D01*
X135869047Y-109273809D02*
X135892857Y-109250000D01*
X135940476Y-109226190D01*
X136059523Y-109226190D01*
X136107142Y-109250000D01*
X136130952Y-109273809D01*
X136154761Y-109321428D01*
X136154761Y-109369047D01*
X136130952Y-109440476D01*
X135845238Y-109726190D01*
X136154761Y-109726190D01*
X136630952Y-109726190D02*
X136345238Y-109726190D01*
X136488095Y-109726190D02*
X136488095Y-109226190D01*
X136440476Y-109297619D01*
X136392857Y-109345238D01*
X136345238Y-109369047D01*
%TO.C,C22*%
D12*
X132333333Y-67102380D02*
X131761904Y-67102380D01*
X132047619Y-67102380D02*
X132047619Y-66102380D01*
X131952380Y-66245238D01*
X131857142Y-66340476D01*
X131761904Y-66388095D01*
X132761904Y-66435714D02*
X132761904Y-67435714D01*
X133238095Y-66959523D02*
X133285714Y-67054761D01*
X133380952Y-67102380D01*
X132761904Y-66959523D02*
X132809523Y-67054761D01*
X132904761Y-67102380D01*
X133095238Y-67102380D01*
X133190476Y-67054761D01*
X133238095Y-66959523D01*
X133238095Y-66435714D01*
X134142857Y-66578571D02*
X133809523Y-66578571D01*
X133809523Y-67102380D02*
X133809523Y-66102380D01*
X134285714Y-66102380D01*
D13*
X132678571Y-65178571D02*
X132654761Y-65202380D01*
X132583333Y-65226190D01*
X132535714Y-65226190D01*
X132464285Y-65202380D01*
X132416666Y-65154761D01*
X132392857Y-65107142D01*
X132369047Y-65011904D01*
X132369047Y-64940476D01*
X132392857Y-64845238D01*
X132416666Y-64797619D01*
X132464285Y-64750000D01*
X132535714Y-64726190D01*
X132583333Y-64726190D01*
X132654761Y-64750000D01*
X132678571Y-64773809D01*
X132869047Y-64773809D02*
X132892857Y-64750000D01*
X132940476Y-64726190D01*
X133059523Y-64726190D01*
X133107142Y-64750000D01*
X133130952Y-64773809D01*
X133154761Y-64821428D01*
X133154761Y-64869047D01*
X133130952Y-64940476D01*
X132845238Y-65226190D01*
X133154761Y-65226190D01*
X133345238Y-64773809D02*
X133369047Y-64750000D01*
X133416666Y-64726190D01*
X133535714Y-64726190D01*
X133583333Y-64750000D01*
X133607142Y-64773809D01*
X133630952Y-64821428D01*
X133630952Y-64869047D01*
X133607142Y-64940476D01*
X133321428Y-65226190D01*
X133630952Y-65226190D01*
%TO.C,FB1*%
D12*
X123309523Y-132278571D02*
X122976190Y-132278571D01*
X122976190Y-132802380D02*
X122976190Y-131802380D01*
X123452380Y-131802380D01*
X124166666Y-132278571D02*
X124309523Y-132326190D01*
X124357142Y-132373809D01*
X124404761Y-132469047D01*
X124404761Y-132611904D01*
X124357142Y-132707142D01*
X124309523Y-132754761D01*
X124214285Y-132802380D01*
X123833333Y-132802380D01*
X123833333Y-131802380D01*
X124166666Y-131802380D01*
X124261904Y-131850000D01*
X124309523Y-131897619D01*
X124357142Y-131992857D01*
X124357142Y-132088095D01*
X124309523Y-132183333D01*
X124261904Y-132230952D01*
X124166666Y-132278571D01*
X123833333Y-132278571D01*
X125214285Y-132754761D02*
X125119047Y-132802380D01*
X124928571Y-132802380D01*
X124833333Y-132754761D01*
X124785714Y-132659523D01*
X124785714Y-132278571D01*
X124833333Y-132183333D01*
X124928571Y-132135714D01*
X125119047Y-132135714D01*
X125214285Y-132183333D01*
X125261904Y-132278571D01*
X125261904Y-132373809D01*
X124785714Y-132469047D01*
X126119047Y-132802380D02*
X126119047Y-132278571D01*
X126071428Y-132183333D01*
X125976190Y-132135714D01*
X125785714Y-132135714D01*
X125690476Y-132183333D01*
X126119047Y-132754761D02*
X126023809Y-132802380D01*
X125785714Y-132802380D01*
X125690476Y-132754761D01*
X125642857Y-132659523D01*
X125642857Y-132564285D01*
X125690476Y-132469047D01*
X125785714Y-132421428D01*
X126023809Y-132421428D01*
X126119047Y-132373809D01*
X127023809Y-132802380D02*
X127023809Y-131802380D01*
X127023809Y-132754761D02*
X126928571Y-132802380D01*
X126738095Y-132802380D01*
X126642857Y-132754761D01*
X126595238Y-132707142D01*
X126547619Y-132611904D01*
X126547619Y-132326190D01*
X126595238Y-132230952D01*
X126642857Y-132183333D01*
X126738095Y-132135714D01*
X126928571Y-132135714D01*
X127023809Y-132183333D01*
D13*
X124583333Y-133964285D02*
X124416666Y-133964285D01*
X124416666Y-134226190D02*
X124416666Y-133726190D01*
X124654761Y-133726190D01*
X125011904Y-133964285D02*
X125083333Y-133988095D01*
X125107142Y-134011904D01*
X125130952Y-134059523D01*
X125130952Y-134130952D01*
X125107142Y-134178571D01*
X125083333Y-134202380D01*
X125035714Y-134226190D01*
X124845238Y-134226190D01*
X124845238Y-133726190D01*
X125011904Y-133726190D01*
X125059523Y-133750000D01*
X125083333Y-133773809D01*
X125107142Y-133821428D01*
X125107142Y-133869047D01*
X125083333Y-133916666D01*
X125059523Y-133940476D01*
X125011904Y-133964285D01*
X124845238Y-133964285D01*
X125607142Y-134226190D02*
X125321428Y-134226190D01*
X125464285Y-134226190D02*
X125464285Y-133726190D01*
X125416666Y-133797619D01*
X125369047Y-133845238D01*
X125321428Y-133869047D01*
%TO.C,R1*%
D12*
X151095238Y-156297619D02*
X151142857Y-156250000D01*
X151238095Y-156202380D01*
X151476190Y-156202380D01*
X151571428Y-156250000D01*
X151619047Y-156297619D01*
X151666666Y-156392857D01*
X151666666Y-156488095D01*
X151619047Y-156630952D01*
X151047619Y-157202380D01*
X151666666Y-157202380D01*
X152095238Y-157107142D02*
X152142857Y-157154761D01*
X152095238Y-157202380D01*
X152047619Y-157154761D01*
X152095238Y-157107142D01*
X152095238Y-157202380D01*
X152523809Y-156297619D02*
X152571428Y-156250000D01*
X152666666Y-156202380D01*
X152904761Y-156202380D01*
X153000000Y-156250000D01*
X153047619Y-156297619D01*
X153095238Y-156392857D01*
X153095238Y-156488095D01*
X153047619Y-156630952D01*
X152476190Y-157202380D01*
X153095238Y-157202380D01*
X153523809Y-157202380D02*
X153523809Y-156202380D01*
X153619047Y-156821428D02*
X153904761Y-157202380D01*
X153904761Y-156535714D02*
X153523809Y-156916666D01*
D14*
X152416666Y-155226190D02*
X152250000Y-154988095D01*
X152130952Y-155226190D02*
X152130952Y-154726190D01*
X152321428Y-154726190D01*
X152369047Y-154750000D01*
X152392857Y-154773809D01*
X152416666Y-154821428D01*
X152416666Y-154892857D01*
X152392857Y-154940476D01*
X152369047Y-154964285D01*
X152321428Y-154988095D01*
X152130952Y-154988095D01*
X152892857Y-155226190D02*
X152607142Y-155226190D01*
X152750000Y-155226190D02*
X152750000Y-154726190D01*
X152702380Y-154797619D01*
X152654761Y-154845238D01*
X152607142Y-154869047D01*
%TO.C,R2*%
D12*
X153702380Y-148214285D02*
X153702380Y-147595238D01*
X154083333Y-147928571D01*
X154083333Y-147785714D01*
X154130952Y-147690476D01*
X154178571Y-147642857D01*
X154273809Y-147595238D01*
X154511904Y-147595238D01*
X154607142Y-147642857D01*
X154654761Y-147690476D01*
X154702380Y-147785714D01*
X154702380Y-148071428D01*
X154654761Y-148166666D01*
X154607142Y-148214285D01*
X154702380Y-147119047D02*
X154702380Y-146928571D01*
X154654761Y-146833333D01*
X154607142Y-146785714D01*
X154464285Y-146690476D01*
X154273809Y-146642857D01*
X153892857Y-146642857D01*
X153797619Y-146690476D01*
X153750000Y-146738095D01*
X153702380Y-146833333D01*
X153702380Y-147023809D01*
X153750000Y-147119047D01*
X153797619Y-147166666D01*
X153892857Y-147214285D01*
X154130952Y-147214285D01*
X154226190Y-147166666D01*
X154273809Y-147119047D01*
X154321428Y-147023809D01*
X154321428Y-146833333D01*
X154273809Y-146738095D01*
X154226190Y-146690476D01*
X154130952Y-146642857D01*
X154702380Y-146214285D02*
X153702380Y-146214285D01*
X154321428Y-146119047D02*
X154702380Y-145833333D01*
X154035714Y-145833333D02*
X154416666Y-146214285D01*
D14*
X152726190Y-147083333D02*
X152488095Y-147250000D01*
X152726190Y-147369047D02*
X152226190Y-147369047D01*
X152226190Y-147178571D01*
X152250000Y-147130952D01*
X152273809Y-147107142D01*
X152321428Y-147083333D01*
X152392857Y-147083333D01*
X152440476Y-147107142D01*
X152464285Y-147130952D01*
X152488095Y-147178571D01*
X152488095Y-147369047D01*
X152273809Y-146892857D02*
X152250000Y-146869047D01*
X152226190Y-146821428D01*
X152226190Y-146702380D01*
X152250000Y-146654761D01*
X152273809Y-146630952D01*
X152321428Y-146607142D01*
X152369047Y-146607142D01*
X152440476Y-146630952D01*
X152726190Y-146916666D01*
X152726190Y-146607142D01*
%TO.C,R3*%
D12*
X143928571Y-146702380D02*
X143357142Y-146702380D01*
X143642857Y-146702380D02*
X143642857Y-145702380D01*
X143547619Y-145845238D01*
X143452380Y-145940476D01*
X143357142Y-145988095D01*
X144547619Y-145702380D02*
X144642857Y-145702380D01*
X144738095Y-145750000D01*
X144785714Y-145797619D01*
X144833333Y-145892857D01*
X144880952Y-146083333D01*
X144880952Y-146321428D01*
X144833333Y-146511904D01*
X144785714Y-146607142D01*
X144738095Y-146654761D01*
X144642857Y-146702380D01*
X144547619Y-146702380D01*
X144452380Y-146654761D01*
X144404761Y-146607142D01*
X144357142Y-146511904D01*
X144309523Y-146321428D01*
X144309523Y-146083333D01*
X144357142Y-145892857D01*
X144404761Y-145797619D01*
X144452380Y-145750000D01*
X144547619Y-145702380D01*
X145500000Y-145702380D02*
X145595238Y-145702380D01*
X145690476Y-145750000D01*
X145738095Y-145797619D01*
X145785714Y-145892857D01*
X145833333Y-146083333D01*
X145833333Y-146321428D01*
X145785714Y-146511904D01*
X145738095Y-146607142D01*
X145690476Y-146654761D01*
X145595238Y-146702380D01*
X145500000Y-146702380D01*
X145404761Y-146654761D01*
X145357142Y-146607142D01*
X145309523Y-146511904D01*
X145261904Y-146321428D01*
X145261904Y-146083333D01*
X145309523Y-145892857D01*
X145357142Y-145797619D01*
X145404761Y-145750000D01*
X145500000Y-145702380D01*
X146261904Y-146702380D02*
X146261904Y-145702380D01*
X146357142Y-146321428D02*
X146642857Y-146702380D01*
X146642857Y-146035714D02*
X146261904Y-146416666D01*
D14*
X144916666Y-148226190D02*
X144750000Y-147988095D01*
X144630952Y-148226190D02*
X144630952Y-147726190D01*
X144821428Y-147726190D01*
X144869047Y-147750000D01*
X144892857Y-147773809D01*
X144916666Y-147821428D01*
X144916666Y-147892857D01*
X144892857Y-147940476D01*
X144869047Y-147964285D01*
X144821428Y-147988095D01*
X144630952Y-147988095D01*
X145083333Y-147726190D02*
X145392857Y-147726190D01*
X145226190Y-147916666D01*
X145297619Y-147916666D01*
X145345238Y-147940476D01*
X145369047Y-147964285D01*
X145392857Y-148011904D01*
X145392857Y-148130952D01*
X145369047Y-148178571D01*
X145345238Y-148202380D01*
X145297619Y-148226190D01*
X145154761Y-148226190D01*
X145107142Y-148202380D01*
X145083333Y-148178571D01*
%TO.C,R4*%
D12*
X107904761Y-126702380D02*
X107333333Y-126702380D01*
X107619047Y-126702380D02*
X107619047Y-125702380D01*
X107523809Y-125845238D01*
X107428571Y-125940476D01*
X107333333Y-125988095D01*
X108523809Y-125702380D02*
X108619047Y-125702380D01*
X108714285Y-125750000D01*
X108761904Y-125797619D01*
X108809523Y-125892857D01*
X108857142Y-126083333D01*
X108857142Y-126321428D01*
X108809523Y-126511904D01*
X108761904Y-126607142D01*
X108714285Y-126654761D01*
X108619047Y-126702380D01*
X108523809Y-126702380D01*
X108428571Y-126654761D01*
X108380952Y-126607142D01*
X108333333Y-126511904D01*
X108285714Y-126321428D01*
X108285714Y-126083333D01*
X108333333Y-125892857D01*
X108380952Y-125797619D01*
X108428571Y-125750000D01*
X108523809Y-125702380D01*
X109285714Y-126702380D02*
X109285714Y-125702380D01*
X109380952Y-126321428D02*
X109666666Y-126702380D01*
X109666666Y-126035714D02*
X109285714Y-126416666D01*
D14*
X108416666Y-124726190D02*
X108250000Y-124488095D01*
X108130952Y-124726190D02*
X108130952Y-124226190D01*
X108321428Y-124226190D01*
X108369047Y-124250000D01*
X108392857Y-124273809D01*
X108416666Y-124321428D01*
X108416666Y-124392857D01*
X108392857Y-124440476D01*
X108369047Y-124464285D01*
X108321428Y-124488095D01*
X108130952Y-124488095D01*
X108845238Y-124392857D02*
X108845238Y-124726190D01*
X108726190Y-124202380D02*
X108607142Y-124559523D01*
X108916666Y-124559523D01*
%TO.C,R5*%
D12*
X107904761Y-128702380D02*
X107333333Y-128702380D01*
X107619047Y-128702380D02*
X107619047Y-127702380D01*
X107523809Y-127845238D01*
X107428571Y-127940476D01*
X107333333Y-127988095D01*
X108523809Y-127702380D02*
X108619047Y-127702380D01*
X108714285Y-127750000D01*
X108761904Y-127797619D01*
X108809523Y-127892857D01*
X108857142Y-128083333D01*
X108857142Y-128321428D01*
X108809523Y-128511904D01*
X108761904Y-128607142D01*
X108714285Y-128654761D01*
X108619047Y-128702380D01*
X108523809Y-128702380D01*
X108428571Y-128654761D01*
X108380952Y-128607142D01*
X108333333Y-128511904D01*
X108285714Y-128321428D01*
X108285714Y-128083333D01*
X108333333Y-127892857D01*
X108380952Y-127797619D01*
X108428571Y-127750000D01*
X108523809Y-127702380D01*
X109285714Y-128702380D02*
X109285714Y-127702380D01*
X109380952Y-128321428D02*
X109666666Y-128702380D01*
X109666666Y-128035714D02*
X109285714Y-128416666D01*
D14*
X108416666Y-126726190D02*
X108250000Y-126488095D01*
X108130952Y-126726190D02*
X108130952Y-126226190D01*
X108321428Y-126226190D01*
X108369047Y-126250000D01*
X108392857Y-126273809D01*
X108416666Y-126321428D01*
X108416666Y-126392857D01*
X108392857Y-126440476D01*
X108369047Y-126464285D01*
X108321428Y-126488095D01*
X108130952Y-126488095D01*
X108869047Y-126226190D02*
X108630952Y-126226190D01*
X108607142Y-126464285D01*
X108630952Y-126440476D01*
X108678571Y-126416666D01*
X108797619Y-126416666D01*
X108845238Y-126440476D01*
X108869047Y-126464285D01*
X108892857Y-126511904D01*
X108892857Y-126630952D01*
X108869047Y-126678571D01*
X108845238Y-126702380D01*
X108797619Y-126726190D01*
X108678571Y-126726190D01*
X108630952Y-126702380D01*
X108607142Y-126678571D01*
%TO.C,R7*%
D12*
X167571428Y-146535714D02*
X167571428Y-147202380D01*
X167333333Y-146154761D02*
X167095238Y-146869047D01*
X167714285Y-146869047D01*
X168095238Y-147107142D02*
X168142857Y-147154761D01*
X168095238Y-147202380D01*
X168047619Y-147154761D01*
X168095238Y-147107142D01*
X168095238Y-147202380D01*
X168476190Y-146202380D02*
X169142857Y-146202380D01*
X168714285Y-147202380D01*
X169523809Y-147202380D02*
X169523809Y-146202380D01*
X169619047Y-146821428D02*
X169904761Y-147202380D01*
X169904761Y-146535714D02*
X169523809Y-146916666D01*
D14*
X168416666Y-148726190D02*
X168250000Y-148488095D01*
X168130952Y-148726190D02*
X168130952Y-148226190D01*
X168321428Y-148226190D01*
X168369047Y-148250000D01*
X168392857Y-148273809D01*
X168416666Y-148321428D01*
X168416666Y-148392857D01*
X168392857Y-148440476D01*
X168369047Y-148464285D01*
X168321428Y-148488095D01*
X168130952Y-148488095D01*
X168583333Y-148226190D02*
X168916666Y-148226190D01*
X168702380Y-148726190D01*
%TO.C,R8*%
D12*
X148604761Y-133702380D02*
X148033333Y-133702380D01*
X148319047Y-133702380D02*
X148319047Y-132702380D01*
X148223809Y-132845238D01*
X148128571Y-132940476D01*
X148033333Y-132988095D01*
X149223809Y-132702380D02*
X149319047Y-132702380D01*
X149414285Y-132750000D01*
X149461904Y-132797619D01*
X149509523Y-132892857D01*
X149557142Y-133083333D01*
X149557142Y-133321428D01*
X149509523Y-133511904D01*
X149461904Y-133607142D01*
X149414285Y-133654761D01*
X149319047Y-133702380D01*
X149223809Y-133702380D01*
X149128571Y-133654761D01*
X149080952Y-133607142D01*
X149033333Y-133511904D01*
X148985714Y-133321428D01*
X148985714Y-133083333D01*
X149033333Y-132892857D01*
X149080952Y-132797619D01*
X149128571Y-132750000D01*
X149223809Y-132702380D01*
X149985714Y-133702380D02*
X149985714Y-132702380D01*
X150080952Y-133321428D02*
X150366666Y-133702380D01*
X150366666Y-133035714D02*
X149985714Y-133416666D01*
D14*
X149116666Y-131726190D02*
X148950000Y-131488095D01*
X148830952Y-131726190D02*
X148830952Y-131226190D01*
X149021428Y-131226190D01*
X149069047Y-131250000D01*
X149092857Y-131273809D01*
X149116666Y-131321428D01*
X149116666Y-131392857D01*
X149092857Y-131440476D01*
X149069047Y-131464285D01*
X149021428Y-131488095D01*
X148830952Y-131488095D01*
X149402380Y-131440476D02*
X149354761Y-131416666D01*
X149330952Y-131392857D01*
X149307142Y-131345238D01*
X149307142Y-131321428D01*
X149330952Y-131273809D01*
X149354761Y-131250000D01*
X149402380Y-131226190D01*
X149497619Y-131226190D01*
X149545238Y-131250000D01*
X149569047Y-131273809D01*
X149592857Y-131321428D01*
X149592857Y-131345238D01*
X149569047Y-131392857D01*
X149545238Y-131416666D01*
X149497619Y-131440476D01*
X149402380Y-131440476D01*
X149354761Y-131464285D01*
X149330952Y-131488095D01*
X149307142Y-131535714D01*
X149307142Y-131630952D01*
X149330952Y-131678571D01*
X149354761Y-131702380D01*
X149402380Y-131726190D01*
X149497619Y-131726190D01*
X149545238Y-131702380D01*
X149569047Y-131678571D01*
X149592857Y-131630952D01*
X149592857Y-131535714D01*
X149569047Y-131488095D01*
X149545238Y-131464285D01*
X149497619Y-131440476D01*
%TO.C,R9*%
D12*
X148604761Y-131602380D02*
X148033333Y-131602380D01*
X148319047Y-131602380D02*
X148319047Y-130602380D01*
X148223809Y-130745238D01*
X148128571Y-130840476D01*
X148033333Y-130888095D01*
X149223809Y-130602380D02*
X149319047Y-130602380D01*
X149414285Y-130650000D01*
X149461904Y-130697619D01*
X149509523Y-130792857D01*
X149557142Y-130983333D01*
X149557142Y-131221428D01*
X149509523Y-131411904D01*
X149461904Y-131507142D01*
X149414285Y-131554761D01*
X149319047Y-131602380D01*
X149223809Y-131602380D01*
X149128571Y-131554761D01*
X149080952Y-131507142D01*
X149033333Y-131411904D01*
X148985714Y-131221428D01*
X148985714Y-130983333D01*
X149033333Y-130792857D01*
X149080952Y-130697619D01*
X149128571Y-130650000D01*
X149223809Y-130602380D01*
X149985714Y-131602380D02*
X149985714Y-130602380D01*
X150080952Y-131221428D02*
X150366666Y-131602380D01*
X150366666Y-130935714D02*
X149985714Y-131316666D01*
D14*
X149116666Y-129626190D02*
X148950000Y-129388095D01*
X148830952Y-129626190D02*
X148830952Y-129126190D01*
X149021428Y-129126190D01*
X149069047Y-129150000D01*
X149092857Y-129173809D01*
X149116666Y-129221428D01*
X149116666Y-129292857D01*
X149092857Y-129340476D01*
X149069047Y-129364285D01*
X149021428Y-129388095D01*
X148830952Y-129388095D01*
X149354761Y-129626190D02*
X149450000Y-129626190D01*
X149497619Y-129602380D01*
X149521428Y-129578571D01*
X149569047Y-129507142D01*
X149592857Y-129411904D01*
X149592857Y-129221428D01*
X149569047Y-129173809D01*
X149545238Y-129150000D01*
X149497619Y-129126190D01*
X149402380Y-129126190D01*
X149354761Y-129150000D01*
X149330952Y-129173809D01*
X149307142Y-129221428D01*
X149307142Y-129340476D01*
X149330952Y-129388095D01*
X149354761Y-129411904D01*
X149402380Y-129435714D01*
X149497619Y-129435714D01*
X149545238Y-129411904D01*
X149569047Y-129388095D01*
X149592857Y-129340476D01*
%TO.C,R10*%
D12*
X171035714Y-160428571D02*
X171702380Y-160428571D01*
X170654761Y-160666666D02*
X171369047Y-160904761D01*
X171369047Y-160285714D01*
X171607142Y-159904761D02*
X171654761Y-159857142D01*
X171702380Y-159904761D01*
X171654761Y-159952380D01*
X171607142Y-159904761D01*
X171702380Y-159904761D01*
X170702380Y-159523809D02*
X170702380Y-158857142D01*
X171702380Y-159285714D01*
X171702380Y-158476190D02*
X170702380Y-158476190D01*
X171321428Y-158380952D02*
X171702380Y-158095238D01*
X171035714Y-158095238D02*
X171416666Y-158476190D01*
D14*
X169726190Y-159821428D02*
X169488095Y-159988095D01*
X169726190Y-160107142D02*
X169226190Y-160107142D01*
X169226190Y-159916666D01*
X169250000Y-159869047D01*
X169273809Y-159845238D01*
X169321428Y-159821428D01*
X169392857Y-159821428D01*
X169440476Y-159845238D01*
X169464285Y-159869047D01*
X169488095Y-159916666D01*
X169488095Y-160107142D01*
X169726190Y-159345238D02*
X169726190Y-159630952D01*
X169726190Y-159488095D02*
X169226190Y-159488095D01*
X169297619Y-159535714D01*
X169345238Y-159583333D01*
X169369047Y-159630952D01*
X169226190Y-159035714D02*
X169226190Y-158988095D01*
X169250000Y-158940476D01*
X169273809Y-158916666D01*
X169321428Y-158892857D01*
X169416666Y-158869047D01*
X169535714Y-158869047D01*
X169630952Y-158892857D01*
X169678571Y-158916666D01*
X169702380Y-158940476D01*
X169726190Y-158988095D01*
X169726190Y-159035714D01*
X169702380Y-159083333D01*
X169678571Y-159107142D01*
X169630952Y-159130952D01*
X169535714Y-159154761D01*
X169416666Y-159154761D01*
X169321428Y-159130952D01*
X169273809Y-159107142D01*
X169250000Y-159083333D01*
X169226190Y-159035714D01*
%TO.C,R11*%
D12*
X158035714Y-160428571D02*
X158702380Y-160428571D01*
X157654761Y-160666666D02*
X158369047Y-160904761D01*
X158369047Y-160285714D01*
X158607142Y-159904761D02*
X158654761Y-159857142D01*
X158702380Y-159904761D01*
X158654761Y-159952380D01*
X158607142Y-159904761D01*
X158702380Y-159904761D01*
X157702380Y-159523809D02*
X157702380Y-158857142D01*
X158702380Y-159285714D01*
X158702380Y-158476190D02*
X157702380Y-158476190D01*
X158321428Y-158380952D02*
X158702380Y-158095238D01*
X158035714Y-158095238D02*
X158416666Y-158476190D01*
D14*
X156726190Y-159821428D02*
X156488095Y-159988095D01*
X156726190Y-160107142D02*
X156226190Y-160107142D01*
X156226190Y-159916666D01*
X156250000Y-159869047D01*
X156273809Y-159845238D01*
X156321428Y-159821428D01*
X156392857Y-159821428D01*
X156440476Y-159845238D01*
X156464285Y-159869047D01*
X156488095Y-159916666D01*
X156488095Y-160107142D01*
X156726190Y-159345238D02*
X156726190Y-159630952D01*
X156726190Y-159488095D02*
X156226190Y-159488095D01*
X156297619Y-159535714D01*
X156345238Y-159583333D01*
X156369047Y-159630952D01*
X156726190Y-158869047D02*
X156726190Y-159154761D01*
X156726190Y-159011904D02*
X156226190Y-159011904D01*
X156297619Y-159059523D01*
X156345238Y-159107142D01*
X156369047Y-159154761D01*
%TO.C,R12*%
D12*
X156571428Y-150035714D02*
X156571428Y-150702380D01*
X156333333Y-149654761D02*
X156095238Y-150369047D01*
X156714285Y-150369047D01*
X157095238Y-150607142D02*
X157142857Y-150654761D01*
X157095238Y-150702380D01*
X157047619Y-150654761D01*
X157095238Y-150607142D01*
X157095238Y-150702380D01*
X157476190Y-149702380D02*
X158142857Y-149702380D01*
X157714285Y-150702380D01*
X158523809Y-150702380D02*
X158523809Y-149702380D01*
X158619047Y-150321428D02*
X158904761Y-150702380D01*
X158904761Y-150035714D02*
X158523809Y-150416666D01*
D14*
X157178571Y-148726190D02*
X157011904Y-148488095D01*
X156892857Y-148726190D02*
X156892857Y-148226190D01*
X157083333Y-148226190D01*
X157130952Y-148250000D01*
X157154761Y-148273809D01*
X157178571Y-148321428D01*
X157178571Y-148392857D01*
X157154761Y-148440476D01*
X157130952Y-148464285D01*
X157083333Y-148488095D01*
X156892857Y-148488095D01*
X157654761Y-148726190D02*
X157369047Y-148726190D01*
X157511904Y-148726190D02*
X157511904Y-148226190D01*
X157464285Y-148297619D01*
X157416666Y-148345238D01*
X157369047Y-148369047D01*
X157845238Y-148273809D02*
X157869047Y-148250000D01*
X157916666Y-148226190D01*
X158035714Y-148226190D01*
X158083333Y-148250000D01*
X158107142Y-148273809D01*
X158130952Y-148321428D01*
X158130952Y-148369047D01*
X158107142Y-148440476D01*
X157821428Y-148726190D01*
X158130952Y-148726190D01*
%TO.C,R14*%
D12*
X132202380Y-161071428D02*
X132202380Y-161642857D01*
X132202380Y-161357142D02*
X131202380Y-161357142D01*
X131345238Y-161452380D01*
X131440476Y-161547619D01*
X131488095Y-161642857D01*
X131202380Y-160452380D02*
X131202380Y-160357142D01*
X131250000Y-160261904D01*
X131297619Y-160214285D01*
X131392857Y-160166666D01*
X131583333Y-160119047D01*
X131821428Y-160119047D01*
X132011904Y-160166666D01*
X132107142Y-160214285D01*
X132154761Y-160261904D01*
X132202380Y-160357142D01*
X132202380Y-160452380D01*
X132154761Y-160547619D01*
X132107142Y-160595238D01*
X132011904Y-160642857D01*
X131821428Y-160690476D01*
X131583333Y-160690476D01*
X131392857Y-160642857D01*
X131297619Y-160595238D01*
X131250000Y-160547619D01*
X131202380Y-160452380D01*
X131202380Y-159500000D02*
X131202380Y-159404761D01*
X131250000Y-159309523D01*
X131297619Y-159261904D01*
X131392857Y-159214285D01*
X131583333Y-159166666D01*
X131821428Y-159166666D01*
X132011904Y-159214285D01*
X132107142Y-159261904D01*
X132154761Y-159309523D01*
X132202380Y-159404761D01*
X132202380Y-159500000D01*
X132154761Y-159595238D01*
X132107142Y-159642857D01*
X132011904Y-159690476D01*
X131821428Y-159738095D01*
X131583333Y-159738095D01*
X131392857Y-159690476D01*
X131297619Y-159642857D01*
X131250000Y-159595238D01*
X131202380Y-159500000D01*
X132202380Y-158738095D02*
X131202380Y-158738095D01*
X131821428Y-158642857D02*
X132202380Y-158357142D01*
X131535714Y-158357142D02*
X131916666Y-158738095D01*
D14*
X133726190Y-160321428D02*
X133488095Y-160488095D01*
X133726190Y-160607142D02*
X133226190Y-160607142D01*
X133226190Y-160416666D01*
X133250000Y-160369047D01*
X133273809Y-160345238D01*
X133321428Y-160321428D01*
X133392857Y-160321428D01*
X133440476Y-160345238D01*
X133464285Y-160369047D01*
X133488095Y-160416666D01*
X133488095Y-160607142D01*
X133726190Y-159845238D02*
X133726190Y-160130952D01*
X133726190Y-159988095D02*
X133226190Y-159988095D01*
X133297619Y-160035714D01*
X133345238Y-160083333D01*
X133369047Y-160130952D01*
X133392857Y-159416666D02*
X133726190Y-159416666D01*
X133202380Y-159535714D02*
X133559523Y-159654761D01*
X133559523Y-159345238D01*
%TO.C,R16*%
D12*
X122702380Y-161071428D02*
X122702380Y-161642857D01*
X122702380Y-161357142D02*
X121702380Y-161357142D01*
X121845238Y-161452380D01*
X121940476Y-161547619D01*
X121988095Y-161642857D01*
X121702380Y-160452380D02*
X121702380Y-160357142D01*
X121750000Y-160261904D01*
X121797619Y-160214285D01*
X121892857Y-160166666D01*
X122083333Y-160119047D01*
X122321428Y-160119047D01*
X122511904Y-160166666D01*
X122607142Y-160214285D01*
X122654761Y-160261904D01*
X122702380Y-160357142D01*
X122702380Y-160452380D01*
X122654761Y-160547619D01*
X122607142Y-160595238D01*
X122511904Y-160642857D01*
X122321428Y-160690476D01*
X122083333Y-160690476D01*
X121892857Y-160642857D01*
X121797619Y-160595238D01*
X121750000Y-160547619D01*
X121702380Y-160452380D01*
X121702380Y-159500000D02*
X121702380Y-159404761D01*
X121750000Y-159309523D01*
X121797619Y-159261904D01*
X121892857Y-159214285D01*
X122083333Y-159166666D01*
X122321428Y-159166666D01*
X122511904Y-159214285D01*
X122607142Y-159261904D01*
X122654761Y-159309523D01*
X122702380Y-159404761D01*
X122702380Y-159500000D01*
X122654761Y-159595238D01*
X122607142Y-159642857D01*
X122511904Y-159690476D01*
X122321428Y-159738095D01*
X122083333Y-159738095D01*
X121892857Y-159690476D01*
X121797619Y-159642857D01*
X121750000Y-159595238D01*
X121702380Y-159500000D01*
X122702380Y-158738095D02*
X121702380Y-158738095D01*
X122321428Y-158642857D02*
X122702380Y-158357142D01*
X122035714Y-158357142D02*
X122416666Y-158738095D01*
D14*
X120726190Y-160321428D02*
X120488095Y-160488095D01*
X120726190Y-160607142D02*
X120226190Y-160607142D01*
X120226190Y-160416666D01*
X120250000Y-160369047D01*
X120273809Y-160345238D01*
X120321428Y-160321428D01*
X120392857Y-160321428D01*
X120440476Y-160345238D01*
X120464285Y-160369047D01*
X120488095Y-160416666D01*
X120488095Y-160607142D01*
X120726190Y-159845238D02*
X120726190Y-160130952D01*
X120726190Y-159988095D02*
X120226190Y-159988095D01*
X120297619Y-160035714D01*
X120345238Y-160083333D01*
X120369047Y-160130952D01*
X120226190Y-159416666D02*
X120226190Y-159511904D01*
X120250000Y-159559523D01*
X120273809Y-159583333D01*
X120345238Y-159630952D01*
X120440476Y-159654761D01*
X120630952Y-159654761D01*
X120678571Y-159630952D01*
X120702380Y-159607142D01*
X120726190Y-159559523D01*
X120726190Y-159464285D01*
X120702380Y-159416666D01*
X120678571Y-159392857D01*
X120630952Y-159369047D01*
X120511904Y-159369047D01*
X120464285Y-159392857D01*
X120440476Y-159416666D01*
X120416666Y-159464285D01*
X120416666Y-159559523D01*
X120440476Y-159607142D01*
X120464285Y-159630952D01*
X120511904Y-159654761D01*
%TO.C,R13*%
D12*
X118535714Y-153166666D02*
X119202380Y-153166666D01*
X118154761Y-153404761D02*
X118869047Y-153642857D01*
X118869047Y-153023809D01*
X118202380Y-152738095D02*
X118202380Y-152071428D01*
X119202380Y-152500000D01*
X118202380Y-151500000D02*
X118202380Y-151404761D01*
X118250000Y-151309523D01*
X118297619Y-151261904D01*
X118392857Y-151214285D01*
X118583333Y-151166666D01*
X118821428Y-151166666D01*
X119011904Y-151214285D01*
X119107142Y-151261904D01*
X119154761Y-151309523D01*
X119202380Y-151404761D01*
X119202380Y-151500000D01*
X119154761Y-151595238D01*
X119107142Y-151642857D01*
X119011904Y-151690476D01*
X118821428Y-151738095D01*
X118583333Y-151738095D01*
X118392857Y-151690476D01*
X118297619Y-151642857D01*
X118250000Y-151595238D01*
X118202380Y-151500000D01*
X119202380Y-150738095D02*
X118202380Y-150738095D01*
X118821428Y-150642857D02*
X119202380Y-150357142D01*
X118535714Y-150357142D02*
X118916666Y-150738095D01*
D14*
X120726190Y-152321428D02*
X120488095Y-152488095D01*
X120726190Y-152607142D02*
X120226190Y-152607142D01*
X120226190Y-152416666D01*
X120250000Y-152369047D01*
X120273809Y-152345238D01*
X120321428Y-152321428D01*
X120392857Y-152321428D01*
X120440476Y-152345238D01*
X120464285Y-152369047D01*
X120488095Y-152416666D01*
X120488095Y-152607142D01*
X120726190Y-151845238D02*
X120726190Y-152130952D01*
X120726190Y-151988095D02*
X120226190Y-151988095D01*
X120297619Y-152035714D01*
X120345238Y-152083333D01*
X120369047Y-152130952D01*
X120226190Y-151678571D02*
X120226190Y-151369047D01*
X120416666Y-151535714D01*
X120416666Y-151464285D01*
X120440476Y-151416666D01*
X120464285Y-151392857D01*
X120511904Y-151369047D01*
X120630952Y-151369047D01*
X120678571Y-151392857D01*
X120702380Y-151416666D01*
X120726190Y-151464285D01*
X120726190Y-151607142D01*
X120702380Y-151654761D01*
X120678571Y-151678571D01*
%TO.C,R23*%
D12*
X114202380Y-161071428D02*
X114202380Y-161642857D01*
X114202380Y-161357142D02*
X113202380Y-161357142D01*
X113345238Y-161452380D01*
X113440476Y-161547619D01*
X113488095Y-161642857D01*
X113202380Y-160452380D02*
X113202380Y-160357142D01*
X113250000Y-160261904D01*
X113297619Y-160214285D01*
X113392857Y-160166666D01*
X113583333Y-160119047D01*
X113821428Y-160119047D01*
X114011904Y-160166666D01*
X114107142Y-160214285D01*
X114154761Y-160261904D01*
X114202380Y-160357142D01*
X114202380Y-160452380D01*
X114154761Y-160547619D01*
X114107142Y-160595238D01*
X114011904Y-160642857D01*
X113821428Y-160690476D01*
X113583333Y-160690476D01*
X113392857Y-160642857D01*
X113297619Y-160595238D01*
X113250000Y-160547619D01*
X113202380Y-160452380D01*
X113202380Y-159500000D02*
X113202380Y-159404761D01*
X113250000Y-159309523D01*
X113297619Y-159261904D01*
X113392857Y-159214285D01*
X113583333Y-159166666D01*
X113821428Y-159166666D01*
X114011904Y-159214285D01*
X114107142Y-159261904D01*
X114154761Y-159309523D01*
X114202380Y-159404761D01*
X114202380Y-159500000D01*
X114154761Y-159595238D01*
X114107142Y-159642857D01*
X114011904Y-159690476D01*
X113821428Y-159738095D01*
X113583333Y-159738095D01*
X113392857Y-159690476D01*
X113297619Y-159642857D01*
X113250000Y-159595238D01*
X113202380Y-159500000D01*
X114202380Y-158738095D02*
X113202380Y-158738095D01*
X113821428Y-158642857D02*
X114202380Y-158357142D01*
X113535714Y-158357142D02*
X113916666Y-158738095D01*
D14*
X115726190Y-160321428D02*
X115488095Y-160488095D01*
X115726190Y-160607142D02*
X115226190Y-160607142D01*
X115226190Y-160416666D01*
X115250000Y-160369047D01*
X115273809Y-160345238D01*
X115321428Y-160321428D01*
X115392857Y-160321428D01*
X115440476Y-160345238D01*
X115464285Y-160369047D01*
X115488095Y-160416666D01*
X115488095Y-160607142D01*
X115273809Y-160130952D02*
X115250000Y-160107142D01*
X115226190Y-160059523D01*
X115226190Y-159940476D01*
X115250000Y-159892857D01*
X115273809Y-159869047D01*
X115321428Y-159845238D01*
X115369047Y-159845238D01*
X115440476Y-159869047D01*
X115726190Y-160154761D01*
X115726190Y-159845238D01*
X115226190Y-159678571D02*
X115226190Y-159369047D01*
X115416666Y-159535714D01*
X115416666Y-159464285D01*
X115440476Y-159416666D01*
X115464285Y-159392857D01*
X115511904Y-159369047D01*
X115630952Y-159369047D01*
X115678571Y-159392857D01*
X115702380Y-159416666D01*
X115726190Y-159464285D01*
X115726190Y-159607142D01*
X115702380Y-159654761D01*
X115678571Y-159678571D01*
%TO.C,R24*%
D12*
X104702380Y-160571428D02*
X104702380Y-161142857D01*
X104702380Y-160857142D02*
X103702380Y-160857142D01*
X103845238Y-160952380D01*
X103940476Y-161047619D01*
X103988095Y-161142857D01*
X103702380Y-159952380D02*
X103702380Y-159857142D01*
X103750000Y-159761904D01*
X103797619Y-159714285D01*
X103892857Y-159666666D01*
X104083333Y-159619047D01*
X104321428Y-159619047D01*
X104511904Y-159666666D01*
X104607142Y-159714285D01*
X104654761Y-159761904D01*
X104702380Y-159857142D01*
X104702380Y-159952380D01*
X104654761Y-160047619D01*
X104607142Y-160095238D01*
X104511904Y-160142857D01*
X104321428Y-160190476D01*
X104083333Y-160190476D01*
X103892857Y-160142857D01*
X103797619Y-160095238D01*
X103750000Y-160047619D01*
X103702380Y-159952380D01*
X103702380Y-159000000D02*
X103702380Y-158904761D01*
X103750000Y-158809523D01*
X103797619Y-158761904D01*
X103892857Y-158714285D01*
X104083333Y-158666666D01*
X104321428Y-158666666D01*
X104511904Y-158714285D01*
X104607142Y-158761904D01*
X104654761Y-158809523D01*
X104702380Y-158904761D01*
X104702380Y-159000000D01*
X104654761Y-159095238D01*
X104607142Y-159142857D01*
X104511904Y-159190476D01*
X104321428Y-159238095D01*
X104083333Y-159238095D01*
X103892857Y-159190476D01*
X103797619Y-159142857D01*
X103750000Y-159095238D01*
X103702380Y-159000000D01*
X104702380Y-158238095D02*
X103702380Y-158238095D01*
X104321428Y-158142857D02*
X104702380Y-157857142D01*
X104035714Y-157857142D02*
X104416666Y-158238095D01*
D14*
X102726190Y-159821428D02*
X102488095Y-159988095D01*
X102726190Y-160107142D02*
X102226190Y-160107142D01*
X102226190Y-159916666D01*
X102250000Y-159869047D01*
X102273809Y-159845238D01*
X102321428Y-159821428D01*
X102392857Y-159821428D01*
X102440476Y-159845238D01*
X102464285Y-159869047D01*
X102488095Y-159916666D01*
X102488095Y-160107142D01*
X102273809Y-159630952D02*
X102250000Y-159607142D01*
X102226190Y-159559523D01*
X102226190Y-159440476D01*
X102250000Y-159392857D01*
X102273809Y-159369047D01*
X102321428Y-159345238D01*
X102369047Y-159345238D01*
X102440476Y-159369047D01*
X102726190Y-159654761D01*
X102726190Y-159345238D01*
X102392857Y-158916666D02*
X102726190Y-158916666D01*
X102202380Y-159035714D02*
X102559523Y-159154761D01*
X102559523Y-158845238D01*
%TO.C,R17*%
D12*
X131904761Y-90702380D02*
X131333333Y-90702380D01*
X131619047Y-90702380D02*
X131619047Y-89702380D01*
X131523809Y-89845238D01*
X131428571Y-89940476D01*
X131333333Y-89988095D01*
X132523809Y-89702380D02*
X132619047Y-89702380D01*
X132714285Y-89750000D01*
X132761904Y-89797619D01*
X132809523Y-89892857D01*
X132857142Y-90083333D01*
X132857142Y-90321428D01*
X132809523Y-90511904D01*
X132761904Y-90607142D01*
X132714285Y-90654761D01*
X132619047Y-90702380D01*
X132523809Y-90702380D01*
X132428571Y-90654761D01*
X132380952Y-90607142D01*
X132333333Y-90511904D01*
X132285714Y-90321428D01*
X132285714Y-90083333D01*
X132333333Y-89892857D01*
X132380952Y-89797619D01*
X132428571Y-89750000D01*
X132523809Y-89702380D01*
X133285714Y-90702380D02*
X133285714Y-89702380D01*
X133380952Y-90321428D02*
X133666666Y-90702380D01*
X133666666Y-90035714D02*
X133285714Y-90416666D01*
D14*
X132178571Y-88726190D02*
X132011904Y-88488095D01*
X131892857Y-88726190D02*
X131892857Y-88226190D01*
X132083333Y-88226190D01*
X132130952Y-88250000D01*
X132154761Y-88273809D01*
X132178571Y-88321428D01*
X132178571Y-88392857D01*
X132154761Y-88440476D01*
X132130952Y-88464285D01*
X132083333Y-88488095D01*
X131892857Y-88488095D01*
X132654761Y-88726190D02*
X132369047Y-88726190D01*
X132511904Y-88726190D02*
X132511904Y-88226190D01*
X132464285Y-88297619D01*
X132416666Y-88345238D01*
X132369047Y-88369047D01*
X132821428Y-88226190D02*
X133154761Y-88226190D01*
X132940476Y-88726190D01*
%TO.C,R18*%
D12*
X138904761Y-87202380D02*
X138333333Y-87202380D01*
X138619047Y-87202380D02*
X138619047Y-86202380D01*
X138523809Y-86345238D01*
X138428571Y-86440476D01*
X138333333Y-86488095D01*
X139523809Y-86202380D02*
X139619047Y-86202380D01*
X139714285Y-86250000D01*
X139761904Y-86297619D01*
X139809523Y-86392857D01*
X139857142Y-86583333D01*
X139857142Y-86821428D01*
X139809523Y-87011904D01*
X139761904Y-87107142D01*
X139714285Y-87154761D01*
X139619047Y-87202380D01*
X139523809Y-87202380D01*
X139428571Y-87154761D01*
X139380952Y-87107142D01*
X139333333Y-87011904D01*
X139285714Y-86821428D01*
X139285714Y-86583333D01*
X139333333Y-86392857D01*
X139380952Y-86297619D01*
X139428571Y-86250000D01*
X139523809Y-86202380D01*
X140285714Y-87202380D02*
X140285714Y-86202380D01*
X140380952Y-86821428D02*
X140666666Y-87202380D01*
X140666666Y-86535714D02*
X140285714Y-86916666D01*
D14*
X139178571Y-88726190D02*
X139011904Y-88488095D01*
X138892857Y-88726190D02*
X138892857Y-88226190D01*
X139083333Y-88226190D01*
X139130952Y-88250000D01*
X139154761Y-88273809D01*
X139178571Y-88321428D01*
X139178571Y-88392857D01*
X139154761Y-88440476D01*
X139130952Y-88464285D01*
X139083333Y-88488095D01*
X138892857Y-88488095D01*
X139654761Y-88726190D02*
X139369047Y-88726190D01*
X139511904Y-88726190D02*
X139511904Y-88226190D01*
X139464285Y-88297619D01*
X139416666Y-88345238D01*
X139369047Y-88369047D01*
X139940476Y-88440476D02*
X139892857Y-88416666D01*
X139869047Y-88392857D01*
X139845238Y-88345238D01*
X139845238Y-88321428D01*
X139869047Y-88273809D01*
X139892857Y-88250000D01*
X139940476Y-88226190D01*
X140035714Y-88226190D01*
X140083333Y-88250000D01*
X140107142Y-88273809D01*
X140130952Y-88321428D01*
X140130952Y-88345238D01*
X140107142Y-88392857D01*
X140083333Y-88416666D01*
X140035714Y-88440476D01*
X139940476Y-88440476D01*
X139892857Y-88464285D01*
X139869047Y-88488095D01*
X139845238Y-88535714D01*
X139845238Y-88630952D01*
X139869047Y-88678571D01*
X139892857Y-88702380D01*
X139940476Y-88726190D01*
X140035714Y-88726190D01*
X140083333Y-88702380D01*
X140107142Y-88678571D01*
X140130952Y-88630952D01*
X140130952Y-88535714D01*
X140107142Y-88488095D01*
X140083333Y-88464285D01*
X140035714Y-88440476D01*
%TO.C,R19*%
D12*
X130404761Y-111702380D02*
X129833333Y-111702380D01*
X130119047Y-111702380D02*
X130119047Y-110702380D01*
X130023809Y-110845238D01*
X129928571Y-110940476D01*
X129833333Y-110988095D01*
X131023809Y-110702380D02*
X131119047Y-110702380D01*
X131214285Y-110750000D01*
X131261904Y-110797619D01*
X131309523Y-110892857D01*
X131357142Y-111083333D01*
X131357142Y-111321428D01*
X131309523Y-111511904D01*
X131261904Y-111607142D01*
X131214285Y-111654761D01*
X131119047Y-111702380D01*
X131023809Y-111702380D01*
X130928571Y-111654761D01*
X130880952Y-111607142D01*
X130833333Y-111511904D01*
X130785714Y-111321428D01*
X130785714Y-111083333D01*
X130833333Y-110892857D01*
X130880952Y-110797619D01*
X130928571Y-110750000D01*
X131023809Y-110702380D01*
X131785714Y-111702380D02*
X131785714Y-110702380D01*
X131880952Y-111321428D02*
X132166666Y-111702380D01*
X132166666Y-111035714D02*
X131785714Y-111416666D01*
D14*
X130678571Y-109726190D02*
X130511904Y-109488095D01*
X130392857Y-109726190D02*
X130392857Y-109226190D01*
X130583333Y-109226190D01*
X130630952Y-109250000D01*
X130654761Y-109273809D01*
X130678571Y-109321428D01*
X130678571Y-109392857D01*
X130654761Y-109440476D01*
X130630952Y-109464285D01*
X130583333Y-109488095D01*
X130392857Y-109488095D01*
X131154761Y-109726190D02*
X130869047Y-109726190D01*
X131011904Y-109726190D02*
X131011904Y-109226190D01*
X130964285Y-109297619D01*
X130916666Y-109345238D01*
X130869047Y-109369047D01*
X131392857Y-109726190D02*
X131488095Y-109726190D01*
X131535714Y-109702380D01*
X131559523Y-109678571D01*
X131607142Y-109607142D01*
X131630952Y-109511904D01*
X131630952Y-109321428D01*
X131607142Y-109273809D01*
X131583333Y-109250000D01*
X131535714Y-109226190D01*
X131440476Y-109226190D01*
X131392857Y-109250000D01*
X131369047Y-109273809D01*
X131345238Y-109321428D01*
X131345238Y-109440476D01*
X131369047Y-109488095D01*
X131392857Y-109511904D01*
X131440476Y-109535714D01*
X131535714Y-109535714D01*
X131583333Y-109511904D01*
X131607142Y-109488095D01*
X131630952Y-109440476D01*
%TO.C,R20*%
D12*
X141202380Y-86095238D02*
X141202380Y-86666666D01*
X141202380Y-86380952D02*
X140202380Y-86380952D01*
X140345238Y-86476190D01*
X140440476Y-86571428D01*
X140488095Y-86666666D01*
X140202380Y-85476190D02*
X140202380Y-85380952D01*
X140250000Y-85285714D01*
X140297619Y-85238095D01*
X140392857Y-85190476D01*
X140583333Y-85142857D01*
X140821428Y-85142857D01*
X141011904Y-85190476D01*
X141107142Y-85238095D01*
X141154761Y-85285714D01*
X141202380Y-85380952D01*
X141202380Y-85476190D01*
X141154761Y-85571428D01*
X141107142Y-85619047D01*
X141011904Y-85666666D01*
X140821428Y-85714285D01*
X140583333Y-85714285D01*
X140392857Y-85666666D01*
X140297619Y-85619047D01*
X140250000Y-85571428D01*
X140202380Y-85476190D01*
X141202380Y-84714285D02*
X140202380Y-84714285D01*
X140821428Y-84619047D02*
X141202380Y-84333333D01*
X140535714Y-84333333D02*
X140916666Y-84714285D01*
D14*
X139226190Y-85821428D02*
X138988095Y-85988095D01*
X139226190Y-86107142D02*
X138726190Y-86107142D01*
X138726190Y-85916666D01*
X138750000Y-85869047D01*
X138773809Y-85845238D01*
X138821428Y-85821428D01*
X138892857Y-85821428D01*
X138940476Y-85845238D01*
X138964285Y-85869047D01*
X138988095Y-85916666D01*
X138988095Y-86107142D01*
X138773809Y-85630952D02*
X138750000Y-85607142D01*
X138726190Y-85559523D01*
X138726190Y-85440476D01*
X138750000Y-85392857D01*
X138773809Y-85369047D01*
X138821428Y-85345238D01*
X138869047Y-85345238D01*
X138940476Y-85369047D01*
X139226190Y-85654761D01*
X139226190Y-85345238D01*
X138726190Y-85035714D02*
X138726190Y-84988095D01*
X138750000Y-84940476D01*
X138773809Y-84916666D01*
X138821428Y-84892857D01*
X138916666Y-84869047D01*
X139035714Y-84869047D01*
X139130952Y-84892857D01*
X139178571Y-84916666D01*
X139202380Y-84940476D01*
X139226190Y-84988095D01*
X139226190Y-85035714D01*
X139202380Y-85083333D01*
X139178571Y-85107142D01*
X139130952Y-85130952D01*
X139035714Y-85154761D01*
X138916666Y-85154761D01*
X138821428Y-85130952D01*
X138773809Y-85107142D01*
X138750000Y-85083333D01*
X138726190Y-85035714D01*
%TO.C,R21*%
D12*
X135202380Y-86095238D02*
X135202380Y-86666666D01*
X135202380Y-86380952D02*
X134202380Y-86380952D01*
X134345238Y-86476190D01*
X134440476Y-86571428D01*
X134488095Y-86666666D01*
X134202380Y-85476190D02*
X134202380Y-85380952D01*
X134250000Y-85285714D01*
X134297619Y-85238095D01*
X134392857Y-85190476D01*
X134583333Y-85142857D01*
X134821428Y-85142857D01*
X135011904Y-85190476D01*
X135107142Y-85238095D01*
X135154761Y-85285714D01*
X135202380Y-85380952D01*
X135202380Y-85476190D01*
X135154761Y-85571428D01*
X135107142Y-85619047D01*
X135011904Y-85666666D01*
X134821428Y-85714285D01*
X134583333Y-85714285D01*
X134392857Y-85666666D01*
X134297619Y-85619047D01*
X134250000Y-85571428D01*
X134202380Y-85476190D01*
X135202380Y-84714285D02*
X134202380Y-84714285D01*
X134821428Y-84619047D02*
X135202380Y-84333333D01*
X134535714Y-84333333D02*
X134916666Y-84714285D01*
D14*
X133226190Y-85821428D02*
X132988095Y-85988095D01*
X133226190Y-86107142D02*
X132726190Y-86107142D01*
X132726190Y-85916666D01*
X132750000Y-85869047D01*
X132773809Y-85845238D01*
X132821428Y-85821428D01*
X132892857Y-85821428D01*
X132940476Y-85845238D01*
X132964285Y-85869047D01*
X132988095Y-85916666D01*
X132988095Y-86107142D01*
X132773809Y-85630952D02*
X132750000Y-85607142D01*
X132726190Y-85559523D01*
X132726190Y-85440476D01*
X132750000Y-85392857D01*
X132773809Y-85369047D01*
X132821428Y-85345238D01*
X132869047Y-85345238D01*
X132940476Y-85369047D01*
X133226190Y-85654761D01*
X133226190Y-85345238D01*
X133226190Y-84869047D02*
X133226190Y-85154761D01*
X133226190Y-85011904D02*
X132726190Y-85011904D01*
X132797619Y-85059523D01*
X132845238Y-85107142D01*
X132869047Y-85154761D01*
%TO.C,SW1*%
D12*
X128552380Y-108119047D02*
X127552380Y-108119047D01*
X127552380Y-107738095D01*
X127600000Y-107642857D01*
X127647619Y-107595238D01*
X127742857Y-107547619D01*
X127885714Y-107547619D01*
X127980952Y-107595238D01*
X128028571Y-107642857D01*
X128076190Y-107738095D01*
X128076190Y-108119047D01*
X128028571Y-107119047D02*
X128028571Y-106785714D01*
X128552380Y-106642857D02*
X128552380Y-107119047D01*
X127552380Y-107119047D01*
X127552380Y-106642857D01*
X128457142Y-105642857D02*
X128504761Y-105690476D01*
X128552380Y-105833333D01*
X128552380Y-105928571D01*
X128504761Y-106071428D01*
X128409523Y-106166666D01*
X128314285Y-106214285D01*
X128123809Y-106261904D01*
X127980952Y-106261904D01*
X127790476Y-106214285D01*
X127695238Y-106166666D01*
X127600000Y-106071428D01*
X127552380Y-105928571D01*
X127552380Y-105833333D01*
X127600000Y-105690476D01*
X127647619Y-105642857D01*
X128552380Y-104690476D02*
X128552380Y-105261904D01*
X128552380Y-104976190D02*
X127552380Y-104976190D01*
X127695238Y-105071428D01*
X127790476Y-105166666D01*
X127838095Y-105261904D01*
X128552380Y-103738095D02*
X128552380Y-104309523D01*
X128552380Y-104023809D02*
X127552380Y-104023809D01*
X127695238Y-104119047D01*
X127790476Y-104214285D01*
X127838095Y-104309523D01*
X128552380Y-102738095D02*
X128076190Y-103071428D01*
X128552380Y-103309523D02*
X127552380Y-103309523D01*
X127552380Y-102928571D01*
X127600000Y-102833333D01*
X127647619Y-102785714D01*
X127742857Y-102738095D01*
X127885714Y-102738095D01*
X127980952Y-102785714D01*
X128028571Y-102833333D01*
X128076190Y-102928571D01*
X128076190Y-103309523D01*
X128171428Y-102309523D02*
X128171428Y-101547619D01*
X127885714Y-100642857D02*
X128552380Y-100642857D01*
X127504761Y-100880952D02*
X128219047Y-101119047D01*
X128219047Y-100500000D01*
X127647619Y-100166666D02*
X127600000Y-100119047D01*
X127552380Y-100023809D01*
X127552380Y-99785714D01*
X127600000Y-99690476D01*
X127647619Y-99642857D01*
X127742857Y-99595238D01*
X127838095Y-99595238D01*
X127980952Y-99642857D01*
X128552380Y-100214285D01*
X128552380Y-99595238D01*
X127647619Y-99214285D02*
X127600000Y-99166666D01*
X127552380Y-99071428D01*
X127552380Y-98833333D01*
X127600000Y-98738095D01*
X127647619Y-98690476D01*
X127742857Y-98642857D01*
X127838095Y-98642857D01*
X127980952Y-98690476D01*
X128552380Y-99261904D01*
X128552380Y-98642857D01*
X127552380Y-98023809D02*
X127552380Y-97928571D01*
X127600000Y-97833333D01*
X127647619Y-97785714D01*
X127742857Y-97738095D01*
X127933333Y-97690476D01*
X128171428Y-97690476D01*
X128361904Y-97738095D01*
X128457142Y-97785714D01*
X128504761Y-97833333D01*
X128552380Y-97928571D01*
X128552380Y-98023809D01*
X128504761Y-98119047D01*
X128457142Y-98166666D01*
X128361904Y-98214285D01*
X128171428Y-98261904D01*
X127933333Y-98261904D01*
X127742857Y-98214285D01*
X127647619Y-98166666D01*
X127600000Y-98119047D01*
X127552380Y-98023809D01*
X128028571Y-96928571D02*
X128028571Y-97261904D01*
X128552380Y-97261904D02*
X127552380Y-97261904D01*
X127552380Y-96785714D01*
X128171428Y-96404761D02*
X128171428Y-95642857D01*
X128504761Y-95214285D02*
X128552380Y-95071428D01*
X128552380Y-94833333D01*
X128504761Y-94738095D01*
X128457142Y-94690476D01*
X128361904Y-94642857D01*
X128266666Y-94642857D01*
X128171428Y-94690476D01*
X128123809Y-94738095D01*
X128076190Y-94833333D01*
X128028571Y-95023809D01*
X127980952Y-95119047D01*
X127933333Y-95166666D01*
X127838095Y-95214285D01*
X127742857Y-95214285D01*
X127647619Y-95166666D01*
X127600000Y-95119047D01*
X127552380Y-95023809D01*
X127552380Y-94785714D01*
X127600000Y-94642857D01*
X127552380Y-94023809D02*
X127552380Y-93928571D01*
X127600000Y-93833333D01*
X127647619Y-93785714D01*
X127742857Y-93738095D01*
X127933333Y-93690476D01*
X128171428Y-93690476D01*
X128361904Y-93738095D01*
X128457142Y-93785714D01*
X128504761Y-93833333D01*
X128552380Y-93928571D01*
X128552380Y-94023809D01*
X128504761Y-94119047D01*
X128457142Y-94166666D01*
X128361904Y-94214285D01*
X128171428Y-94261904D01*
X127933333Y-94261904D01*
X127742857Y-94214285D01*
X127647619Y-94166666D01*
X127600000Y-94119047D01*
X127552380Y-94023809D01*
X127552380Y-93071428D02*
X127552380Y-92976190D01*
X127600000Y-92880952D01*
X127647619Y-92833333D01*
X127742857Y-92785714D01*
X127933333Y-92738095D01*
X128171428Y-92738095D01*
X128361904Y-92785714D01*
X128457142Y-92833333D01*
X128504761Y-92880952D01*
X128552380Y-92976190D01*
X128552380Y-93071428D01*
X128504761Y-93166666D01*
X128457142Y-93214285D01*
X128361904Y-93261904D01*
X128171428Y-93309523D01*
X127933333Y-93309523D01*
X127742857Y-93261904D01*
X127647619Y-93214285D01*
X127600000Y-93166666D01*
X127552380Y-93071428D01*
X127647619Y-92357142D02*
X127600000Y-92309523D01*
X127552380Y-92214285D01*
X127552380Y-91976190D01*
X127600000Y-91880952D01*
X127647619Y-91833333D01*
X127742857Y-91785714D01*
X127838095Y-91785714D01*
X127980952Y-91833333D01*
X128552380Y-92404761D01*
X128552380Y-91785714D01*
X127885714Y-90928571D02*
X128552380Y-90928571D01*
X127504761Y-91166666D02*
X128219047Y-91404761D01*
X128219047Y-90785714D01*
X132604761Y-104433333D02*
X132652380Y-104290476D01*
X132652380Y-104052380D01*
X132604761Y-103957142D01*
X132557142Y-103909523D01*
X132461904Y-103861904D01*
X132366666Y-103861904D01*
X132271428Y-103909523D01*
X132223809Y-103957142D01*
X132176190Y-104052380D01*
X132128571Y-104242857D01*
X132080952Y-104338095D01*
X132033333Y-104385714D01*
X131938095Y-104433333D01*
X131842857Y-104433333D01*
X131747619Y-104385714D01*
X131700000Y-104338095D01*
X131652380Y-104242857D01*
X131652380Y-104004761D01*
X131700000Y-103861904D01*
X131652380Y-103528571D02*
X132652380Y-103290476D01*
X131938095Y-103100000D01*
X132652380Y-102909523D01*
X131652380Y-102671428D01*
X132652380Y-101766666D02*
X132652380Y-102338095D01*
X132652380Y-102052380D02*
X131652380Y-102052380D01*
X131795238Y-102147619D01*
X131890476Y-102242857D01*
X131938095Y-102338095D01*
%TO.C,U1*%
X129761904Y-133252380D02*
X130333333Y-133252380D01*
X130047619Y-134252380D02*
X130047619Y-133252380D01*
X131142857Y-134252380D02*
X130666666Y-134252380D01*
X130666666Y-133252380D01*
X131333333Y-133252380D02*
X131666666Y-134252380D01*
X132000000Y-133252380D01*
X132238095Y-133252380D02*
X132857142Y-133252380D01*
X132523809Y-133633333D01*
X132666666Y-133633333D01*
X132761904Y-133680952D01*
X132809523Y-133728571D01*
X132857142Y-133823809D01*
X132857142Y-134061904D01*
X132809523Y-134157142D01*
X132761904Y-134204761D01*
X132666666Y-134252380D01*
X132380952Y-134252380D01*
X132285714Y-134204761D01*
X132238095Y-134157142D01*
X133238095Y-133347619D02*
X133285714Y-133300000D01*
X133380952Y-133252380D01*
X133619047Y-133252380D01*
X133714285Y-133300000D01*
X133761904Y-133347619D01*
X133809523Y-133442857D01*
X133809523Y-133538095D01*
X133761904Y-133680952D01*
X133190476Y-134252380D01*
X133809523Y-134252380D01*
X134428571Y-133252380D02*
X134523809Y-133252380D01*
X134619047Y-133300000D01*
X134666666Y-133347619D01*
X134714285Y-133442857D01*
X134761904Y-133633333D01*
X134761904Y-133871428D01*
X134714285Y-134061904D01*
X134666666Y-134157142D01*
X134619047Y-134204761D01*
X134523809Y-134252380D01*
X134428571Y-134252380D01*
X134333333Y-134204761D01*
X134285714Y-134157142D01*
X134238095Y-134061904D01*
X134190476Y-133871428D01*
X134190476Y-133633333D01*
X134238095Y-133442857D01*
X134285714Y-133347619D01*
X134333333Y-133300000D01*
X134428571Y-133252380D01*
X135142857Y-133966666D02*
X135619047Y-133966666D01*
X135047619Y-134252380D02*
X135380952Y-133252380D01*
X135714285Y-134252380D01*
X136047619Y-134252380D02*
X136047619Y-133252380D01*
X137095238Y-134157142D02*
X137047619Y-134204761D01*
X136904761Y-134252380D01*
X136809523Y-134252380D01*
X136666666Y-134204761D01*
X136571428Y-134109523D01*
X136523809Y-134014285D01*
X136476190Y-133823809D01*
X136476190Y-133680952D01*
X136523809Y-133490476D01*
X136571428Y-133395238D01*
X136666666Y-133300000D01*
X136809523Y-133252380D01*
X136904761Y-133252380D01*
X137047619Y-133300000D01*
X137095238Y-133347619D01*
X137476190Y-133347619D02*
X137523809Y-133300000D01*
X137619047Y-133252380D01*
X137857142Y-133252380D01*
X137952380Y-133300000D01*
X138000000Y-133347619D01*
X138047619Y-133442857D01*
X138047619Y-133538095D01*
X138000000Y-133680952D01*
X137428571Y-134252380D01*
X138047619Y-134252380D01*
X138380952Y-133252380D02*
X139000000Y-133252380D01*
X138666666Y-133633333D01*
X138809523Y-133633333D01*
X138904761Y-133680952D01*
X138952380Y-133728571D01*
X139000000Y-133823809D01*
X139000000Y-134061904D01*
X138952380Y-134157142D01*
X138904761Y-134204761D01*
X138809523Y-134252380D01*
X138523809Y-134252380D01*
X138428571Y-134204761D01*
X138380952Y-134157142D01*
X139761904Y-133728571D02*
X139904761Y-133776190D01*
X139952380Y-133823809D01*
X140000000Y-133919047D01*
X140000000Y-134061904D01*
X139952380Y-134157142D01*
X139904761Y-134204761D01*
X139809523Y-134252380D01*
X139428571Y-134252380D01*
X139428571Y-133252380D01*
X139761904Y-133252380D01*
X139857142Y-133300000D01*
X139904761Y-133347619D01*
X139952380Y-133442857D01*
X139952380Y-133538095D01*
X139904761Y-133633333D01*
X139857142Y-133680952D01*
X139761904Y-133728571D01*
X139428571Y-133728571D01*
X140428571Y-134252380D02*
X140428571Y-133252380D01*
X140809523Y-133252380D01*
X140904761Y-133300000D01*
X140952380Y-133347619D01*
X141000000Y-133442857D01*
X141000000Y-133585714D01*
X140952380Y-133680952D01*
X140904761Y-133728571D01*
X140809523Y-133776190D01*
X140428571Y-133776190D01*
X141333333Y-133252380D02*
X141571428Y-134252380D01*
X141761904Y-133538095D01*
X141952380Y-134252380D01*
X142190476Y-133252380D01*
X135238095Y-127452380D02*
X135238095Y-128261904D01*
X135285714Y-128357142D01*
X135333333Y-128404761D01*
X135428571Y-128452380D01*
X135619047Y-128452380D01*
X135714285Y-128404761D01*
X135761904Y-128357142D01*
X135809523Y-128261904D01*
X135809523Y-127452380D01*
X136809523Y-128452380D02*
X136238095Y-128452380D01*
X136523809Y-128452380D02*
X136523809Y-127452380D01*
X136428571Y-127595238D01*
X136333333Y-127690476D01*
X136238095Y-127738095D01*
%TO.C,R6*%
X161833333Y-149035714D02*
X161833333Y-149702380D01*
X161595238Y-148654761D02*
X161357142Y-149369047D01*
X161976190Y-149369047D01*
X162261904Y-148702380D02*
X162928571Y-148702380D01*
X162500000Y-149702380D01*
X163500000Y-148702380D02*
X163595238Y-148702380D01*
X163690476Y-148750000D01*
X163738095Y-148797619D01*
X163785714Y-148892857D01*
X163833333Y-149083333D01*
X163833333Y-149321428D01*
X163785714Y-149511904D01*
X163738095Y-149607142D01*
X163690476Y-149654761D01*
X163595238Y-149702380D01*
X163500000Y-149702380D01*
X163404761Y-149654761D01*
X163357142Y-149607142D01*
X163309523Y-149511904D01*
X163261904Y-149321428D01*
X163261904Y-149083333D01*
X163309523Y-148892857D01*
X163357142Y-148797619D01*
X163404761Y-148750000D01*
X163500000Y-148702380D01*
X164261904Y-149702380D02*
X164261904Y-148702380D01*
X164357142Y-149321428D02*
X164642857Y-149702380D01*
X164642857Y-149035714D02*
X164261904Y-149416666D01*
D14*
X162916666Y-147726190D02*
X162750000Y-147488095D01*
X162630952Y-147726190D02*
X162630952Y-147226190D01*
X162821428Y-147226190D01*
X162869047Y-147250000D01*
X162892857Y-147273809D01*
X162916666Y-147321428D01*
X162916666Y-147392857D01*
X162892857Y-147440476D01*
X162869047Y-147464285D01*
X162821428Y-147488095D01*
X162630952Y-147488095D01*
X163345238Y-147226190D02*
X163250000Y-147226190D01*
X163202380Y-147250000D01*
X163178571Y-147273809D01*
X163130952Y-147345238D01*
X163107142Y-147440476D01*
X163107142Y-147630952D01*
X163130952Y-147678571D01*
X163154761Y-147702380D01*
X163202380Y-147726190D01*
X163297619Y-147726190D01*
X163345238Y-147702380D01*
X163369047Y-147678571D01*
X163392857Y-147630952D01*
X163392857Y-147511904D01*
X163369047Y-147464285D01*
X163345238Y-147440476D01*
X163297619Y-147416666D01*
X163202380Y-147416666D01*
X163154761Y-147440476D01*
X163130952Y-147464285D01*
X163107142Y-147511904D01*
%TO.C,R22*%
D12*
X107833333Y-149535714D02*
X107833333Y-150202380D01*
X107595238Y-149154761D02*
X107357142Y-149869047D01*
X107976190Y-149869047D01*
X108261904Y-149202380D02*
X108928571Y-149202380D01*
X108500000Y-150202380D01*
X109500000Y-149202380D02*
X109595238Y-149202380D01*
X109690476Y-149250000D01*
X109738095Y-149297619D01*
X109785714Y-149392857D01*
X109833333Y-149583333D01*
X109833333Y-149821428D01*
X109785714Y-150011904D01*
X109738095Y-150107142D01*
X109690476Y-150154761D01*
X109595238Y-150202380D01*
X109500000Y-150202380D01*
X109404761Y-150154761D01*
X109357142Y-150107142D01*
X109309523Y-150011904D01*
X109261904Y-149821428D01*
X109261904Y-149583333D01*
X109309523Y-149392857D01*
X109357142Y-149297619D01*
X109404761Y-149250000D01*
X109500000Y-149202380D01*
X110261904Y-150202380D02*
X110261904Y-149202380D01*
X110357142Y-149821428D02*
X110642857Y-150202380D01*
X110642857Y-149535714D02*
X110261904Y-149916666D01*
D14*
X108678571Y-148226190D02*
X108511904Y-147988095D01*
X108392857Y-148226190D02*
X108392857Y-147726190D01*
X108583333Y-147726190D01*
X108630952Y-147750000D01*
X108654761Y-147773809D01*
X108678571Y-147821428D01*
X108678571Y-147892857D01*
X108654761Y-147940476D01*
X108630952Y-147964285D01*
X108583333Y-147988095D01*
X108392857Y-147988095D01*
X108869047Y-147773809D02*
X108892857Y-147750000D01*
X108940476Y-147726190D01*
X109059523Y-147726190D01*
X109107142Y-147750000D01*
X109130952Y-147773809D01*
X109154761Y-147821428D01*
X109154761Y-147869047D01*
X109130952Y-147940476D01*
X108845238Y-148226190D01*
X109154761Y-148226190D01*
X109345238Y-147773809D02*
X109369047Y-147750000D01*
X109416666Y-147726190D01*
X109535714Y-147726190D01*
X109583333Y-147750000D01*
X109607142Y-147773809D01*
X109630952Y-147821428D01*
X109630952Y-147869047D01*
X109607142Y-147940476D01*
X109321428Y-148226190D01*
X109630952Y-148226190D01*
%TO.C,X1*%
D12*
X141809523Y-148404761D02*
X141952380Y-148452380D01*
X142190476Y-148452380D01*
X142285714Y-148404761D01*
X142333333Y-148357142D01*
X142380952Y-148261904D01*
X142380952Y-148166666D01*
X142333333Y-148071428D01*
X142285714Y-148023809D01*
X142190476Y-147976190D01*
X142000000Y-147928571D01*
X141904761Y-147880952D01*
X141857142Y-147833333D01*
X141809523Y-147738095D01*
X141809523Y-147642857D01*
X141857142Y-147547619D01*
X141904761Y-147500000D01*
X142000000Y-147452380D01*
X142238095Y-147452380D01*
X142380952Y-147500000D01*
X143095238Y-147452380D02*
X143095238Y-148166666D01*
X143047619Y-148309523D01*
X142952380Y-148404761D01*
X142809523Y-148452380D01*
X142714285Y-148452380D01*
X143571428Y-148071428D02*
X144333333Y-148071428D01*
X144714285Y-147452380D02*
X145333333Y-147452380D01*
X145000000Y-147833333D01*
X145142857Y-147833333D01*
X145238095Y-147880952D01*
X145285714Y-147928571D01*
X145333333Y-148023809D01*
X145333333Y-148261904D01*
X145285714Y-148357142D01*
X145238095Y-148404761D01*
X145142857Y-148452380D01*
X144857142Y-148452380D01*
X144761904Y-148404761D01*
X144714285Y-148357142D01*
X146238095Y-147452380D02*
X145761904Y-147452380D01*
X145714285Y-147928571D01*
X145761904Y-147880952D01*
X145857142Y-147833333D01*
X146095238Y-147833333D01*
X146190476Y-147880952D01*
X146238095Y-147928571D01*
X146285714Y-148023809D01*
X146285714Y-148261904D01*
X146238095Y-148357142D01*
X146190476Y-148404761D01*
X146095238Y-148452380D01*
X145857142Y-148452380D01*
X145761904Y-148404761D01*
X145714285Y-148357142D01*
X146666666Y-147547619D02*
X146714285Y-147500000D01*
X146809523Y-147452380D01*
X147047619Y-147452380D01*
X147142857Y-147500000D01*
X147190476Y-147547619D01*
X147238095Y-147642857D01*
X147238095Y-147738095D01*
X147190476Y-147880952D01*
X146619047Y-148452380D01*
X147238095Y-148452380D01*
X148095238Y-147785714D02*
X148095238Y-148452380D01*
X147857142Y-147404761D02*
X147619047Y-148119047D01*
X148238095Y-148119047D01*
X144190476Y-160452380D02*
X144857142Y-161452380D01*
X144857142Y-160452380D02*
X144190476Y-161452380D01*
X145761904Y-161452380D02*
X145190476Y-161452380D01*
X145476190Y-161452380D02*
X145476190Y-160452380D01*
X145380952Y-160595238D01*
X145285714Y-160690476D01*
X145190476Y-160738095D01*
%TO.C,X2*%
X159809523Y-148404761D02*
X159952380Y-148452380D01*
X160190476Y-148452380D01*
X160285714Y-148404761D01*
X160333333Y-148357142D01*
X160380952Y-148261904D01*
X160380952Y-148166666D01*
X160333333Y-148071428D01*
X160285714Y-148023809D01*
X160190476Y-147976190D01*
X160000000Y-147928571D01*
X159904761Y-147880952D01*
X159857142Y-147833333D01*
X159809523Y-147738095D01*
X159809523Y-147642857D01*
X159857142Y-147547619D01*
X159904761Y-147500000D01*
X160000000Y-147452380D01*
X160238095Y-147452380D01*
X160380952Y-147500000D01*
X161095238Y-147452380D02*
X161095238Y-148166666D01*
X161047619Y-148309523D01*
X160952380Y-148404761D01*
X160809523Y-148452380D01*
X160714285Y-148452380D01*
X161571428Y-148071428D02*
X162333333Y-148071428D01*
X162714285Y-147452380D02*
X163333333Y-147452380D01*
X163000000Y-147833333D01*
X163142857Y-147833333D01*
X163238095Y-147880952D01*
X163285714Y-147928571D01*
X163333333Y-148023809D01*
X163333333Y-148261904D01*
X163285714Y-148357142D01*
X163238095Y-148404761D01*
X163142857Y-148452380D01*
X162857142Y-148452380D01*
X162761904Y-148404761D01*
X162714285Y-148357142D01*
X164238095Y-147452380D02*
X163761904Y-147452380D01*
X163714285Y-147928571D01*
X163761904Y-147880952D01*
X163857142Y-147833333D01*
X164095238Y-147833333D01*
X164190476Y-147880952D01*
X164238095Y-147928571D01*
X164285714Y-148023809D01*
X164285714Y-148261904D01*
X164238095Y-148357142D01*
X164190476Y-148404761D01*
X164095238Y-148452380D01*
X163857142Y-148452380D01*
X163761904Y-148404761D01*
X163714285Y-148357142D01*
X164666666Y-147547619D02*
X164714285Y-147500000D01*
X164809523Y-147452380D01*
X165047619Y-147452380D01*
X165142857Y-147500000D01*
X165190476Y-147547619D01*
X165238095Y-147642857D01*
X165238095Y-147738095D01*
X165190476Y-147880952D01*
X164619047Y-148452380D01*
X165238095Y-148452380D01*
X166095238Y-147785714D02*
X166095238Y-148452380D01*
X165857142Y-147404761D02*
X165619047Y-148119047D01*
X166238095Y-148119047D01*
X162190476Y-160452380D02*
X162857142Y-161452380D01*
X162857142Y-160452380D02*
X162190476Y-161452380D01*
X163190476Y-160547619D02*
X163238095Y-160500000D01*
X163333333Y-160452380D01*
X163571428Y-160452380D01*
X163666666Y-160500000D01*
X163714285Y-160547619D01*
X163761904Y-160642857D01*
X163761904Y-160738095D01*
X163714285Y-160880952D01*
X163142857Y-161452380D01*
X163761904Y-161452380D01*
%TO.C,X4*%
X105809523Y-148404761D02*
X105952380Y-148452380D01*
X106190476Y-148452380D01*
X106285714Y-148404761D01*
X106333333Y-148357142D01*
X106380952Y-148261904D01*
X106380952Y-148166666D01*
X106333333Y-148071428D01*
X106285714Y-148023809D01*
X106190476Y-147976190D01*
X106000000Y-147928571D01*
X105904761Y-147880952D01*
X105857142Y-147833333D01*
X105809523Y-147738095D01*
X105809523Y-147642857D01*
X105857142Y-147547619D01*
X105904761Y-147500000D01*
X106000000Y-147452380D01*
X106238095Y-147452380D01*
X106380952Y-147500000D01*
X107095238Y-147452380D02*
X107095238Y-148166666D01*
X107047619Y-148309523D01*
X106952380Y-148404761D01*
X106809523Y-148452380D01*
X106714285Y-148452380D01*
X107571428Y-148071428D02*
X108333333Y-148071428D01*
X108714285Y-147452380D02*
X109333333Y-147452380D01*
X109000000Y-147833333D01*
X109142857Y-147833333D01*
X109238095Y-147880952D01*
X109285714Y-147928571D01*
X109333333Y-148023809D01*
X109333333Y-148261904D01*
X109285714Y-148357142D01*
X109238095Y-148404761D01*
X109142857Y-148452380D01*
X108857142Y-148452380D01*
X108761904Y-148404761D01*
X108714285Y-148357142D01*
X110238095Y-147452380D02*
X109761904Y-147452380D01*
X109714285Y-147928571D01*
X109761904Y-147880952D01*
X109857142Y-147833333D01*
X110095238Y-147833333D01*
X110190476Y-147880952D01*
X110238095Y-147928571D01*
X110285714Y-148023809D01*
X110285714Y-148261904D01*
X110238095Y-148357142D01*
X110190476Y-148404761D01*
X110095238Y-148452380D01*
X109857142Y-148452380D01*
X109761904Y-148404761D01*
X109714285Y-148357142D01*
X110666666Y-147547619D02*
X110714285Y-147500000D01*
X110809523Y-147452380D01*
X111047619Y-147452380D01*
X111142857Y-147500000D01*
X111190476Y-147547619D01*
X111238095Y-147642857D01*
X111238095Y-147738095D01*
X111190476Y-147880952D01*
X110619047Y-148452380D01*
X111238095Y-148452380D01*
X112095238Y-147785714D02*
X112095238Y-148452380D01*
X111857142Y-147404761D02*
X111619047Y-148119047D01*
X112238095Y-148119047D01*
X108190476Y-160452380D02*
X108857142Y-161452380D01*
X108857142Y-160452380D02*
X108190476Y-161452380D01*
X109666666Y-160785714D02*
X109666666Y-161452380D01*
X109428571Y-160404761D02*
X109190476Y-161119047D01*
X109809523Y-161119047D01*
%TO.C,X3*%
X123809523Y-148404761D02*
X123952380Y-148452380D01*
X124190476Y-148452380D01*
X124285714Y-148404761D01*
X124333333Y-148357142D01*
X124380952Y-148261904D01*
X124380952Y-148166666D01*
X124333333Y-148071428D01*
X124285714Y-148023809D01*
X124190476Y-147976190D01*
X124000000Y-147928571D01*
X123904761Y-147880952D01*
X123857142Y-147833333D01*
X123809523Y-147738095D01*
X123809523Y-147642857D01*
X123857142Y-147547619D01*
X123904761Y-147500000D01*
X124000000Y-147452380D01*
X124238095Y-147452380D01*
X124380952Y-147500000D01*
X125095238Y-147452380D02*
X125095238Y-148166666D01*
X125047619Y-148309523D01*
X124952380Y-148404761D01*
X124809523Y-148452380D01*
X124714285Y-148452380D01*
X125571428Y-148071428D02*
X126333333Y-148071428D01*
X126714285Y-147452380D02*
X127333333Y-147452380D01*
X127000000Y-147833333D01*
X127142857Y-147833333D01*
X127238095Y-147880952D01*
X127285714Y-147928571D01*
X127333333Y-148023809D01*
X127333333Y-148261904D01*
X127285714Y-148357142D01*
X127238095Y-148404761D01*
X127142857Y-148452380D01*
X126857142Y-148452380D01*
X126761904Y-148404761D01*
X126714285Y-148357142D01*
X128238095Y-147452380D02*
X127761904Y-147452380D01*
X127714285Y-147928571D01*
X127761904Y-147880952D01*
X127857142Y-147833333D01*
X128095238Y-147833333D01*
X128190476Y-147880952D01*
X128238095Y-147928571D01*
X128285714Y-148023809D01*
X128285714Y-148261904D01*
X128238095Y-148357142D01*
X128190476Y-148404761D01*
X128095238Y-148452380D01*
X127857142Y-148452380D01*
X127761904Y-148404761D01*
X127714285Y-148357142D01*
X128666666Y-147547619D02*
X128714285Y-147500000D01*
X128809523Y-147452380D01*
X129047619Y-147452380D01*
X129142857Y-147500000D01*
X129190476Y-147547619D01*
X129238095Y-147642857D01*
X129238095Y-147738095D01*
X129190476Y-147880952D01*
X128619047Y-148452380D01*
X129238095Y-148452380D01*
X130095238Y-147785714D02*
X130095238Y-148452380D01*
X129857142Y-147404761D02*
X129619047Y-148119047D01*
X130238095Y-148119047D01*
X126190476Y-160452380D02*
X126857142Y-161452380D01*
X126857142Y-160452380D02*
X126190476Y-161452380D01*
X127142857Y-160452380D02*
X127761904Y-160452380D01*
X127428571Y-160833333D01*
X127571428Y-160833333D01*
X127666666Y-160880952D01*
X127714285Y-160928571D01*
X127761904Y-161023809D01*
X127761904Y-161261904D01*
X127714285Y-161357142D01*
X127666666Y-161404761D01*
X127571428Y-161452380D01*
X127285714Y-161452380D01*
X127190476Y-161404761D01*
X127142857Y-161357142D01*
%TO.C,U2*%
X141762380Y-69857142D02*
X141762380Y-69666666D01*
X141810000Y-69571428D01*
X141905238Y-69476190D01*
X142095714Y-69428571D01*
X142429047Y-69428571D01*
X142619523Y-69476190D01*
X142714761Y-69571428D01*
X142762380Y-69666666D01*
X142762380Y-69857142D01*
X142714761Y-69952380D01*
X142619523Y-70047619D01*
X142429047Y-70095238D01*
X142095714Y-70095238D01*
X141905238Y-70047619D01*
X141810000Y-69952380D01*
X141762380Y-69857142D01*
X142762380Y-68523809D02*
X142762380Y-69000000D01*
X141762380Y-69000000D01*
X142238571Y-68190476D02*
X142238571Y-67857142D01*
X142762380Y-67714285D02*
X142762380Y-68190476D01*
X141762380Y-68190476D01*
X141762380Y-67714285D01*
X142762380Y-67285714D02*
X141762380Y-67285714D01*
X141762380Y-67047619D01*
X141810000Y-66904761D01*
X141905238Y-66809523D01*
X142000476Y-66761904D01*
X142190952Y-66714285D01*
X142333809Y-66714285D01*
X142524285Y-66761904D01*
X142619523Y-66809523D01*
X142714761Y-66904761D01*
X142762380Y-67047619D01*
X142762380Y-67285714D01*
X142857619Y-66523809D02*
X142857619Y-65761904D01*
X142714761Y-65571428D02*
X142762380Y-65428571D01*
X142762380Y-65190476D01*
X142714761Y-65095238D01*
X142667142Y-65047619D01*
X142571904Y-65000000D01*
X142476666Y-65000000D01*
X142381428Y-65047619D01*
X142333809Y-65095238D01*
X142286190Y-65190476D01*
X142238571Y-65380952D01*
X142190952Y-65476190D01*
X142143333Y-65523809D01*
X142048095Y-65571428D01*
X141952857Y-65571428D01*
X141857619Y-65523809D01*
X141810000Y-65476190D01*
X141762380Y-65380952D01*
X141762380Y-65142857D01*
X141810000Y-65000000D01*
X142714761Y-64619047D02*
X142762380Y-64476190D01*
X142762380Y-64238095D01*
X142714761Y-64142857D01*
X142667142Y-64095238D01*
X142571904Y-64047619D01*
X142476666Y-64047619D01*
X142381428Y-64095238D01*
X142333809Y-64142857D01*
X142286190Y-64238095D01*
X142238571Y-64428571D01*
X142190952Y-64523809D01*
X142143333Y-64571428D01*
X142048095Y-64619047D01*
X141952857Y-64619047D01*
X141857619Y-64571428D01*
X141810000Y-64523809D01*
X141762380Y-64428571D01*
X141762380Y-64190476D01*
X141810000Y-64047619D01*
X142762380Y-63619047D02*
X141762380Y-63619047D01*
X141762380Y-63380952D01*
X141810000Y-63238095D01*
X141905238Y-63142857D01*
X142000476Y-63095238D01*
X142190952Y-63047619D01*
X142333809Y-63047619D01*
X142524285Y-63095238D01*
X142619523Y-63142857D01*
X142714761Y-63238095D01*
X142762380Y-63380952D01*
X142762380Y-63619047D01*
X142762380Y-62095238D02*
X142762380Y-62666666D01*
X142762380Y-62380952D02*
X141762380Y-62380952D01*
X141905238Y-62476190D01*
X142000476Y-62571428D01*
X142048095Y-62666666D01*
X141762380Y-61761904D02*
X141762380Y-61142857D01*
X142143333Y-61476190D01*
X142143333Y-61333333D01*
X142190952Y-61238095D01*
X142238571Y-61190476D01*
X142333809Y-61142857D01*
X142571904Y-61142857D01*
X142667142Y-61190476D01*
X142714761Y-61238095D01*
X142762380Y-61333333D01*
X142762380Y-61619047D01*
X142714761Y-61714285D01*
X142667142Y-61761904D01*
X141762380Y-60523809D02*
X141762380Y-60428571D01*
X141810000Y-60333333D01*
X141857619Y-60285714D01*
X141952857Y-60238095D01*
X142143333Y-60190476D01*
X142381428Y-60190476D01*
X142571904Y-60238095D01*
X142667142Y-60285714D01*
X142714761Y-60333333D01*
X142762380Y-60428571D01*
X142762380Y-60523809D01*
X142714761Y-60619047D01*
X142667142Y-60666666D01*
X142571904Y-60714285D01*
X142381428Y-60761904D01*
X142143333Y-60761904D01*
X141952857Y-60714285D01*
X141857619Y-60666666D01*
X141810000Y-60619047D01*
X141762380Y-60523809D01*
X141762380Y-59333333D02*
X141762380Y-59523809D01*
X141810000Y-59619047D01*
X141857619Y-59666666D01*
X142000476Y-59761904D01*
X142190952Y-59809523D01*
X142571904Y-59809523D01*
X142667142Y-59761904D01*
X142714761Y-59714285D01*
X142762380Y-59619047D01*
X142762380Y-59428571D01*
X142714761Y-59333333D01*
X142667142Y-59285714D01*
X142571904Y-59238095D01*
X142333809Y-59238095D01*
X142238571Y-59285714D01*
X142190952Y-59333333D01*
X142143333Y-59428571D01*
X142143333Y-59619047D01*
X142190952Y-59714285D01*
X142238571Y-59761904D01*
X142333809Y-59809523D01*
X142857619Y-59047619D02*
X142857619Y-58285714D01*
X142762380Y-57523809D02*
X142762380Y-58095238D01*
X142762380Y-57809523D02*
X141762380Y-57809523D01*
X141905238Y-57904761D01*
X142000476Y-58000000D01*
X142048095Y-58095238D01*
X141857619Y-57142857D02*
X141810000Y-57095238D01*
X141762380Y-57000000D01*
X141762380Y-56761904D01*
X141810000Y-56666666D01*
X141857619Y-56619047D01*
X141952857Y-56571428D01*
X142048095Y-56571428D01*
X142190952Y-56619047D01*
X142762380Y-57190476D01*
X142762380Y-56571428D01*
X142190952Y-56000000D02*
X142143333Y-56095238D01*
X142095714Y-56142857D01*
X142000476Y-56190476D01*
X141952857Y-56190476D01*
X141857619Y-56142857D01*
X141810000Y-56095238D01*
X141762380Y-56000000D01*
X141762380Y-55809523D01*
X141810000Y-55714285D01*
X141857619Y-55666666D01*
X141952857Y-55619047D01*
X142000476Y-55619047D01*
X142095714Y-55666666D01*
X142143333Y-55714285D01*
X142190952Y-55809523D01*
X142190952Y-56000000D01*
X142238571Y-56095238D01*
X142286190Y-56142857D01*
X142381428Y-56190476D01*
X142571904Y-56190476D01*
X142667142Y-56142857D01*
X142714761Y-56095238D01*
X142762380Y-56000000D01*
X142762380Y-55809523D01*
X142714761Y-55714285D01*
X142667142Y-55666666D01*
X142571904Y-55619047D01*
X142381428Y-55619047D01*
X142286190Y-55666666D01*
X142238571Y-55714285D01*
X142190952Y-55809523D01*
X142762380Y-55285714D02*
X142095714Y-54761904D01*
X142095714Y-55285714D02*
X142762380Y-54761904D01*
X141762380Y-53952380D02*
X141762380Y-54142857D01*
X141810000Y-54238095D01*
X141857619Y-54285714D01*
X142000476Y-54380952D01*
X142190952Y-54428571D01*
X142571904Y-54428571D01*
X142667142Y-54380952D01*
X142714761Y-54333333D01*
X142762380Y-54238095D01*
X142762380Y-54047619D01*
X142714761Y-53952380D01*
X142667142Y-53904761D01*
X142571904Y-53857142D01*
X142333809Y-53857142D01*
X142238571Y-53904761D01*
X142190952Y-53952380D01*
X142143333Y-54047619D01*
X142143333Y-54238095D01*
X142190952Y-54333333D01*
X142238571Y-54380952D01*
X142333809Y-54428571D01*
X142095714Y-53000000D02*
X142762380Y-53000000D01*
X141714761Y-53238095D02*
X142429047Y-53476190D01*
X142429047Y-52857142D01*
X134968095Y-60952380D02*
X134968095Y-61761904D01*
X135015714Y-61857142D01*
X135063333Y-61904761D01*
X135158571Y-61952380D01*
X135349047Y-61952380D01*
X135444285Y-61904761D01*
X135491904Y-61857142D01*
X135539523Y-61761904D01*
X135539523Y-60952380D01*
X135968095Y-61047619D02*
X136015714Y-61000000D01*
X136110952Y-60952380D01*
X136349047Y-60952380D01*
X136444285Y-61000000D01*
X136491904Y-61047619D01*
X136539523Y-61142857D01*
X136539523Y-61238095D01*
X136491904Y-61380952D01*
X135920476Y-61952380D01*
X136539523Y-61952380D01*
%TO.C,R15*%
X152702380Y-133947619D02*
X152702380Y-133852380D01*
X152750000Y-133757142D01*
X152797619Y-133709523D01*
X152892857Y-133661904D01*
X153083333Y-133614285D01*
X153321428Y-133614285D01*
X153511904Y-133661904D01*
X153607142Y-133709523D01*
X153654761Y-133757142D01*
X153702380Y-133852380D01*
X153702380Y-133947619D01*
X153654761Y-134042857D01*
X153607142Y-134090476D01*
X153511904Y-134138095D01*
X153321428Y-134185714D01*
X153083333Y-134185714D01*
X152892857Y-134138095D01*
X152797619Y-134090476D01*
X152750000Y-134042857D01*
X152702380Y-133947619D01*
X153702380Y-132614285D02*
X153226190Y-132947619D01*
X153702380Y-133185714D02*
X152702380Y-133185714D01*
X152702380Y-132804761D01*
X152750000Y-132709523D01*
X152797619Y-132661904D01*
X152892857Y-132614285D01*
X153035714Y-132614285D01*
X153130952Y-132661904D01*
X153178571Y-132709523D01*
X153226190Y-132804761D01*
X153226190Y-133185714D01*
D14*
X155226190Y-133721428D02*
X154988095Y-133888095D01*
X155226190Y-134007142D02*
X154726190Y-134007142D01*
X154726190Y-133816666D01*
X154750000Y-133769047D01*
X154773809Y-133745238D01*
X154821428Y-133721428D01*
X154892857Y-133721428D01*
X154940476Y-133745238D01*
X154964285Y-133769047D01*
X154988095Y-133816666D01*
X154988095Y-134007142D01*
X155226190Y-133245238D02*
X155226190Y-133530952D01*
X155226190Y-133388095D02*
X154726190Y-133388095D01*
X154797619Y-133435714D01*
X154845238Y-133483333D01*
X154869047Y-133530952D01*
X154726190Y-132792857D02*
X154726190Y-133030952D01*
X154964285Y-133054761D01*
X154940476Y-133030952D01*
X154916666Y-132983333D01*
X154916666Y-132864285D01*
X154940476Y-132816666D01*
X154964285Y-132792857D01*
X155011904Y-132769047D01*
X155130952Y-132769047D01*
X155178571Y-132792857D01*
X155202380Y-132816666D01*
X155226190Y-132864285D01*
X155226190Y-132983333D01*
X155202380Y-133030952D01*
X155178571Y-133054761D01*
%TD*%
M02*
