%TF.GenerationSoftware,KiCad,Pcbnew,(5.1.6)-1*%
%TF.CreationDate,2021-01-03T17:25:38+01:00*%
%TF.ProjectId,Nucleo144_DSP,4e75636c-656f-4313-9434-5f4453502e6b,rev?*%
%TF.SameCoordinates,Original*%
%TF.FileFunction,Paste,Top*%
%TF.FilePolarity,Positive*%
%FSLAX46Y46*%
G04 Gerber Fmt 4.6, Leading zero omitted, Abs format (unit mm)*
G04 Created by KiCad (PCBNEW (5.1.6)-1) date 2021-01-03 17:25:38*
%MOMM*%
%LPD*%
G01*
G04 APERTURE LIST*
%ADD10R,2.000000X4.500000*%
%ADD11R,0.700000X1.300000*%
%ADD12R,1.300000X0.700000*%
%ADD13R,2.800000X2.800000*%
%ADD14R,2.800000X2.600000*%
%ADD15R,2.800000X2.200000*%
G04 APERTURE END LIST*
D10*
%TO.C,Y1*%
X146000000Y-117250000D03*
X146000000Y-125750000D03*
%TD*%
%TO.C,C1*%
G36*
G01*
X152956250Y-150550000D02*
X152043750Y-150550000D01*
G75*
G02*
X151800000Y-150306250I0J243750D01*
G01*
X151800000Y-149818750D01*
G75*
G02*
X152043750Y-149575000I243750J0D01*
G01*
X152956250Y-149575000D01*
G75*
G02*
X153200000Y-149818750I0J-243750D01*
G01*
X153200000Y-150306250D01*
G75*
G02*
X152956250Y-150550000I-243750J0D01*
G01*
G37*
G36*
G01*
X152956250Y-152425000D02*
X152043750Y-152425000D01*
G75*
G02*
X151800000Y-152181250I0J243750D01*
G01*
X151800000Y-151693750D01*
G75*
G02*
X152043750Y-151450000I243750J0D01*
G01*
X152956250Y-151450000D01*
G75*
G02*
X153200000Y-151693750I0J-243750D01*
G01*
X153200000Y-152181250D01*
G75*
G02*
X152956250Y-152425000I-243750J0D01*
G01*
G37*
%TD*%
%TO.C,C3*%
G36*
G01*
X138575000Y-119956250D02*
X138575000Y-119043750D01*
G75*
G02*
X138818750Y-118800000I243750J0D01*
G01*
X139306250Y-118800000D01*
G75*
G02*
X139550000Y-119043750I0J-243750D01*
G01*
X139550000Y-119956250D01*
G75*
G02*
X139306250Y-120200000I-243750J0D01*
G01*
X138818750Y-120200000D01*
G75*
G02*
X138575000Y-119956250I0J243750D01*
G01*
G37*
G36*
G01*
X140450000Y-119956250D02*
X140450000Y-119043750D01*
G75*
G02*
X140693750Y-118800000I243750J0D01*
G01*
X141181250Y-118800000D01*
G75*
G02*
X141425000Y-119043750I0J-243750D01*
G01*
X141425000Y-119956250D01*
G75*
G02*
X141181250Y-120200000I-243750J0D01*
G01*
X140693750Y-120200000D01*
G75*
G02*
X140450000Y-119956250I0J243750D01*
G01*
G37*
%TD*%
%TO.C,C4*%
G36*
G01*
X128043750Y-130075000D02*
X128956250Y-130075000D01*
G75*
G02*
X129200000Y-130318750I0J-243750D01*
G01*
X129200000Y-130806250D01*
G75*
G02*
X128956250Y-131050000I-243750J0D01*
G01*
X128043750Y-131050000D01*
G75*
G02*
X127800000Y-130806250I0J243750D01*
G01*
X127800000Y-130318750D01*
G75*
G02*
X128043750Y-130075000I243750J0D01*
G01*
G37*
G36*
G01*
X128043750Y-131950000D02*
X128956250Y-131950000D01*
G75*
G02*
X129200000Y-132193750I0J-243750D01*
G01*
X129200000Y-132681250D01*
G75*
G02*
X128956250Y-132925000I-243750J0D01*
G01*
X128043750Y-132925000D01*
G75*
G02*
X127800000Y-132681250I0J243750D01*
G01*
X127800000Y-132193750D01*
G75*
G02*
X128043750Y-131950000I243750J0D01*
G01*
G37*
%TD*%
%TO.C,C2*%
G36*
G01*
X151956250Y-160925000D02*
X151043750Y-160925000D01*
G75*
G02*
X150800000Y-160681250I0J243750D01*
G01*
X150800000Y-160193750D01*
G75*
G02*
X151043750Y-159950000I243750J0D01*
G01*
X151956250Y-159950000D01*
G75*
G02*
X152200000Y-160193750I0J-243750D01*
G01*
X152200000Y-160681250D01*
G75*
G02*
X151956250Y-160925000I-243750J0D01*
G01*
G37*
G36*
G01*
X151956250Y-159050000D02*
X151043750Y-159050000D01*
G75*
G02*
X150800000Y-158806250I0J243750D01*
G01*
X150800000Y-158318750D01*
G75*
G02*
X151043750Y-158075000I243750J0D01*
G01*
X151956250Y-158075000D01*
G75*
G02*
X152200000Y-158318750I0J-243750D01*
G01*
X152200000Y-158806250D01*
G75*
G02*
X151956250Y-159050000I-243750J0D01*
G01*
G37*
%TD*%
%TO.C,C5*%
G36*
G01*
X140450000Y-121956250D02*
X140450000Y-121043750D01*
G75*
G02*
X140693750Y-120800000I243750J0D01*
G01*
X141181250Y-120800000D01*
G75*
G02*
X141425000Y-121043750I0J-243750D01*
G01*
X141425000Y-121956250D01*
G75*
G02*
X141181250Y-122200000I-243750J0D01*
G01*
X140693750Y-122200000D01*
G75*
G02*
X140450000Y-121956250I0J243750D01*
G01*
G37*
G36*
G01*
X138575000Y-121956250D02*
X138575000Y-121043750D01*
G75*
G02*
X138818750Y-120800000I243750J0D01*
G01*
X139306250Y-120800000D01*
G75*
G02*
X139550000Y-121043750I0J-243750D01*
G01*
X139550000Y-121956250D01*
G75*
G02*
X139306250Y-122200000I-243750J0D01*
G01*
X138818750Y-122200000D01*
G75*
G02*
X138575000Y-121956250I0J243750D01*
G01*
G37*
%TD*%
%TO.C,C6*%
G36*
G01*
X130343750Y-131950000D02*
X131256250Y-131950000D01*
G75*
G02*
X131500000Y-132193750I0J-243750D01*
G01*
X131500000Y-132681250D01*
G75*
G02*
X131256250Y-132925000I-243750J0D01*
G01*
X130343750Y-132925000D01*
G75*
G02*
X130100000Y-132681250I0J243750D01*
G01*
X130100000Y-132193750D01*
G75*
G02*
X130343750Y-131950000I243750J0D01*
G01*
G37*
G36*
G01*
X130343750Y-130075000D02*
X131256250Y-130075000D01*
G75*
G02*
X131500000Y-130318750I0J-243750D01*
G01*
X131500000Y-130806250D01*
G75*
G02*
X131256250Y-131050000I-243750J0D01*
G01*
X130343750Y-131050000D01*
G75*
G02*
X130100000Y-130806250I0J243750D01*
G01*
X130100000Y-130318750D01*
G75*
G02*
X130343750Y-130075000I243750J0D01*
G01*
G37*
%TD*%
%TO.C,C7*%
G36*
G01*
X167075000Y-145956250D02*
X167075000Y-145043750D01*
G75*
G02*
X167318750Y-144800000I243750J0D01*
G01*
X167806250Y-144800000D01*
G75*
G02*
X168050000Y-145043750I0J-243750D01*
G01*
X168050000Y-145956250D01*
G75*
G02*
X167806250Y-146200000I-243750J0D01*
G01*
X167318750Y-146200000D01*
G75*
G02*
X167075000Y-145956250I0J243750D01*
G01*
G37*
G36*
G01*
X168950000Y-145956250D02*
X168950000Y-145043750D01*
G75*
G02*
X169193750Y-144800000I243750J0D01*
G01*
X169681250Y-144800000D01*
G75*
G02*
X169925000Y-145043750I0J-243750D01*
G01*
X169925000Y-145956250D01*
G75*
G02*
X169681250Y-146200000I-243750J0D01*
G01*
X169193750Y-146200000D01*
G75*
G02*
X168950000Y-145956250I0J243750D01*
G01*
G37*
%TD*%
%TO.C,C8*%
G36*
G01*
X168050000Y-142043750D02*
X168050000Y-142956250D01*
G75*
G02*
X167806250Y-143200000I-243750J0D01*
G01*
X167318750Y-143200000D01*
G75*
G02*
X167075000Y-142956250I0J243750D01*
G01*
X167075000Y-142043750D01*
G75*
G02*
X167318750Y-141800000I243750J0D01*
G01*
X167806250Y-141800000D01*
G75*
G02*
X168050000Y-142043750I0J-243750D01*
G01*
G37*
G36*
G01*
X169925000Y-142043750D02*
X169925000Y-142956250D01*
G75*
G02*
X169681250Y-143200000I-243750J0D01*
G01*
X169193750Y-143200000D01*
G75*
G02*
X168950000Y-142956250I0J243750D01*
G01*
X168950000Y-142043750D01*
G75*
G02*
X169193750Y-141800000I243750J0D01*
G01*
X169681250Y-141800000D01*
G75*
G02*
X169925000Y-142043750I0J-243750D01*
G01*
G37*
%TD*%
%TO.C,C9*%
G36*
G01*
X157950000Y-142956250D02*
X157950000Y-142043750D01*
G75*
G02*
X158193750Y-141800000I243750J0D01*
G01*
X158681250Y-141800000D01*
G75*
G02*
X158925000Y-142043750I0J-243750D01*
G01*
X158925000Y-142956250D01*
G75*
G02*
X158681250Y-143200000I-243750J0D01*
G01*
X158193750Y-143200000D01*
G75*
G02*
X157950000Y-142956250I0J243750D01*
G01*
G37*
G36*
G01*
X156075000Y-142956250D02*
X156075000Y-142043750D01*
G75*
G02*
X156318750Y-141800000I243750J0D01*
G01*
X156806250Y-141800000D01*
G75*
G02*
X157050000Y-142043750I0J-243750D01*
G01*
X157050000Y-142956250D01*
G75*
G02*
X156806250Y-143200000I-243750J0D01*
G01*
X156318750Y-143200000D01*
G75*
G02*
X156075000Y-142956250I0J243750D01*
G01*
G37*
%TD*%
%TO.C,C10*%
G36*
G01*
X157950000Y-145956250D02*
X157950000Y-145043750D01*
G75*
G02*
X158193750Y-144800000I243750J0D01*
G01*
X158681250Y-144800000D01*
G75*
G02*
X158925000Y-145043750I0J-243750D01*
G01*
X158925000Y-145956250D01*
G75*
G02*
X158681250Y-146200000I-243750J0D01*
G01*
X158193750Y-146200000D01*
G75*
G02*
X157950000Y-145956250I0J243750D01*
G01*
G37*
G36*
G01*
X156075000Y-145956250D02*
X156075000Y-145043750D01*
G75*
G02*
X156318750Y-144800000I243750J0D01*
G01*
X156806250Y-144800000D01*
G75*
G02*
X157050000Y-145043750I0J-243750D01*
G01*
X157050000Y-145956250D01*
G75*
G02*
X156806250Y-146200000I-243750J0D01*
G01*
X156318750Y-146200000D01*
G75*
G02*
X156075000Y-145956250I0J243750D01*
G01*
G37*
%TD*%
%TO.C,C11*%
G36*
G01*
X149543750Y-123575000D02*
X150456250Y-123575000D01*
G75*
G02*
X150700000Y-123818750I0J-243750D01*
G01*
X150700000Y-124306250D01*
G75*
G02*
X150456250Y-124550000I-243750J0D01*
G01*
X149543750Y-124550000D01*
G75*
G02*
X149300000Y-124306250I0J243750D01*
G01*
X149300000Y-123818750D01*
G75*
G02*
X149543750Y-123575000I243750J0D01*
G01*
G37*
G36*
G01*
X149543750Y-125450000D02*
X150456250Y-125450000D01*
G75*
G02*
X150700000Y-125693750I0J-243750D01*
G01*
X150700000Y-126181250D01*
G75*
G02*
X150456250Y-126425000I-243750J0D01*
G01*
X149543750Y-126425000D01*
G75*
G02*
X149300000Y-126181250I0J243750D01*
G01*
X149300000Y-125693750D01*
G75*
G02*
X149543750Y-125450000I243750J0D01*
G01*
G37*
%TD*%
%TO.C,C12*%
G36*
G01*
X150456250Y-119425000D02*
X149543750Y-119425000D01*
G75*
G02*
X149300000Y-119181250I0J243750D01*
G01*
X149300000Y-118693750D01*
G75*
G02*
X149543750Y-118450000I243750J0D01*
G01*
X150456250Y-118450000D01*
G75*
G02*
X150700000Y-118693750I0J-243750D01*
G01*
X150700000Y-119181250D01*
G75*
G02*
X150456250Y-119425000I-243750J0D01*
G01*
G37*
G36*
G01*
X150456250Y-117550000D02*
X149543750Y-117550000D01*
G75*
G02*
X149300000Y-117306250I0J243750D01*
G01*
X149300000Y-116818750D01*
G75*
G02*
X149543750Y-116575000I243750J0D01*
G01*
X150456250Y-116575000D01*
G75*
G02*
X150700000Y-116818750I0J-243750D01*
G01*
X150700000Y-117306250D01*
G75*
G02*
X150456250Y-117550000I-243750J0D01*
G01*
G37*
%TD*%
%TO.C,C13*%
G36*
G01*
X142525000Y-135743750D02*
X142525000Y-136656250D01*
G75*
G02*
X142281250Y-136900000I-243750J0D01*
G01*
X141793750Y-136900000D01*
G75*
G02*
X141550000Y-136656250I0J243750D01*
G01*
X141550000Y-135743750D01*
G75*
G02*
X141793750Y-135500000I243750J0D01*
G01*
X142281250Y-135500000D01*
G75*
G02*
X142525000Y-135743750I0J-243750D01*
G01*
G37*
G36*
G01*
X140650000Y-135743750D02*
X140650000Y-136656250D01*
G75*
G02*
X140406250Y-136900000I-243750J0D01*
G01*
X139918750Y-136900000D01*
G75*
G02*
X139675000Y-136656250I0J243750D01*
G01*
X139675000Y-135743750D01*
G75*
G02*
X139918750Y-135500000I243750J0D01*
G01*
X140406250Y-135500000D01*
G75*
G02*
X140650000Y-135743750I0J-243750D01*
G01*
G37*
%TD*%
%TO.C,C14*%
G36*
G01*
X140650000Y-133743750D02*
X140650000Y-134656250D01*
G75*
G02*
X140406250Y-134900000I-243750J0D01*
G01*
X139918750Y-134900000D01*
G75*
G02*
X139675000Y-134656250I0J243750D01*
G01*
X139675000Y-133743750D01*
G75*
G02*
X139918750Y-133500000I243750J0D01*
G01*
X140406250Y-133500000D01*
G75*
G02*
X140650000Y-133743750I0J-243750D01*
G01*
G37*
G36*
G01*
X142525000Y-133743750D02*
X142525000Y-134656250D01*
G75*
G02*
X142281250Y-134900000I-243750J0D01*
G01*
X141793750Y-134900000D01*
G75*
G02*
X141550000Y-134656250I0J243750D01*
G01*
X141550000Y-133743750D01*
G75*
G02*
X141793750Y-133500000I243750J0D01*
G01*
X142281250Y-133500000D01*
G75*
G02*
X142525000Y-133743750I0J-243750D01*
G01*
G37*
%TD*%
%TO.C,C17*%
G36*
G01*
X115956250Y-151550000D02*
X115043750Y-151550000D01*
G75*
G02*
X114800000Y-151306250I0J243750D01*
G01*
X114800000Y-150818750D01*
G75*
G02*
X115043750Y-150575000I243750J0D01*
G01*
X115956250Y-150575000D01*
G75*
G02*
X116200000Y-150818750I0J-243750D01*
G01*
X116200000Y-151306250D01*
G75*
G02*
X115956250Y-151550000I-243750J0D01*
G01*
G37*
G36*
G01*
X115956250Y-153425000D02*
X115043750Y-153425000D01*
G75*
G02*
X114800000Y-153181250I0J243750D01*
G01*
X114800000Y-152693750D01*
G75*
G02*
X115043750Y-152450000I243750J0D01*
G01*
X115956250Y-152450000D01*
G75*
G02*
X116200000Y-152693750I0J-243750D01*
G01*
X116200000Y-153181250D01*
G75*
G02*
X115956250Y-153425000I-243750J0D01*
G01*
G37*
%TD*%
%TO.C,C18*%
G36*
G01*
X102956250Y-152425000D02*
X102043750Y-152425000D01*
G75*
G02*
X101800000Y-152181250I0J243750D01*
G01*
X101800000Y-151693750D01*
G75*
G02*
X102043750Y-151450000I243750J0D01*
G01*
X102956250Y-151450000D01*
G75*
G02*
X103200000Y-151693750I0J-243750D01*
G01*
X103200000Y-152181250D01*
G75*
G02*
X102956250Y-152425000I-243750J0D01*
G01*
G37*
G36*
G01*
X102956250Y-150550000D02*
X102043750Y-150550000D01*
G75*
G02*
X101800000Y-150306250I0J243750D01*
G01*
X101800000Y-149818750D01*
G75*
G02*
X102043750Y-149575000I243750J0D01*
G01*
X102956250Y-149575000D01*
G75*
G02*
X103200000Y-149818750I0J-243750D01*
G01*
X103200000Y-150306250D01*
G75*
G02*
X102956250Y-150550000I-243750J0D01*
G01*
G37*
%TD*%
%TO.C,C19*%
G36*
G01*
X138450000Y-82456250D02*
X138450000Y-81543750D01*
G75*
G02*
X138693750Y-81300000I243750J0D01*
G01*
X139181250Y-81300000D01*
G75*
G02*
X139425000Y-81543750I0J-243750D01*
G01*
X139425000Y-82456250D01*
G75*
G02*
X139181250Y-82700000I-243750J0D01*
G01*
X138693750Y-82700000D01*
G75*
G02*
X138450000Y-82456250I0J243750D01*
G01*
G37*
G36*
G01*
X136575000Y-82456250D02*
X136575000Y-81543750D01*
G75*
G02*
X136818750Y-81300000I243750J0D01*
G01*
X137306250Y-81300000D01*
G75*
G02*
X137550000Y-81543750I0J-243750D01*
G01*
X137550000Y-82456250D01*
G75*
G02*
X137306250Y-82700000I-243750J0D01*
G01*
X136818750Y-82700000D01*
G75*
G02*
X136575000Y-82456250I0J243750D01*
G01*
G37*
%TD*%
%TO.C,C20*%
G36*
G01*
X132575000Y-82456250D02*
X132575000Y-81543750D01*
G75*
G02*
X132818750Y-81300000I243750J0D01*
G01*
X133306250Y-81300000D01*
G75*
G02*
X133550000Y-81543750I0J-243750D01*
G01*
X133550000Y-82456250D01*
G75*
G02*
X133306250Y-82700000I-243750J0D01*
G01*
X132818750Y-82700000D01*
G75*
G02*
X132575000Y-82456250I0J243750D01*
G01*
G37*
G36*
G01*
X134450000Y-82456250D02*
X134450000Y-81543750D01*
G75*
G02*
X134693750Y-81300000I243750J0D01*
G01*
X135181250Y-81300000D01*
G75*
G02*
X135425000Y-81543750I0J-243750D01*
G01*
X135425000Y-82456250D01*
G75*
G02*
X135181250Y-82700000I-243750J0D01*
G01*
X134693750Y-82700000D01*
G75*
G02*
X134450000Y-82456250I0J243750D01*
G01*
G37*
%TD*%
%TO.C,C21*%
G36*
G01*
X134575000Y-109956250D02*
X134575000Y-109043750D01*
G75*
G02*
X134818750Y-108800000I243750J0D01*
G01*
X135306250Y-108800000D01*
G75*
G02*
X135550000Y-109043750I0J-243750D01*
G01*
X135550000Y-109956250D01*
G75*
G02*
X135306250Y-110200000I-243750J0D01*
G01*
X134818750Y-110200000D01*
G75*
G02*
X134575000Y-109956250I0J243750D01*
G01*
G37*
G36*
G01*
X136450000Y-109956250D02*
X136450000Y-109043750D01*
G75*
G02*
X136693750Y-108800000I243750J0D01*
G01*
X137181250Y-108800000D01*
G75*
G02*
X137425000Y-109043750I0J-243750D01*
G01*
X137425000Y-109956250D01*
G75*
G02*
X137181250Y-110200000I-243750J0D01*
G01*
X136693750Y-110200000D01*
G75*
G02*
X136450000Y-109956250I0J243750D01*
G01*
G37*
%TD*%
%TO.C,C22*%
G36*
G01*
X133450000Y-65456250D02*
X133450000Y-64543750D01*
G75*
G02*
X133693750Y-64300000I243750J0D01*
G01*
X134181250Y-64300000D01*
G75*
G02*
X134425000Y-64543750I0J-243750D01*
G01*
X134425000Y-65456250D01*
G75*
G02*
X134181250Y-65700000I-243750J0D01*
G01*
X133693750Y-65700000D01*
G75*
G02*
X133450000Y-65456250I0J243750D01*
G01*
G37*
G36*
G01*
X131575000Y-65456250D02*
X131575000Y-64543750D01*
G75*
G02*
X131818750Y-64300000I243750J0D01*
G01*
X132306250Y-64300000D01*
G75*
G02*
X132550000Y-64543750I0J-243750D01*
G01*
X132550000Y-65456250D01*
G75*
G02*
X132306250Y-65700000I-243750J0D01*
G01*
X131818750Y-65700000D01*
G75*
G02*
X131575000Y-65456250I0J243750D01*
G01*
G37*
%TD*%
%TO.C,FB1*%
G36*
G01*
X126425000Y-133543750D02*
X126425000Y-134456250D01*
G75*
G02*
X126181250Y-134700000I-243750J0D01*
G01*
X125693750Y-134700000D01*
G75*
G02*
X125450000Y-134456250I0J243750D01*
G01*
X125450000Y-133543750D01*
G75*
G02*
X125693750Y-133300000I243750J0D01*
G01*
X126181250Y-133300000D01*
G75*
G02*
X126425000Y-133543750I0J-243750D01*
G01*
G37*
G36*
G01*
X124550000Y-133543750D02*
X124550000Y-134456250D01*
G75*
G02*
X124306250Y-134700000I-243750J0D01*
G01*
X123818750Y-134700000D01*
G75*
G02*
X123575000Y-134456250I0J243750D01*
G01*
X123575000Y-133543750D01*
G75*
G02*
X123818750Y-133300000I243750J0D01*
G01*
X124306250Y-133300000D01*
G75*
G02*
X124550000Y-133543750I0J-243750D01*
G01*
G37*
%TD*%
D11*
%TO.C,R1*%
X151550000Y-155000000D03*
X153450000Y-155000000D03*
%TD*%
D12*
%TO.C,R2*%
X152500000Y-146050000D03*
X152500000Y-147950000D03*
%TD*%
D11*
%TO.C,R3*%
X145950000Y-148000000D03*
X144050000Y-148000000D03*
%TD*%
%TO.C,R4*%
X107550000Y-124500000D03*
X109450000Y-124500000D03*
%TD*%
%TO.C,R5*%
X109450000Y-126500000D03*
X107550000Y-126500000D03*
%TD*%
%TO.C,R7*%
X169450000Y-148500000D03*
X167550000Y-148500000D03*
%TD*%
%TO.C,R8*%
X148250000Y-131500000D03*
X150150000Y-131500000D03*
%TD*%
%TO.C,R9*%
X150150000Y-129400000D03*
X148250000Y-129400000D03*
%TD*%
D12*
%TO.C,R10*%
X169500000Y-158550000D03*
X169500000Y-160450000D03*
%TD*%
%TO.C,R11*%
X156500000Y-158550000D03*
X156500000Y-160450000D03*
%TD*%
D11*
%TO.C,R12*%
X156550000Y-148500000D03*
X158450000Y-148500000D03*
%TD*%
D12*
%TO.C,R14*%
X133500000Y-160950000D03*
X133500000Y-159050000D03*
%TD*%
%TO.C,R16*%
X120500000Y-160950000D03*
X120500000Y-159050000D03*
%TD*%
%TO.C,R13*%
X120500000Y-152950000D03*
X120500000Y-151050000D03*
%TD*%
%TO.C,R23*%
X115500000Y-160950000D03*
X115500000Y-159050000D03*
%TD*%
%TO.C,R24*%
X102500000Y-160450000D03*
X102500000Y-158550000D03*
%TD*%
D11*
%TO.C,R17*%
X131550000Y-88500000D03*
X133450000Y-88500000D03*
%TD*%
%TO.C,R18*%
X138550000Y-88500000D03*
X140450000Y-88500000D03*
%TD*%
%TO.C,R19*%
X130050000Y-109500000D03*
X131950000Y-109500000D03*
%TD*%
D12*
%TO.C,R20*%
X139000000Y-84550000D03*
X139000000Y-86450000D03*
%TD*%
%TO.C,R21*%
X133000000Y-84550000D03*
X133000000Y-86450000D03*
%TD*%
%TO.C,U1*%
G36*
G01*
X132400000Y-123875000D02*
X132400000Y-123675000D01*
G75*
G02*
X132500000Y-123575000I100000J0D01*
G01*
X133775000Y-123575000D01*
G75*
G02*
X133875000Y-123675000I0J-100000D01*
G01*
X133875000Y-123875000D01*
G75*
G02*
X133775000Y-123975000I-100000J0D01*
G01*
X132500000Y-123975000D01*
G75*
G02*
X132400000Y-123875000I0J100000D01*
G01*
G37*
G36*
G01*
X132400000Y-124525000D02*
X132400000Y-124325000D01*
G75*
G02*
X132500000Y-124225000I100000J0D01*
G01*
X133775000Y-124225000D01*
G75*
G02*
X133875000Y-124325000I0J-100000D01*
G01*
X133875000Y-124525000D01*
G75*
G02*
X133775000Y-124625000I-100000J0D01*
G01*
X132500000Y-124625000D01*
G75*
G02*
X132400000Y-124525000I0J100000D01*
G01*
G37*
G36*
G01*
X132400000Y-125175000D02*
X132400000Y-124975000D01*
G75*
G02*
X132500000Y-124875000I100000J0D01*
G01*
X133775000Y-124875000D01*
G75*
G02*
X133875000Y-124975000I0J-100000D01*
G01*
X133875000Y-125175000D01*
G75*
G02*
X133775000Y-125275000I-100000J0D01*
G01*
X132500000Y-125275000D01*
G75*
G02*
X132400000Y-125175000I0J100000D01*
G01*
G37*
G36*
G01*
X132400000Y-125825000D02*
X132400000Y-125625000D01*
G75*
G02*
X132500000Y-125525000I100000J0D01*
G01*
X133775000Y-125525000D01*
G75*
G02*
X133875000Y-125625000I0J-100000D01*
G01*
X133875000Y-125825000D01*
G75*
G02*
X133775000Y-125925000I-100000J0D01*
G01*
X132500000Y-125925000D01*
G75*
G02*
X132400000Y-125825000I0J100000D01*
G01*
G37*
G36*
G01*
X132400000Y-126475000D02*
X132400000Y-126275000D01*
G75*
G02*
X132500000Y-126175000I100000J0D01*
G01*
X133775000Y-126175000D01*
G75*
G02*
X133875000Y-126275000I0J-100000D01*
G01*
X133875000Y-126475000D01*
G75*
G02*
X133775000Y-126575000I-100000J0D01*
G01*
X132500000Y-126575000D01*
G75*
G02*
X132400000Y-126475000I0J100000D01*
G01*
G37*
G36*
G01*
X132400000Y-127125000D02*
X132400000Y-126925000D01*
G75*
G02*
X132500000Y-126825000I100000J0D01*
G01*
X133775000Y-126825000D01*
G75*
G02*
X133875000Y-126925000I0J-100000D01*
G01*
X133875000Y-127125000D01*
G75*
G02*
X133775000Y-127225000I-100000J0D01*
G01*
X132500000Y-127225000D01*
G75*
G02*
X132400000Y-127125000I0J100000D01*
G01*
G37*
G36*
G01*
X132400000Y-127775000D02*
X132400000Y-127575000D01*
G75*
G02*
X132500000Y-127475000I100000J0D01*
G01*
X133775000Y-127475000D01*
G75*
G02*
X133875000Y-127575000I0J-100000D01*
G01*
X133875000Y-127775000D01*
G75*
G02*
X133775000Y-127875000I-100000J0D01*
G01*
X132500000Y-127875000D01*
G75*
G02*
X132400000Y-127775000I0J100000D01*
G01*
G37*
G36*
G01*
X132400000Y-128425000D02*
X132400000Y-128225000D01*
G75*
G02*
X132500000Y-128125000I100000J0D01*
G01*
X133775000Y-128125000D01*
G75*
G02*
X133875000Y-128225000I0J-100000D01*
G01*
X133875000Y-128425000D01*
G75*
G02*
X133775000Y-128525000I-100000J0D01*
G01*
X132500000Y-128525000D01*
G75*
G02*
X132400000Y-128425000I0J100000D01*
G01*
G37*
G36*
G01*
X132400000Y-129075000D02*
X132400000Y-128875000D01*
G75*
G02*
X132500000Y-128775000I100000J0D01*
G01*
X133775000Y-128775000D01*
G75*
G02*
X133875000Y-128875000I0J-100000D01*
G01*
X133875000Y-129075000D01*
G75*
G02*
X133775000Y-129175000I-100000J0D01*
G01*
X132500000Y-129175000D01*
G75*
G02*
X132400000Y-129075000I0J100000D01*
G01*
G37*
G36*
G01*
X132400000Y-129725000D02*
X132400000Y-129525000D01*
G75*
G02*
X132500000Y-129425000I100000J0D01*
G01*
X133775000Y-129425000D01*
G75*
G02*
X133875000Y-129525000I0J-100000D01*
G01*
X133875000Y-129725000D01*
G75*
G02*
X133775000Y-129825000I-100000J0D01*
G01*
X132500000Y-129825000D01*
G75*
G02*
X132400000Y-129725000I0J100000D01*
G01*
G37*
G36*
G01*
X132400000Y-130375000D02*
X132400000Y-130175000D01*
G75*
G02*
X132500000Y-130075000I100000J0D01*
G01*
X133775000Y-130075000D01*
G75*
G02*
X133875000Y-130175000I0J-100000D01*
G01*
X133875000Y-130375000D01*
G75*
G02*
X133775000Y-130475000I-100000J0D01*
G01*
X132500000Y-130475000D01*
G75*
G02*
X132400000Y-130375000I0J100000D01*
G01*
G37*
G36*
G01*
X132400000Y-131025000D02*
X132400000Y-130825000D01*
G75*
G02*
X132500000Y-130725000I100000J0D01*
G01*
X133775000Y-130725000D01*
G75*
G02*
X133875000Y-130825000I0J-100000D01*
G01*
X133875000Y-131025000D01*
G75*
G02*
X133775000Y-131125000I-100000J0D01*
G01*
X132500000Y-131125000D01*
G75*
G02*
X132400000Y-131025000I0J100000D01*
G01*
G37*
G36*
G01*
X132400000Y-131675000D02*
X132400000Y-131475000D01*
G75*
G02*
X132500000Y-131375000I100000J0D01*
G01*
X133775000Y-131375000D01*
G75*
G02*
X133875000Y-131475000I0J-100000D01*
G01*
X133875000Y-131675000D01*
G75*
G02*
X133775000Y-131775000I-100000J0D01*
G01*
X132500000Y-131775000D01*
G75*
G02*
X132400000Y-131675000I0J100000D01*
G01*
G37*
G36*
G01*
X132400000Y-132325000D02*
X132400000Y-132125000D01*
G75*
G02*
X132500000Y-132025000I100000J0D01*
G01*
X133775000Y-132025000D01*
G75*
G02*
X133875000Y-132125000I0J-100000D01*
G01*
X133875000Y-132325000D01*
G75*
G02*
X133775000Y-132425000I-100000J0D01*
G01*
X132500000Y-132425000D01*
G75*
G02*
X132400000Y-132325000I0J100000D01*
G01*
G37*
G36*
G01*
X138125000Y-132325000D02*
X138125000Y-132125000D01*
G75*
G02*
X138225000Y-132025000I100000J0D01*
G01*
X139500000Y-132025000D01*
G75*
G02*
X139600000Y-132125000I0J-100000D01*
G01*
X139600000Y-132325000D01*
G75*
G02*
X139500000Y-132425000I-100000J0D01*
G01*
X138225000Y-132425000D01*
G75*
G02*
X138125000Y-132325000I0J100000D01*
G01*
G37*
G36*
G01*
X138125000Y-131675000D02*
X138125000Y-131475000D01*
G75*
G02*
X138225000Y-131375000I100000J0D01*
G01*
X139500000Y-131375000D01*
G75*
G02*
X139600000Y-131475000I0J-100000D01*
G01*
X139600000Y-131675000D01*
G75*
G02*
X139500000Y-131775000I-100000J0D01*
G01*
X138225000Y-131775000D01*
G75*
G02*
X138125000Y-131675000I0J100000D01*
G01*
G37*
G36*
G01*
X138125000Y-131025000D02*
X138125000Y-130825000D01*
G75*
G02*
X138225000Y-130725000I100000J0D01*
G01*
X139500000Y-130725000D01*
G75*
G02*
X139600000Y-130825000I0J-100000D01*
G01*
X139600000Y-131025000D01*
G75*
G02*
X139500000Y-131125000I-100000J0D01*
G01*
X138225000Y-131125000D01*
G75*
G02*
X138125000Y-131025000I0J100000D01*
G01*
G37*
G36*
G01*
X138125000Y-130375000D02*
X138125000Y-130175000D01*
G75*
G02*
X138225000Y-130075000I100000J0D01*
G01*
X139500000Y-130075000D01*
G75*
G02*
X139600000Y-130175000I0J-100000D01*
G01*
X139600000Y-130375000D01*
G75*
G02*
X139500000Y-130475000I-100000J0D01*
G01*
X138225000Y-130475000D01*
G75*
G02*
X138125000Y-130375000I0J100000D01*
G01*
G37*
G36*
G01*
X138125000Y-129725000D02*
X138125000Y-129525000D01*
G75*
G02*
X138225000Y-129425000I100000J0D01*
G01*
X139500000Y-129425000D01*
G75*
G02*
X139600000Y-129525000I0J-100000D01*
G01*
X139600000Y-129725000D01*
G75*
G02*
X139500000Y-129825000I-100000J0D01*
G01*
X138225000Y-129825000D01*
G75*
G02*
X138125000Y-129725000I0J100000D01*
G01*
G37*
G36*
G01*
X138125000Y-129075000D02*
X138125000Y-128875000D01*
G75*
G02*
X138225000Y-128775000I100000J0D01*
G01*
X139500000Y-128775000D01*
G75*
G02*
X139600000Y-128875000I0J-100000D01*
G01*
X139600000Y-129075000D01*
G75*
G02*
X139500000Y-129175000I-100000J0D01*
G01*
X138225000Y-129175000D01*
G75*
G02*
X138125000Y-129075000I0J100000D01*
G01*
G37*
G36*
G01*
X138125000Y-128425000D02*
X138125000Y-128225000D01*
G75*
G02*
X138225000Y-128125000I100000J0D01*
G01*
X139500000Y-128125000D01*
G75*
G02*
X139600000Y-128225000I0J-100000D01*
G01*
X139600000Y-128425000D01*
G75*
G02*
X139500000Y-128525000I-100000J0D01*
G01*
X138225000Y-128525000D01*
G75*
G02*
X138125000Y-128425000I0J100000D01*
G01*
G37*
G36*
G01*
X138125000Y-127775000D02*
X138125000Y-127575000D01*
G75*
G02*
X138225000Y-127475000I100000J0D01*
G01*
X139500000Y-127475000D01*
G75*
G02*
X139600000Y-127575000I0J-100000D01*
G01*
X139600000Y-127775000D01*
G75*
G02*
X139500000Y-127875000I-100000J0D01*
G01*
X138225000Y-127875000D01*
G75*
G02*
X138125000Y-127775000I0J100000D01*
G01*
G37*
G36*
G01*
X138125000Y-127125000D02*
X138125000Y-126925000D01*
G75*
G02*
X138225000Y-126825000I100000J0D01*
G01*
X139500000Y-126825000D01*
G75*
G02*
X139600000Y-126925000I0J-100000D01*
G01*
X139600000Y-127125000D01*
G75*
G02*
X139500000Y-127225000I-100000J0D01*
G01*
X138225000Y-127225000D01*
G75*
G02*
X138125000Y-127125000I0J100000D01*
G01*
G37*
G36*
G01*
X138125000Y-126475000D02*
X138125000Y-126275000D01*
G75*
G02*
X138225000Y-126175000I100000J0D01*
G01*
X139500000Y-126175000D01*
G75*
G02*
X139600000Y-126275000I0J-100000D01*
G01*
X139600000Y-126475000D01*
G75*
G02*
X139500000Y-126575000I-100000J0D01*
G01*
X138225000Y-126575000D01*
G75*
G02*
X138125000Y-126475000I0J100000D01*
G01*
G37*
G36*
G01*
X138125000Y-125825000D02*
X138125000Y-125625000D01*
G75*
G02*
X138225000Y-125525000I100000J0D01*
G01*
X139500000Y-125525000D01*
G75*
G02*
X139600000Y-125625000I0J-100000D01*
G01*
X139600000Y-125825000D01*
G75*
G02*
X139500000Y-125925000I-100000J0D01*
G01*
X138225000Y-125925000D01*
G75*
G02*
X138125000Y-125825000I0J100000D01*
G01*
G37*
G36*
G01*
X138125000Y-125175000D02*
X138125000Y-124975000D01*
G75*
G02*
X138225000Y-124875000I100000J0D01*
G01*
X139500000Y-124875000D01*
G75*
G02*
X139600000Y-124975000I0J-100000D01*
G01*
X139600000Y-125175000D01*
G75*
G02*
X139500000Y-125275000I-100000J0D01*
G01*
X138225000Y-125275000D01*
G75*
G02*
X138125000Y-125175000I0J100000D01*
G01*
G37*
G36*
G01*
X138125000Y-124525000D02*
X138125000Y-124325000D01*
G75*
G02*
X138225000Y-124225000I100000J0D01*
G01*
X139500000Y-124225000D01*
G75*
G02*
X139600000Y-124325000I0J-100000D01*
G01*
X139600000Y-124525000D01*
G75*
G02*
X139500000Y-124625000I-100000J0D01*
G01*
X138225000Y-124625000D01*
G75*
G02*
X138125000Y-124525000I0J100000D01*
G01*
G37*
G36*
G01*
X138125000Y-123875000D02*
X138125000Y-123675000D01*
G75*
G02*
X138225000Y-123575000I100000J0D01*
G01*
X139500000Y-123575000D01*
G75*
G02*
X139600000Y-123675000I0J-100000D01*
G01*
X139600000Y-123875000D01*
G75*
G02*
X139500000Y-123975000I-100000J0D01*
G01*
X138225000Y-123975000D01*
G75*
G02*
X138125000Y-123875000I0J100000D01*
G01*
G37*
%TD*%
D11*
%TO.C,R6*%
X162050000Y-147500000D03*
X163950000Y-147500000D03*
%TD*%
%TO.C,R22*%
X109950000Y-148000000D03*
X108050000Y-148000000D03*
%TD*%
D13*
%TO.C,X1*%
X148700000Y-155200000D03*
D14*
X144250000Y-151200000D03*
D15*
X148700000Y-164600000D03*
X141300000Y-162600000D03*
%TD*%
%TO.C,X2*%
X159300000Y-162600000D03*
X166700000Y-164600000D03*
D14*
X162250000Y-151200000D03*
D13*
X166700000Y-155200000D03*
%TD*%
D15*
%TO.C,X4*%
X105300000Y-162600000D03*
X112700000Y-164600000D03*
D14*
X108250000Y-151200000D03*
D13*
X112700000Y-155200000D03*
%TD*%
%TO.C,X3*%
X130700000Y-155200000D03*
D14*
X126250000Y-151200000D03*
D15*
X130700000Y-164600000D03*
X123300000Y-162600000D03*
%TD*%
D12*
%TO.C,R15*%
X155000000Y-134350000D03*
X155000000Y-132450000D03*
%TD*%
M02*
