%TF.GenerationSoftware,KiCad,Pcbnew,(5.1.6)-1*%
%TF.CreationDate,2021-01-03T17:25:39+01:00*%
%TF.ProjectId,Nucleo144_DSP,4e75636c-656f-4313-9434-5f4453502e6b,rev?*%
%TF.SameCoordinates,Original*%
%TF.FileFunction,Soldermask,Bot*%
%TF.FilePolarity,Negative*%
%FSLAX46Y46*%
G04 Gerber Fmt 4.6, Leading zero omitted, Abs format (unit mm)*
G04 Created by KiCad (PCBNEW (5.1.6)-1) date 2021-01-03 17:25:39*
%MOMM*%
%LPD*%
G01*
G04 APERTURE LIST*
%ADD10C,2.800000*%
%ADD11R,2.100000X2.100000*%
%ADD12C,2.100000*%
%ADD13R,1.800000X1.800000*%
%ADD14O,1.800000X1.800000*%
%ADD15C,3.300000*%
%ADD16C,1.800000*%
G04 APERTURE END LIST*
D10*
%TO.C,REF\u002A\u002A*%
X124500000Y-86000000D03*
%TD*%
%TO.C,REF\u002A\u002A*%
X124500000Y-62000000D03*
%TD*%
%TO.C,REF\u002A\u002A*%
X147500000Y-86000000D03*
%TD*%
%TO.C,REF\u002A\u002A*%
X147500000Y-62000000D03*
%TD*%
D11*
%TO.C,C16*%
X117000000Y-141000000D03*
D12*
X117000000Y-146000000D03*
%TD*%
%TO.C,C15*%
X129000000Y-146000000D03*
D11*
X129000000Y-141000000D03*
%TD*%
D13*
%TO.C,J1*%
X111870000Y-78560000D03*
D14*
X114410000Y-78560000D03*
X111870000Y-81100000D03*
X114410000Y-81100000D03*
X111870000Y-83640000D03*
X114410000Y-83640000D03*
X111870000Y-86180000D03*
X114410000Y-86180000D03*
X111870000Y-88720000D03*
X114410000Y-88720000D03*
X111870000Y-91260000D03*
X114410000Y-91260000D03*
X111870000Y-93800000D03*
X114410000Y-93800000D03*
X111870000Y-96340000D03*
X114410000Y-96340000D03*
%TD*%
D13*
%TO.C,J2*%
X157590000Y-69670000D03*
D14*
X160130000Y-69670000D03*
X157590000Y-72210000D03*
X160130000Y-72210000D03*
X157590000Y-74750000D03*
X160130000Y-74750000D03*
X157590000Y-77290000D03*
X160130000Y-77290000D03*
X157590000Y-79830000D03*
X160130000Y-79830000D03*
X157590000Y-82370000D03*
X160130000Y-82370000D03*
X157590000Y-84910000D03*
X160130000Y-84910000D03*
X157590000Y-87450000D03*
X160130000Y-87450000D03*
X157590000Y-89990000D03*
X160130000Y-89990000D03*
X157590000Y-92530000D03*
X160130000Y-92530000D03*
%TD*%
D13*
%TO.C,J3*%
X157590000Y-96340000D03*
D14*
X160130000Y-96340000D03*
X157590000Y-98880000D03*
X160130000Y-98880000D03*
X157590000Y-101420000D03*
X160130000Y-101420000D03*
X157590000Y-103960000D03*
X160130000Y-103960000D03*
X157590000Y-106500000D03*
X160130000Y-106500000D03*
X157590000Y-109040000D03*
X160130000Y-109040000D03*
X157590000Y-111580000D03*
X160130000Y-111580000D03*
X157590000Y-114120000D03*
X160130000Y-114120000D03*
X157590000Y-116660000D03*
X160130000Y-116660000D03*
X157590000Y-119200000D03*
X160130000Y-119200000D03*
X157590000Y-121740000D03*
X160130000Y-121740000D03*
X157590000Y-124280000D03*
X160130000Y-124280000D03*
X157590000Y-126820000D03*
X160130000Y-126820000D03*
X157590000Y-129360000D03*
X160130000Y-129360000D03*
X157590000Y-131900000D03*
X160130000Y-131900000D03*
X157590000Y-134440000D03*
X160130000Y-134440000D03*
X157590000Y-136980000D03*
X160130000Y-136980000D03*
%TD*%
D13*
%TO.C,J4*%
X111870000Y-101420000D03*
D14*
X114410000Y-101420000D03*
X111870000Y-103960000D03*
X114410000Y-103960000D03*
X111870000Y-106500000D03*
X114410000Y-106500000D03*
X111870000Y-109040000D03*
X114410000Y-109040000D03*
X111870000Y-111580000D03*
X114410000Y-111580000D03*
X111870000Y-114120000D03*
X114410000Y-114120000D03*
X111870000Y-116660000D03*
X114410000Y-116660000D03*
X111870000Y-119200000D03*
X114410000Y-119200000D03*
X111870000Y-121740000D03*
X114410000Y-121740000D03*
X111870000Y-124280000D03*
X114410000Y-124280000D03*
X111870000Y-126820000D03*
X114410000Y-126820000D03*
X111870000Y-129360000D03*
X114410000Y-129360000D03*
X111870000Y-131900000D03*
X114410000Y-131900000D03*
X111870000Y-134440000D03*
X114410000Y-134440000D03*
X111870000Y-136980000D03*
X114410000Y-136980000D03*
%TD*%
D12*
%TO.C,SW1*%
X133500000Y-106500000D03*
X138500000Y-106500000D03*
D15*
X130400000Y-99500000D03*
X141600000Y-99500000D03*
D12*
X133500000Y-92000000D03*
X136000000Y-92000000D03*
D11*
X138500000Y-92000000D03*
%TD*%
D16*
%TO.C,X1*%
X145000000Y-156500000D03*
X145000000Y-163500000D03*
%TD*%
%TO.C,X2*%
X163000000Y-163500000D03*
X163000000Y-156500000D03*
%TD*%
%TO.C,X4*%
X109000000Y-163500000D03*
X109000000Y-156500000D03*
%TD*%
%TO.C,X3*%
X127000000Y-156500000D03*
X127000000Y-163500000D03*
%TD*%
D14*
%TO.C,J5*%
X147430000Y-139520000D03*
D13*
X149970000Y-139520000D03*
%TD*%
D14*
%TO.C,J6*%
X149970000Y-136980000D03*
D13*
X152510000Y-136980000D03*
%TD*%
%TO.C,J7*%
X152510000Y-134440000D03*
%TD*%
%TO.C,J8*%
X137270000Y-139520000D03*
D14*
X137270000Y-136980000D03*
%TD*%
D13*
%TO.C,J9*%
X139810000Y-139520000D03*
%TD*%
%TO.C,J10*%
X119490000Y-136980000D03*
D14*
X119490000Y-134440000D03*
%TD*%
D13*
%TO.C,J11*%
X119490000Y-131900000D03*
%TD*%
%TO.C,U2*%
X131920000Y-61500000D03*
D14*
X134460000Y-61500000D03*
X137000000Y-61500000D03*
X139540000Y-61500000D03*
%TD*%
M02*
